<?xml version="1.0" standalone="no"?>
<!DOCTYPE svg PUBLIC "-//W3C//DTD SVG 1.1//EN" "http://www.w3.org/Graphics/SVG/1.1/DTD/svg11.dtd" >
<svg>
<metadata>
Created by FontForge 20090914 at Thu Apr  5 17:05:02 2012
 By ffonts
Copyright (c) TOP RITHY, 2003. All rights reserved.
</metadata>
<defs>
<font id="KhmerNettra" horiz-adv-x="0" >
  <font-face 
    font-family="Khmer Nettra"
    font-weight="400"
    font-stretch="normal"
    units-per-em="2048"
    panose-1="2 0 5 6 0 0 0 2 0 4"
    ascent="1638"
    descent="-410"
    x-height="1117"
    cap-height="1489"
    bbox="-1929 -1432 3893 2793"
    underline-thickness="130"
    underline-position="-105"
    unicode-range="U+0020-U+25CC"
  />
<missing-glyph horiz-adv-x="2048" 
d="M256 0v1536h1536v-1536h-1536zM384 128h1280v1280h-1280v-1280z" />
    <glyph glyph-name=".notdef" horiz-adv-x="2048" 
d="M256 0v1536h1536v-1536h-1536zM384 128h1280v1280h-1280v-1280z" />
    <glyph glyph-name=".null" 
 />
    <glyph glyph-name="nonmarkingreturn" horiz-adv-x="640" 
 />
    <glyph glyph-name="space" unicode=" " horiz-adv-x="640" 
 />
    <glyph glyph-name="exclam" unicode="!" horiz-adv-x="680" 
d="M452 1489l-28 -1079h-166l-30 1079h224zM442 0h-204v211h204v-211z" />
    <glyph glyph-name="quotedbl" unicode="&#x22;" horiz-adv-x="822" 
d="M708 1556l-43 -579h-132l-43 579h218zM332 1556l-43 -579h-132l-43 579h218z" />
    <glyph glyph-name="numbersign" unicode="#" horiz-adv-x="1490" 
d="M1348 932h-293l-92 -376h268v-135h-303l-105 -421h-129l105 421h-270l-105 -421h-129l105 421h-258v135h293l92 376h-268v135h303l105 422h129l-105 -422h270l105 422h129l-105 -422h258v-135zM929 934h-274l-94 -380h274z" />
    <glyph glyph-name="dollar" unicode="$" horiz-adv-x="1118" 
d="M1024 380q0 -147 -112.5 -252.5t-283.5 -126.5v-362h-114v357q-108 1 -217.5 25t-190.5 64v202h15q79 -59 178 -96t215 -47v432l-61 14.5t-61 16.5q-150 41 -214.5 124t-64.5 204q0 142 111 247t290 122v272h114v-270q91 -3 188.5 -25.5t159.5 -49.5v-198h-15
q-70 48 -153.5 84t-179.5 44v-430q33 -7 61.5 -14.5t49.5 -12.5q136 -32 210.5 -111t74.5 -213zM514 746v414q-90 -8 -151 -58.5t-61 -140.5q0 -89 44.5 -137.5t167.5 -77.5zM835 354q0 94 -48 139t-159 68v-415q102 12 154.5 61.5t52.5 146.5z" />
    <glyph glyph-name="percent" unicode="%" horiz-adv-x="2000" 
d="M807 1076q0 -225 -90.5 -333.5t-261.5 -108.5q-174 0 -263.5 110t-89.5 331q0 224 91 333t262 109q174 0 263 -110t89 -331zM1473 1489l-780 -1489h-165l780 1489h165zM1897 413q0 -225 -90.5 -333.5t-261.5 -108.5q-174 0 -263.5 110t-89.5 331q0 224 91 333t262 109
q174 0 263 -110t89 -331zM629 1076q0 152 -35.5 230t-138.5 78t-139 -79t-36 -230q0 -150 34 -229t141 -79q103 0 138.5 79t35.5 230zM1719 413q0 152 -35.5 230t-138.5 78t-139 -79t-36 -230q0 -150 34 -229t141 -79q103 0 138.5 79t35.5 230z" />
    <glyph glyph-name="ampersand" unicode="&#x26;" horiz-adv-x="1380" 
d="M1445 0h-256l-204 213q-102 -130 -209.5 -187t-243.5 -57q-202 0 -333.5 121.5t-131.5 318.5q0 86 24 153t64 121q39 52 90 91.5t98 68.5q-101 68 -151 143t-50 189q0 71 28.5 131.5t74.5 106.5q48 47 124.5 77t167.5 30q166 0 271 -87.5t105 -221.5q0 -49 -12.5 -101.5
t-45.5 -101.5t-86.5 -92t-142.5 -75l352 -362q14 82 17 178.5t3 251.5h195v-96q0 -96 -24.5 -216.5t-80.5 -228.5zM898 301l-460 471q-25 -16 -50 -38t-55 -66q-24 -35 -42.5 -91.5t-18.5 -119.5q0 -142 84.5 -233.5t228.5 -91.5q96 0 173 40.5t140 128.5zM532 912
q56 19 92.5 51t56.5 70q18 35 27 74t9 84q0 97 -56.5 150t-131.5 53q-89 0 -140 -60t-51 -150q0 -40 7.5 -68.5t31.5 -66.5q21 -31 58.5 -66t96.5 -71z" />
    <glyph glyph-name="quotesingle" unicode="'" horiz-adv-x="432" 
d="M327 1556l-43 -579h-136l-43 579h222z" />
    <glyph glyph-name="parenleft" unicode="(" horiz-adv-x="784" 
d="M710 -412h-229q-174 207 -273.5 438t-99.5 546q0 308 98.5 542.5t274.5 441.5h229v-10q-81 -73 -154.5 -168.5t-136.5 -222.5q-60 -123 -97.5 -271t-37.5 -312q0 -171 36.5 -313t98.5 -270q60 -123 137 -222.5t154 -168.5v-10z" />
    <glyph glyph-name="parenright" unicode=")" horiz-adv-x="784" 
d="M676 572q0 -309 -99 -543t-274 -441h-229v10q77 69 155 169.5t136 221.5q62 129 98.5 272.5t36.5 310.5q0 165 -37 312t-98 271t-138 223t-153 168v10h229q174 -207 273.5 -440t99.5 -544z" />
    <glyph glyph-name="asterisk" unicode="*" horiz-adv-x="1118" 
d="M1007 887l-65 -110l-327 217l7 -364h-125l6 364l-325 -218l-66 110l354 207l-354 207l66 110l326 -219l-7 365h125l-8 -365l328 218l65 -110l-354 -205z" />
    <glyph glyph-name="plus" unicode="+" horiz-adv-x="1490" 
d="M1333 572h-505v-505h-166v505h-505v160h505v505h166v-505h505v-160z" />
    <glyph glyph-name="comma" unicode="," horiz-adv-x="620" 
d="M500 285l-280 -655h-146l176 655h250z" />
    <glyph glyph-name="hyphen" unicode="-" horiz-adv-x="744" 
d="M654 561h-564v181h564v-181z" />
    <glyph glyph-name="period" unicode="." horiz-adv-x="620" 
d="M429 0h-239v285h239v-285z" />
    <glyph glyph-name="slash" unicode="/" horiz-adv-x="783" 
d="M728 1556l-583 -1880h-169l580 1880h172z" />
    <glyph glyph-name="zero" unicode="0" horiz-adv-x="1118" 
d="M1035 745q0 -401 -116.5 -588.5t-359.5 -187.5q-246 0 -361 191t-115 583q0 403 116.5 589.5t359.5 186.5q246 0 361 -193t115 -581zM779 291q29 74 41 187t12 267q0 153 -12 266t-42 188q-30 76 -82.5 115.5t-136.5 39.5q-83 0 -136.5 -39.5t-84.5 -117.5
q-30 -76 -41 -192t-11 -262q0 -156 9.5 -261t41.5 -188q29 -77 82.5 -118.5t139.5 -41.5q83 0 136.5 39.5t83.5 117.5z" />
    <glyph glyph-name="one" unicode="1" horiz-adv-x="1118" 
d="M952 0h-726v152h270v998h-270v136q153 0 225.5 43.5t81.5 164.5h155v-1342h264v-152z" />
    <glyph glyph-name="two" unicode="2" horiz-adv-x="1118" 
d="M1028 0h-919v209l187 180t172 179q170 187 232 299.5t62 232.5q0 62 -19.5 109t-53.5 78q-35 30 -81 45t-101 15q-53 0 -107.5 -13.5t-104.5 -33.5q-42 -17 -81 -41t-63 -41h-11v212q62 31 172.5 60.5t209.5 29.5q208 0 326 -110.5t118 -299.5q0 -87 -20.5 -161
t-56.5 -137q-37 -65 -89 -129t-110 -126q-94 -102 -209.5 -212l-184.5 -174h732v-171z" />
    <glyph glyph-name="three" unicode="3" horiz-adv-x="1118" 
d="M511 1347q-54 0 -108 -13t-106 -34q-48 -20 -83.5 -42t-63.5 -41h-12v211q65 35 176.5 63.5t212.5 28.5t176.5 -20.5t136.5 -63.5q66 -48 99.5 -116t33.5 -159q0 -123 -81 -216t-194 -118v-14q47 -9 100.5 -31t99.5 -65t75 -110.5t29 -164.5q0 -101 -34.5 -185.5
t-97.5 -149.5q-65 -68 -157 -103t-209 -35q-112 0 -222 27t-185 65v211h14q63 -46 169 -88t212 -42q61 0 122.5 19.5t102.5 63.5q40 44 61 97t21 134t-23.5 133t-65.5 82t-99.5 41.5t-124.5 11.5h-85v166h66q135 0 219.5 64t84.5 186q0 56 -22 96.5t-56 64.5q-38 26 -84 36
t-98 10z" />
    <glyph glyph-name="four" unicode="4" horiz-adv-x="1118" 
d="M1067 512h-177v-512h-192v512h-658v210l666 767h184v-817h177v-160zM698 672v582l-502 -582h502z" />
    <glyph glyph-name="five" unicode="5" horiz-adv-x="1118" 
d="M1011 474q0 -108 -34.5 -200t-96.5 -159q-63 -68 -156.5 -107t-209.5 -39q-107 0 -210.5 23.5t-179.5 61.5v211h14q23 -17 66 -38.5t95 -40.5q59 -21 108 -32.5t110 -11.5q60 0 117 21.5t98 69.5q37 44 56.5 103t19.5 139q0 79 -21.5 130t-62.5 84q-43 38 -105.5 53.5
t-139.5 15.5q-81 0 -163 -12.5t-131 -23.5v767h817v-175h-624v-396q36 4 71 6t64 2q114 0 193 -19t152 -74q74 -56 113.5 -140t39.5 -219z" />
    <glyph glyph-name="six" unicode="6" horiz-adv-x="1118" 
d="M1051 483q0 -115 -38 -212t-102 -162q-67 -69 -150 -104.5t-183 -35.5q-101 0 -183.5 34t-145.5 101q-77 81 -120.5 216.5t-43.5 333.5q0 194 40 350.5t123 272.5q81 113 209 176.5t296 63.5q50 0 93 -5t76 -16v-191h-9q-27 15 -78 27.5t-109 12.5q-186 0 -300.5 -125.5
t-135.5 -372.5q71 50 146 77t164 27q87 0 152.5 -17.5t136.5 -70.5q82 -62 122 -157t40 -223zM848 475q0 92 -24 154t-78 106q-39 32 -88.5 42t-101.5 10q-70 0 -136 -21t-130 -61q-2 -22 -3 -42.5t-1 -51.5q0 -155 30.5 -250t75.5 -144q43 -47 88.5 -66t98.5 -19
q120 0 194.5 86t74.5 257z" />
    <glyph glyph-name="seven" unicode="7" horiz-adv-x="1118" 
d="M1044 1266l-644 -1266h-213l682 1314h-770v175h945v-223z" />
    <glyph glyph-name="eight" unicode="8" horiz-adv-x="1118" 
d="M811 1142q0 100 -67 167t-186 67q-109 0 -178.5 -60t-69.5 -162q0 -74 35.5 -125t106.5 -92q31 -17 94.5 -47t115.5 -47q87 67 118 137.5t31 161.5zM839 396q0 92 -36 146t-139 110q-34 19 -90.5 41l-127.5 52q-83 -55 -127 -135.5t-44 -183.5q0 -135 81.5 -223
t204.5 -88q126 0 202 75.5t76 205.5zM559 -34q-111 0 -202 33t-155 95q-63 60 -95.5 142.5t-32.5 174.5q0 121 64.5 222.5t187.5 161.5v6q-110 64 -163 140t-53 190q0 168 127 280t322 112q203 0 325.5 -106.5t122.5 -272.5q0 -100 -58.5 -198t-168.5 -153v-6
q130 -61 197 -148t67 -224q0 -191 -138.5 -320t-346.5 -129z" />
    <glyph glyph-name="nine" unicode="9" horiz-adv-x="1118" 
d="M832 877q0 152 -28 247.5t-77 147.5q-44 48 -89 66t-99 18q-123 0 -196 -88t-73 -255q0 -94 24 -155t78 -105q38 -31 86 -41.5t103 -10.5q64 0 138 22.5t129 59.5q1 15 2.5 39.5t1.5 54.5zM67 1005q0 115 37.5 210t102.5 164q62 66 151.5 103t181.5 37q103 0 186.5 -34.5
t144.5 -99.5q77 -82 119.5 -215t42.5 -336q0 -185 -41.5 -350.5t-122.5 -274.5q-86 -116 -206.5 -177t-297.5 -61q-40 0 -85 4.5t-84 16.5v191h10q25 -14 78 -27t108 -13q196 0 308 129t127 369q-80 -54 -152.5 -79t-157.5 -25q-83 0 -151 18t-137 70q-80 61 -121 154.5
t-41 225.5z" />
    <glyph glyph-name="colon" unicode=":" horiz-adv-x="724" 
d="M482 832h-239v285h239v-285zM482 0h-239v285h239v-285z" />
    <glyph glyph-name="semicolon" unicode=";" horiz-adv-x="724" 
d="M482 832h-239v285h239v-285zM548 285l-280 -655h-146l176 655h250z" />
    <glyph glyph-name="less" unicode="&#x3c;" horiz-adv-x="1490" 
d="M1275 79l-1074 513v120l1074 513v-178l-833 -395l833 -395v-178z" />
    <glyph glyph-name="equal" unicode="=" horiz-adv-x="1490" 
d="M1298 782h-1106v160h1106v-160zM1298 362h-1106v160h1106v-160z" />
    <glyph glyph-name="greater" unicode="&#x3e;" horiz-adv-x="1490" 
d="M1289 592l-1074 -513v178l833 395l-833 395v178l1074 -513v-120z" />
    <glyph glyph-name="question" unicode="?" horiz-adv-x="970" 
d="M912 1139q0 -98 -32.5 -174.5t-86.5 -134.5t-122.5 -107t-144.5 -95v-228h-179v305l130.5 81.5t116.5 88.5q54 51 84 111.5t30 137.5q0 113 -71 168.5t-185 55.5q-100 0 -188.5 -33.5t-143.5 -69.5h-11v204q67 27 169 48.5t193 21.5q205 0 323 -104.5t118 -275.5zM542 0
h-204v211h204v-211z" />
    <glyph glyph-name="at" unicode="@" horiz-adv-x="1862" 
d="M1739 663q0 -139 -38 -268.5t-109 -237.5h-421l-25 116q-67 -57 -123.5 -90.5t-153.5 -33.5q-154 0 -252 123.5t-98 358.5t120.5 366t275.5 131q72 0 124 -18t105 -48v48h159v-842h227q38 71 54.5 184t16.5 205q0 327 -166.5 526.5t-478.5 199.5q-296 0 -488.5 -215.5
t-192.5 -522.5q0 -330 187 -534.5t489 -204.5q81 0 170.5 11t169.5 35v-142q-84 -20 -170.5 -28t-170.5 -8q-354 0 -586 243t-232 630q0 367 239.5 619t583.5 252q368 0 576 -237.5t208 -617.5zM1142 408v518q-56 29 -103 41.5t-98 12.5q-113 0 -182 -84.5t-69 -261.5
q0 -160 52 -245t166 -85q61 0 120.5 29t113.5 75z" />
    <glyph glyph-name="A" unicode="A" horiz-adv-x="1228" 
d="M-10 0l502 1489h244l502 -1489h-209l-135 416h-569l-135 -416h-200zM839 585l-230 702l-229 -702h459z" />
    <glyph glyph-name="B" unicode="B" horiz-adv-x="1207" 
d="M1161 457q0 -111 -42 -196t-113 -140q-84 -66 -180 -93.5t-248 -27.5h-427v1489h395q159 0 238.5 -10.5t152.5 -49.5q80 -43 117 -112.5t37 -163.5q0 -105 -55.5 -188t-153.5 -130v-8q133 -36 206 -131.5t73 -238.5zM885 1125q0 54 -18 93.5t-58 62.5q-48 27 -107 33
t-163 6h-190v-436h225q93 0 137 9.5t91 39.5q45 29 64 76t19 116zM955 449q0 84 -24 138.5t-97 92.5q-47 25 -102.5 32t-157.5 7h-225v-550h161q130 0 205 12t132 51q56 39 82 88.5t26 128.5z" />
    <glyph glyph-name="C" unicode="C" horiz-adv-x="1230" 
d="M733 -27q-146 0 -268.5 49t-211.5 146t-138 242t-49 333q0 187 47.5 326t138.5 242q89 100 211 152.5t273 52.5q75 0 140.5 -11t121.5 -28q48 -15 98.5 -37.5t99.5 -49.5v-239h-16q-26 24 -67 58t-100 67q-57 31 -124 51t-155 20q-95 0 -180 -39t-149 -115
q-63 -76 -98 -191t-35 -259q0 -153 37 -263.5t101 -186.5q62 -74 146 -111.5t178 -37.5q86 0 159 21t130 53q55 31 95 63.5t63 55.5h15v-236l-92.5 -44t-105.5 -41q-65 -21 -120.5 -32t-144.5 -11z" />
    <glyph glyph-name="D" unicode="D" horiz-adv-x="1389" 
d="M1325 743q0 -204 -82.5 -368t-221.5 -256q-113 -71 -229.5 -95t-297.5 -24h-343v1489h339q210 0 329.5 -31.5t203.5 -86.5q144 -95 223 -252.5t79 -375.5zM1119 746q0 172 -57 293.5t-169 189.5q-79 48 -169 69t-224 21h-151v-1149h151q132 0 231 21t181 78
q103 70 155 186.5t52 290.5z" />
    <glyph glyph-name="E" unicode="E" horiz-adv-x="1149" 
d="M151 0v1489h931v-176h-733v-408h683v-176h-683v-553h733v-176h-931z" />
    <glyph glyph-name="F" unicode="F" horiz-adv-x="1068" 
d="M1042 1313h-693v-420h664v-176h-664v-717h-198v1489h891v-176z" />
    <glyph glyph-name="G" unicode="G" horiz-adv-x="1367" 
d="M774 -29q-158 0 -289 48t-225 146q-94 99 -144 245t-50 336q0 180 50.5 322.5t144.5 243.5q91 98 224 151t291 53q75 0 144 -11t132 -30q50 -15 111.5 -41.5t99.5 -45.5v-239h-17q-37 33 -76.5 62.5t-111.5 63.5q-60 30 -138 50t-168 20q-215 0 -347.5 -162t-132.5 -431
q0 -150 35 -262t101 -190q64 -77 154.5 -117.5t203.5 -40.5q84 0 167 12t140 36v385h-344v174h540v-650q-38 -17 -101.5 -43t-118.5 -41q-73 -22 -132 -33t-143 -11z" />
    <glyph glyph-name="H" unicode="H" horiz-adv-x="1383" 
d="M1232 0h-198v729h-685v-729h-198v1489h198v-584h685v584h198v-1489z" />
    <glyph glyph-name="I" unicode="I" horiz-adv-x="764" 
d="M671 0h-578v152h190v1185h-190v152h578v-152h-190v-1185h190v-152z" />
    <glyph glyph-name="J" unicode="J" horiz-adv-x="853" 
d="M712 387q0 -196 -119.5 -302t-320.5 -106q-48 0 -128.5 8.5t-134.5 20.5v189h11q41 -14 101.5 -31t123.5 -17q92 0 146.5 21t80.5 60q27 40 34.5 98t7.5 134v869h-315v158h513v-1102z" />
    <glyph glyph-name="K" unicode="K" horiz-adv-x="1204" 
d="M1236 0h-257l-543 693l-87 -98v-595h-198v1489h198v-685l610 685h241l-616 -665z" />
    <glyph glyph-name="L" unicode="L" horiz-adv-x="1019" 
d="M1014 0h-863v1489h198v-1313h665v-176z" />
    <glyph glyph-name="M" unicode="M" horiz-adv-x="1578" 
d="M1427 0h-198v1283l-388 -873h-120l-385 873v-1283h-185v1489h270l372 -829l359 829h275v-1489z" />
    <glyph glyph-name="N" unicode="N" horiz-adv-x="1367" 
d="M1216 0h-222l-658 1284v-1284h-185v1489h281l599 -1179v1179h185v-1489z" />
    <glyph glyph-name="O" unicode="O" horiz-adv-x="1449" 
d="M1204 1318q85 -98 132 -243t47 -331q0 -181 -46 -327t-133 -245q-91 -104 -212.5 -153.5t-267.5 -49.5q-151 0 -272 51t-208 152q-86 99 -132 244t-46 328q0 188 46.5 330t132.5 244q86 99 207.5 150.5t271.5 51.5q152 0 274 -53t206 -149zM1177 744q0 148 -32 262
t-90 189q-59 77 -142.5 115.5t-187.5 38.5q-108 0 -188.5 -37.5t-142.5 -116.5q-59 -76 -90.5 -191t-31.5 -260q0 -293 123 -448.5t330 -155.5t329.5 155.5t122.5 448.5z" />
    <glyph glyph-name="P" unicode="P" horiz-adv-x="1129" 
d="M1091 1040q0 -97 -34.5 -183.5t-95.5 -147.5q-77 -76 -181 -115t-263 -39h-168v-555h-198v1489h374q132 0 225 -22t164 -71q83 -57 130 -144.5t47 -211.5zM885 1035q0 77 -26.5 134t-80.5 93q-47 31 -109.5 44t-155.5 13h-164v-595h135q120 0 194 19.5t123 69.5
q44 45 64 98t20 124z" />
    <glyph glyph-name="Q" unicode="Q" horiz-adv-x="1449" 
d="M1388 -364q-54 -14 -113.5 -21t-118.5 -7q-167 0 -271.5 94t-114.5 268h-25h-21q-151 0 -272.5 51.5t-207.5 150.5t-132 244t-46 328q0 188 46.5 330t132.5 244q86 99 207.5 150.5t271.5 51.5q152 0 274 -53t206 -149q85 -98 132 -243t47 -331q0 -289 -113 -477
t-309 -255q5 -56 19.5 -100.5t37.5 -70.5q27 -31 65.5 -45.5t105.5 -14.5q40 0 94 12.5t78 22.5h27v-180zM1177 744q0 148 -32 262t-90 189q-59 77 -142.5 115.5t-187.5 38.5q-108 0 -188.5 -37.5t-142.5 -116.5q-59 -76 -90.5 -191t-31.5 -260q0 -293 123 -449t330 -156
t329.5 156t122.5 449z" />
    <glyph glyph-name="R" unicode="R" horiz-adv-x="1271" 
d="M1304 0h-257l-472 592h-226v-592h-198v1489h384q128 0 214.5 -14t164.5 -65q78 -50 123.5 -129t45.5 -196q0 -164 -83 -274t-226 -163zM876 1070q0 65 -23 115.5t-71 82.5q-42 28 -98 39.5t-139 11.5h-196v-562h174q85 0 153 15t116 62q43 42 63.5 100t20.5 136z" />
    <glyph glyph-name="S" unicode="S" horiz-adv-x="1141" 
d="M566 -27q-162 0 -275.5 33.5t-213.5 82.5v248h14q98 -92 222 -142.5t239 -50.5q164 0 248 68.5t84 180.5q0 89 -44 145t-140 83q-69 20 -126 33t-143 35q-77 20 -138 51t-108 81q-46 49 -71.5 115.5t-25.5 153.5q0 181 141 303.5t360 122.5q125 0 236.5 -25t206.5 -71
v-237h-15q-71 65 -182 113.5t-233 48.5q-138 0 -223 -64.5t-85 -169.5q0 -95 50 -151t145 -82q63 -17 154 -38.5t151 -39.5q154 -47 225 -142t71 -234q0 -87 -35.5 -172t-99.5 -144q-72 -65 -162.5 -100t-226.5 -35z" />
    <glyph glyph-name="T" unicode="T" horiz-adv-x="1196" 
d="M499 0v1313h-500v176h1198v-176h-500v-1313h-198z" />
    <glyph glyph-name="U" unicode="U" horiz-adv-x="1343" 
d="M671 -31q-131 0 -229 34.5t-167 102.5q-78 78 -110 186.5t-32 267.5v929h198v-929q0 -103 13 -173.5t51 -126.5q40 -60 108.5 -91t167.5 -31q93 0 165 31t112 91q37 57 50.5 126t13.5 169v934h198v-929q0 -155 -31.5 -266t-110.5 -188q-71 -69 -165.5 -103t-231.5 -34z
" />
    <glyph glyph-name="V" unicode="V" horiz-adv-x="1222" 
d="M1230 1489l-512 -1489h-214l-512 1489h212l412 -1236l412 1236h202z" />
    <glyph glyph-name="W" unicode="W" horiz-adv-x="1847" 
d="M1821 1489l-374 -1489h-223l-303 1236l-296 -1236h-218l-381 1489h203l300 -1238l298 1238h201l301 -1250l298 1250h194z" />
    <glyph glyph-name="X" unicode="X" horiz-adv-x="1189" 
d="M1181 0h-227l-363 596l-369 -596h-214l473 745l-459 744h226l356 -585l361 585h215l-466 -734z" />
    <glyph glyph-name="Y" unicode="Y" horiz-adv-x="1180" 
d="M1193 1489l-503 -830v-659h-198v638l-503 851h220l384 -657l390 657h210z" />
    <glyph glyph-name="Z" unicode="Z" horiz-adv-x="1145" 
d="M1100 0h-1040v184l797 1129h-761v176h984v-179l-806 -1134h826v-176z" />
    <glyph glyph-name="bracketleft" unicode="[" horiz-adv-x="784" 
d="M686 -392h-520v1948h520v-143h-345v-1662h345v-143z" />
    <glyph glyph-name="backslash" unicode="\" horiz-adv-x="783" 
d="M804 -324h-169l-583 1880h172z" />
    <glyph glyph-name="bracketright" unicode="]" horiz-adv-x="784" 
d="M618 -392h-520v143h345v1662h-345v143h520v-1948z" />
    <glyph glyph-name="asciicircum" unicode="^" horiz-adv-x="1490" 
d="M1357 684h-198l-415 625l-414 -627h-197l549 807h126z" />
    <glyph glyph-name="underscore" unicode="_" horiz-adv-x="1118" 
d="M1134 -300h-1150v130h1150v-130z" />
    <glyph glyph-name="grave" unicode="`" horiz-adv-x="1118" 
d="M670 1302h-149l-273 374h243z" />
    <glyph glyph-name="a" unicode="a" horiz-adv-x="1075" 
d="M760 275v310q-67 -6 -169.5 -16.5t-165.5 -29.5q-75 -23 -124 -70.5t-49 -132.5q0 -96 54 -145t158 -49q89 0 161 38.5t135 94.5zM760 119l-61.5 -47.5t-74.5 -48.5q-50 -26 -96.5 -40t-130.5 -14q-69 0 -131 26t-109 73q-45 46 -72 113.5t-27 142.5q0 116 49 197.5
t155 129.5q94 43 222 59.5t276 24.5v36q0 66 -20 106.5t-56 62.5q-36 23 -88 30.5t-107 7.5q-65 0 -153 -19.5t-176 -56.5h-11v191q52 15 149 33t192 18q115 0 194 -18t142 -65q61 -46 91 -119t30 -178v-764h-187v119z" />
    <glyph glyph-name="b" unicode="b" horiz-adv-x="1132" 
d="M879 562q0 200 -61 303.5t-196 103.5q-77 0 -155.5 -36t-142.5 -91v-640q71 -35 126 -49.5t121 -14.5q144 0 226 102t82 322zM1073 577q0 -274 -133 -441t-333 -167q-91 0 -155.5 22.5t-127.5 60.5l-12 -52h-176v1556h188v-556q71 64 154 106t188 42q189 0 298 -151.5
t109 -419.5z" />
    <glyph glyph-name="c" unicode="c" horiz-adv-x="945" 
d="M580 -25q-115 0 -211 35.5t-165 107.5t-107 181.5t-38 257.5q0 147 39.5 254t105.5 180t164.5 112.5t211.5 39.5q92 0 177.5 -26t152.5 -60v-211h-11q-20 17 -51.5 39t-76.5 45q-39 20 -92 35t-102 15q-146 0 -234.5 -110.5t-88.5 -312.5q0 -198 85.5 -308.5
t237.5 -110.5q92 0 175 38t147 98h11v-211l-70 -31.5t-76 -27.5q-48 -14 -86 -21.5t-98 -7.5z" />
    <glyph glyph-name="d" unicode="d" horiz-adv-x="1132" 
d="M996 0h-188v114q-44 -37 -76 -61t-75 -44q-40 -19 -83 -29.5t-100 -10.5q-91 0 -168.5 38t-131.5 111q-55 74 -85 182.5t-30 249.5q0 147 38 254.5t105 187.5q61 73 147.5 114.5t181.5 41.5q84 0 146 -18.5t131 -57.5v484h188v-1556zM808 272v644q-70 34 -125.5 47
t-120.5 13q-145 0 -227 -108.5t-82 -313.5q0 -197 63 -301.5t202 -104.5q74 0 149 33.5t141 90.5z" />
    <glyph glyph-name="e" unicode="e" horiz-adv-x="1078" 
d="M621 -26q-267 0 -414.5 150.5t-147.5 427.5q0 273 143 434.5t374 161.5q104 0 184 -30t140 -94t92 -156.5t32 -226.5v-102h-774q0 -195 98 -298t271 -103q62 0 121.5 14t107.5 36q51 23 86 44.5t58 40.5h11v-205l-82 -32.5t-88 -30.5q-55 -15 -99.5 -23t-112.5 -8z
M841 683q-2 76 -18 131t-46 93q-33 42 -84.5 64t-127.5 22q-75 0 -127.5 -22.5t-95.5 -65.5q-42 -44 -64 -97.5t-28 -124.5h591z" />
    <glyph glyph-name="f" unicode="f" horiz-adv-x="652" 
d="M724 1376h-10q-25 9 -72 17.5t-84 8.5q-119 0 -169.5 -53.5t-50.5 -193.5v-38h311v-156h-305v-961h-188v961h-127v156h127v37q0 202 97 307t278 105q52 0 102 -5.5t91 -12.5v-172z" />
    <glyph glyph-name="g" unicode="g" horiz-adv-x="1132" 
d="M808 303v613q-70 34 -129.5 48.5t-118.5 14.5q-143 0 -225 -105t-82 -301q0 -186 62.5 -283t202.5 -97q73 0 150.5 29t139.5 81zM176 -179q19 -8 56 -21.5t84 -25.5q52 -13 96 -21t96 -8q87 0 147.5 23t94.5 64q32 41 45 95t13 123v98q-76 -66 -149 -97.5t-183 -31.5
q-191 0 -304 142t-113 408q0 139 39 246.5t105 182.5q63 72 149 111t178 39q87 0 150.5 -20.5t127.5 -58.5l11 48h177v-990q0 -284 -124 -417t-379 -133q-82 0 -167.5 13t-159.5 35v196h10z" />
    <glyph glyph-name="h" unicode="h" horiz-adv-x="1142" 
d="M1014 0h-188v636q0 77 -7.5 143.5t-28.5 106.5q-23 42 -64 62.5t-112 20.5q-70 0 -144.5 -37.5t-145.5 -97.5v-834h-188v1556h188v-563q84 75 166 115t173 40q165 0 258 -108.5t93 -314.5v-725z" />
    <glyph glyph-name="i" unicode="i" horiz-adv-x="468" 
d="M328 0h-188v1117h188v-1117zM341 1304h-214v195h214v-195z" />
    <glyph glyph-name="j" unicode="j" horiz-adv-x="577" 
d="M441 -32q0 -191 -102.5 -291t-282.5 -100q-31 0 -69.5 3t-76.5 9v168h11q22 -5 48.5 -9.5t50.5 -4.5q75 0 123.5 18.5t72.5 58.5q22 36 29.5 91t7.5 134v916h-202v156h390v-1149zM442 1304h-214v195h214v-195z" />
    <glyph glyph-name="k" unicode="k" horiz-adv-x="1020" 
d="M1062 0h-247l-417 539l-74 -72v-467h-188v1556h188v-911l442 472h234l-459 -467z" />
    <glyph glyph-name="l" unicode="l" horiz-adv-x="468" 
d="M328 0h-188v1556h188v-1556z" />
    <glyph glyph-name="m" unicode="m" horiz-adv-x="1720" 
d="M1404 0v646q0 77 -6 142.5t-25 102.5q-20 40 -57 59t-100 19q-58 0 -124.5 -35.5t-137.5 -102.5l2.5 -40.5t1.5 -55.5v-735h-188v646q0 77 -6 142.5t-25 102.5q-20 40 -57 59t-100 19q-61 0 -128 -38t-130 -97v-834h-188v1117h188v-124q74 74 146.5 114.5t159.5 40.5
q99 0 175.5 -45t116.5 -148q85 95 166 144t176 49q72 0 131 -22.5t103 -72.5q45 -51 69.5 -127t24.5 -191v-735h-188z" />
    <glyph glyph-name="n" unicode="n" horiz-adv-x="1142" 
d="M1014 0h-188v636q0 77 -7.5 143.5t-28.5 106.5q-23 42 -64 62.5t-112 20.5q-70 0 -144.5 -37.5t-145.5 -97.5v-834h-188v1117h188v-124q84 75 166 115t173 40q165 0 258 -108.5t93 -314.5v-725z" />
    <glyph glyph-name="o" unicode="o" horiz-adv-x="1112" 
d="M1055 558q0 -282 -136 -435.5t-362 -153.5q-233 0 -366.5 158.5t-133.5 430.5q0 280 137.5 435t362.5 155q226 0 362 -154.5t136 -435.5zM861 558q0 217 -79 322.5t-225 105.5q-147 0 -226.5 -105.5t-79.5 -322.5q0 -210 79.5 -318.5t226.5 -108.5q145 0 224.5 106.5
t79.5 320.5z" />
    <glyph glyph-name="p" unicode="p" horiz-adv-x="1132" 
d="M1073 588q0 -279 -133.5 -444.5t-337.5 -165.5q-83 0 -147 19t-131 59v-468h-188v1529h188v-117q70 63 155.5 105.5t186.5 42.5q192 0 299.5 -152t107.5 -408zM879 567q0 191 -61 296.5t-198 105.5q-80 0 -154.5 -35.5t-141.5 -91.5v-633q74 -36 126.5 -49t120.5 -13
q146 0 227 107t81 313z" />
    <glyph glyph-name="q" unicode="q" horiz-adv-x="1132" 
d="M996 -412h-188v534q-82 -75 -160 -109.5t-173 -34.5q-190 0 -303 152.5t-113 424.5q0 144 39.5 254.5t104.5 185.5q62 73 148 113t179 40q86 0 149 -20t129 -59l12 48h176v-1529zM808 280v636q-71 35 -127 49t-120 14q-148 0 -228 -107t-80 -308q0 -196 64 -301.5
t199 -105.5q79 0 154 34t138 89z" />
    <glyph glyph-name="r" unicode="r" horiz-adv-x="738" 
d="M728 915h-10q-21 6 -44.5 7.5t-56.5 1.5q-76 0 -151 -33t-142 -98v-793h-188v1117h188v-166q103 91 179.5 128.5t148.5 37.5q29 0 43.5 -1.5t32.5 -4.5v-196z" />
    <glyph glyph-name="s" unicode="s" horiz-adv-x="914" 
d="M438 -27q-112 0 -209.5 30t-161.5 64v211h10q24 -19 56.5 -42t86.5 -48q48 -22 105.5 -39t119.5 -17q45 0 96 10.5t76 26.5q35 23 50.5 49t15.5 78q0 67 -36.5 101t-129.5 57q-36 9 -94 21t-107 26q-128 37 -186 114.5t-58 187.5q0 151 114 246t303 95q93 0 187 -23
t158 -58v-201h-10q-72 57 -160.5 90t-178.5 33q-93 0 -157 -39t-64 -118q0 -70 38 -104.5t122 -56.5q42 -11 93.5 -21.5t108.5 -24.5q124 -31 186.5 -103t62.5 -196q0 -72 -28.5 -136.5t-83.5 -110.5q-60 -50 -135.5 -76t-189.5 -26z" />
    <glyph glyph-name="t" unicode="t" horiz-adv-x="685" 
d="M474 -22q-154 0 -240 87.5t-86 276.5v619h-127v156h127v321h188v-321h346v-156h-346v-531q0 -85 3 -131t23 -86q17 -35 55 -52.5t103 -17.5q46 0 89 13.5t62 22.5h11v-169q-53 -15 -107.5 -23.5t-100.5 -8.5z" />
    <glyph glyph-name="u" unicode="u" horiz-adv-x="1142" 
d="M1006 0h-188v124q-87 -76 -165 -115.5t-174 -39.5q-73 0 -137.5 24t-112.5 76t-74.5 131t-26.5 192v725h188v-636q0 -89 6.5 -147.5t29.5 -102.5q23 -43 62.5 -63t113.5 -20q69 0 147 39t143 96v834h188v-1117z" />
    <glyph glyph-name="v" unicode="v" horiz-adv-x="1020" 
d="M1014 1117l-421 -1117h-169l-418 1117h203l306 -862l303 862h196z" />
    <glyph glyph-name="w" unicode="w" horiz-adv-x="1520" 
d="M1490 1117l-283 -1117h-174l-273 861l-271 -861h-173l-286 1117h196l197 -865l265 865h155l272 -865l186 865h189z" />
    <glyph glyph-name="x" unicode="x" horiz-adv-x="1014" 
d="M1004 0h-231l-271 422l-279 -422h-213l388 554l-384 563h231l269 -418l276 418h214l-386 -550z" />
    <glyph glyph-name="y" unicode="y" horiz-adv-x="1020" 
d="M1014 1117l-601 -1529h-201l200 466l-406 1063h203l305 -827l304 827h196z" />
    <glyph glyph-name="z" unicode="z" horiz-adv-x="910" 
d="M870 0h-821v139l584 823h-560v155h786v-134l-587 -826h598v-157z" />
    <glyph glyph-name="braceleft" unicode="{" horiz-adv-x="984" 
d="M886 -392h-116q-179 0 -280.5 98.5t-101.5 288.5v149q0 69 -13 139t-50 120t-96.5 75.5t-147.5 25.5h-21v156h21q88 0 147.5 25.5t96.5 75.5t50 120t13 139v149q0 190 101.5 288.5t280.5 98.5h116v-138h-80q-59 0 -102 -12t-74 -41q-32 -30 -47.5 -83t-15.5 -130v-175
q0 -82 -19 -138t-56 -105q-33 -44 -86 -80.5t-110 -59.5v-24q57 -23 109.5 -59.5t86.5 -80.5q37 -49 56 -105t19 -138v-175q0 -77 15.5 -130t47.5 -83q30 -29 73.5 -41t102.5 -12h80v-138z" />
    <glyph glyph-name="bar" unicode="|" horiz-adv-x="783" 
d="M475 -392h-167v1948h167v-1948z" />
    <glyph glyph-name="braceright" unicode="}" horiz-adv-x="984" 
d="M924 504h-21q-88 0 -147.5 -25.5t-96.5 -75.5t-50 -120t-13 -139v-149q0 -190 -101.5 -288.5t-280.5 -98.5h-116v138h80q59 0 102 12t74 41q32 30 47.5 83t15.5 130v175q0 82 19 138t56 105q33 44 86 80.5t110 59.5v24q-57 23 -110 59.5t-86 80.5q-37 49 -56 105t-19 138
v175q0 77 -15.5 130t-47.5 83q-31 29 -74 41t-102 12h-80v138h116q179 0 280.5 -98.5t101.5 -288.5v-149q0 -69 13 -139t50 -120t96.5 -75.5t147.5 -25.5h21v-156z" />
    <glyph glyph-name="asciitilde" unicode="~" horiz-adv-x="1490" 
d="M1356 927q-2 -102 -21 -196.5t-60 -169.5q-41 -73 -102 -119t-159 -46q-57 0 -102.5 15.5t-80.5 40.5t-67 60t-57 65l-53 67t-51 60q-27 28 -56 45t-66 17q-50 0 -83 -26.5t-55 -78.5q-21 -50 -29.5 -120t-11.5 -146h-168q2 104 21.5 199t58.5 167q40 76 106 120.5
t156 44.5q60 0 105.5 -16t80.5 -41t64.5 -57t57.5 -67l52.5 -66t51.5 -61q29 -30 58.5 -46t62.5 -16q50 0 84.5 28t53.5 76q20 50 29.5 117.5t11.5 149.5h168z" />
    <glyph glyph-name="Adieresis" unicode="&#x201a;" horiz-adv-x="1228" 
d="M-10 0l502 1489h244l502 -1489h-209l-135 416h-569l-135 -416h-200zM839 585l-230 702l-229 -702h459zM913 1657h-201v195h201v-195zM500 1657h-201v195h201v-195z" />
    <glyph glyph-name="Aring" unicode="&#x192;" horiz-adv-x="1228" 
d="M874.5 1532q-45.5 -69 -116.5 -107l480 -1425h-209l-135 416h-569l-135 -416h-200l479 1422q-72 40 -116.5 108.5t-44.5 154.5q0 128 89 214.5t217 86.5q129 0 217.5 -86t88.5 -215q0 -84 -45.5 -153zM839 584l-230 705l-229 -705h459zM773 1683q0 73 -44 121.5
t-115 48.5q-70 0 -114.5 -48.5t-44.5 -121.5q0 -74 45 -122.5t114 -48.5t114 48.5t45 122.5z" />
    <glyph glyph-name="Ccedilla" unicode="&#x201e;" horiz-adv-x="1230" 
d="M733 -27q-146 0 -268.5 49t-211.5 146t-138 242t-49 333q0 187 47.5 326t138.5 242q89 100 211 152.5t273 52.5q75 0 140.5 -11t121.5 -28q48 -15 98.5 -37.5t99.5 -49.5v-239h-16q-26 24 -67 58t-100 67q-57 31 -124 51t-155 20q-95 0 -180 -39t-149 -115
q-63 -76 -98 -191t-35 -259q0 -153 37 -263.5t101 -186.5q62 -74 146 -111.5t178 -37.5q86 0 159 21t130 53q55 31 95 63.5t63 55.5h15v-236l-92.5 -44t-105.5 -41q-8 -3 -23 -7.5t-21 -5.5q1 -15 3 -39t2 -53q0 -149 -82 -241.5t-227 -92.5q-37 0 -87 6t-90 18v160h9
q24 -11 63 -22.5t79 -11.5q94 0 138 39.5t44 126.5q0 18 -0.5 38t-1.5 45q-18 -1 -33.5 -2t-37.5 -1z" />
    <glyph glyph-name="Eacute" unicode="&#x2026;" horiz-adv-x="1149" 
d="M151 0v1489h931v-176h-733v-408h683v-176h-683v-553h733v-176h-931zM920 2049l-273 -374h-149l179 374h243z" />
    <glyph glyph-name="Ntilde" unicode="&#x2020;" horiz-adv-x="1367" 
d="M1216 0h-222l-658 1284v-1284h-185v1489h281l599 -1179v1179h185v-1489zM1110 1985q-10 -156 -74.5 -234t-171.5 -78q-52 0 -96 19t-86 59q-44 41 -76 62.5t-63 21.5q-49 0 -68.5 -45t-23.5 -121h-140q7 154 76 232.5t169 78.5q51 0 94 -19.5t86 -57.5q43 -39 77.5 -59.5
t63.5 -20.5q47 0 68.5 45t24.5 117h140z" />
    <glyph glyph-name="Odieresis" unicode="&#x2021;" horiz-adv-x="1449" 
d="M1204 1318q85 -98 132 -243t47 -331q0 -181 -46 -327t-133 -245q-91 -104 -212.5 -153.5t-267.5 -49.5q-151 0 -272 51t-208 152q-86 99 -132 244t-46 328q0 188 46.5 330t132.5 244q86 99 207.5 150.5t271.5 51.5q152 0 274 -53t206 -149zM1177 744q0 148 -32 262
t-90 189q-59 77 -142.5 115.5t-187.5 38.5q-108 0 -188.5 -37.5t-142.5 -116.5q-59 -76 -90.5 -191t-31.5 -260q0 -293 123 -448.5t330 -155.5t329.5 155.5t122.5 448.5zM1027 1677h-201v195h201v-195zM614 1677h-201v195h201v-195z" />
    <glyph glyph-name="Udieresis" unicode="&#x2030;" horiz-adv-x="1343" 
d="M671 -31q-131 0 -229 34.5t-167 102.5q-78 78 -110 186.5t-32 267.5v929h198v-929q0 -103 13 -173.5t51 -126.5q40 -60 108.5 -91t167.5 -31q93 0 165 31t112 91q37 57 50.5 126t13.5 169v934h198v-929q0 -155 -31.5 -266t-110.5 -188q-71 -69 -165.5 -103t-231.5 -34z
M1004 1677h-201v195h201v-195zM591 1677h-201v195h201v-195z" />
    <glyph glyph-name="aacute" unicode="&#x2039;" horiz-adv-x="1174" 
d="M1043 541l-488 419v85l488 418v-188l-317 -273l317 -273v-188zM613 512l-510 446v89l510 445v-196l-331 -294l331 -294v-196z" />
    <glyph glyph-name="agrave" unicode="&#x152;" horiz-adv-x="1075" 
d="M760 275v310q-67 -6 -169.5 -16.5t-165.5 -29.5q-75 -23 -124 -70.5t-49 -132.5q0 -96 54 -145t158 -49q89 0 161 38.5t135 94.5zM760 119l-61.5 -47.5t-74.5 -48.5q-50 -26 -96.5 -40t-130.5 -14q-69 0 -131 26t-109 73q-45 46 -72 113.5t-27 142.5q0 116 49 197.5
t155 129.5q94 43 222 59.5t276 24.5v36q0 66 -20 106.5t-56 62.5q-36 23 -88 30.5t-107 7.5q-65 0 -153 -19.5t-176 -56.5h-11v191q52 15 149 33t192 18q115 0 194 -18t142 -65q61 -46 91 -119t30 -178v-764h-187v119zM670 1302h-149l-273 374h243z" />
    <glyph glyph-name="acircumflex" unicode="&#x2018;" horiz-adv-x="499" 
d="M385 1444q-35 -12 -64.5 -33.5t-49 -47.5t-31 -53.5t-11.5 -54.5q0 -43 31 -76.5t94 -39.5q17 -9 23 -24t6 -30q0 -38 -29.5 -62t-68.5 -24q-37 0 -69 17.5t-53.5 46.5t-33.5 63.5t-12 69.5q0 53 19.5 100t54 85t79.5 68t95 48z" />
    <glyph glyph-name="adieresis" unicode="&#x2019;" horiz-adv-x="858" 
d="M362 993q-49 19 -94 48.5t-78.5 68.5t-54 85t-20.5 99q0 35 12 71t33.5 63.5t53.5 46t71 18.5q37 0 66.5 -23.5t29.5 -64.5q0 -14 -6 -29.5t-23 -23.5q-63 -6 -88.5 -40t-25.5 -75q0 -53 36.5 -108.5t108.5 -81.5zM725 993q-51 19 -95 48.5t-78 68.5t-54.5 85t-20.5 99
q0 35 11.5 71t34 63.5t53 46t69.5 18.5t68.5 -23.5t29.5 -64.5q0 -14 -7 -29.5t-21 -23.5q-64 -6 -94.5 -40t-30.5 -75q0 -27 11 -54.5t30.5 -53t48.5 -47t65 -35.5z" />
    <glyph glyph-name="atilde" unicode="&#x201c;" horiz-adv-x="858" 
d="M745 1444q-36 -12 -65 -33.5t-48.5 -47.5t-30.5 -53.5t-11 -54.5q0 -43 30.5 -76.5t94.5 -39.5q14 -9 21 -24t7 -30q0 -38 -29.5 -62t-68.5 -24t-69.5 17.5t-53 46.5t-34 63.5t-11.5 69.5q0 53 19.5 100t54.5 85t79 68t95 48zM385 1444q-35 -12 -64.5 -33.5t-49 -47.5
t-31 -53.5t-11.5 -54.5q0 -43 31 -76.5t94 -39.5q17 -9 23 -24t6 -30q0 -38 -29.5 -62t-68.5 -24q-37 0 -69 17.5t-53.5 46.5t-33.5 63.5t-12 69.5q0 53 19.5 100t54 85t79.5 68t95 48z" />
    <glyph glyph-name="aring" unicode="&#x201d;" horiz-adv-x="858" 
d="M477 1047q72 26 109 81.5t37 108.5q0 41 -26 75t-89 40q-16 8 -22.5 23.5t-6.5 29.5q0 41 30 64.5t66 23.5q39 0 71 -18.5t53.5 -46t33.5 -63.5t12 -71q0 -53 -20 -99t-54 -85t-79 -68.5t-94 -48.5zM115 1047q37 14 65.5 35.5t48 47t30.5 53t11 54.5q0 41 -30.5 75
t-94.5 40q-14 8 -21 23.5t-7 29.5q0 41 29.5 64.5t68.5 23.5t69.5 -18.5t53 -46t34 -63.5t11.5 -71q0 -53 -20.5 -99t-54.5 -85t-78 -68.5t-95 -48.5z" />
    <glyph glyph-name="ccedilla" unicode="&#x2022;" horiz-adv-x="945" 
d="M580 -25q-115 0 -211 35.5t-165 107.5t-107 181.5t-38 257.5q0 147 39.5 254t105.5 180t164.5 112.5t211.5 39.5q92 0 177.5 -26t152.5 -60v-211h-11q-20 17 -51.5 39t-76.5 45q-39 20 -92 35t-102 15q-146 0 -234.5 -110.5t-88.5 -312.5q0 -198 85.5 -308.5
t237.5 -110.5q92 0 175 38t147 98h11v-211l-65 -29t-68 -26q1 -16 3 -42t2 -55q0 -149 -82 -241.5t-227 -92.5q-37 0 -87 6t-90 18v160h9q24 -11 63 -22.5t79 -11.5q94 0 138 39.5t44 126.5q0 18 -0.5 38.5t-1.5 45.5q-13 0 -22.5 -1t-24.5 -1z" />
    <glyph glyph-name="eacute" unicode="&#x2013;" horiz-adv-x="1078" 
d="M621 -26q-267 0 -414.5 150.5t-147.5 427.5q0 273 143 434.5t374 161.5q104 0 184 -30t140 -94t92 -156.5t32 -226.5v-102h-774q0 -195 98 -298t271 -103q62 0 121.5 14t107.5 36q51 23 86 44.5t58 40.5h11v-205l-82 -32.5t-88 -30.5q-55 -15 -99.5 -23t-112.5 -8z
M841 683q-2 76 -18 131t-46 93q-33 42 -84.5 64t-127.5 22q-75 0 -127.5 -22.5t-95.5 -65.5q-42 -44 -64 -97.5t-28 -124.5h591zM889 1676l-273 -374h-149l179 374h243z" />
    <glyph glyph-name="egrave" unicode="&#x2014;" horiz-adv-x="1078" 
d="M621 -26q-267 0 -414.5 150.5t-147.5 427.5q0 273 143 434.5t374 161.5q104 0 184 -30t140 -94t92 -156.5t32 -226.5v-102h-774q0 -195 98 -298t271 -103q62 0 121.5 14t107.5 36q51 23 86 44.5t58 40.5h11v-205l-82 -32.5t-88 -30.5q-55 -15 -99.5 -23t-112.5 -8z
M841 683q-2 76 -18 131t-46 93q-33 42 -84.5 64t-127.5 22q-75 0 -127.5 -22.5t-95.5 -65.5q-42 -44 -64 -97.5t-28 -124.5h591zM685 1302h-149l-273 374h243z" />
    <glyph glyph-name="ecircumflex" unicode="&#x2122;" horiz-adv-x="1078" 
d="M621 -26q-267 0 -414.5 150.5t-147.5 427.5q0 273 143 434.5t374 161.5q104 0 184 -30t140 -94t92 -156.5t32 -226.5v-102h-774q0 -195 98 -298t271 -103q62 0 121.5 14t107.5 36q51 23 86 44.5t58 40.5h11v-205l-82 -32.5t-88 -30.5q-55 -15 -99.5 -23t-112.5 -8z
M841 683q-2 76 -18 131t-46 93q-33 42 -84.5 64t-127.5 22q-75 0 -127.5 -22.5t-95.5 -65.5q-42 -44 -64 -97.5t-28 -124.5h591zM915 1297h-159l-185 256l-184 -256h-155l228 379h227z" />
    <glyph glyph-name="edieresis" unicode="&#x203a;" horiz-adv-x="1174" 
d="M1071 958l-510 -446v196l331 294l-331 294v196l510 -445v-89zM619 960l-488 -419v188l317 273l-317 273v188l488 -418v-85z" />
    <glyph glyph-name="iacute" unicode="&#x153;" horiz-adv-x="468" 
d="M328 0h-188v1117h188v-1117zM545 1676l-273 -374h-149l179 374h243z" />
    <glyph glyph-name="igrave" unicode="&#x178;" horiz-adv-x="468" 
d="M328 0h-188v1117h188v-1117zM424 1302h-149l-273 374h243z" />
    <glyph glyph-name="icircumflex" unicode="&#xa0;" horiz-adv-x="468" 
d="M328 0h-188v1117h188v-1117zM521 1297h-151l-139 263l-138 -263h-147l174 379h227z" />
    <glyph glyph-name="idieresis" unicode="&#xa1;" horiz-adv-x="468" 
d="M328 0h-188v1117h188v-1117zM506 1304h-189v195h189v-195zM151 1304h-189v195h189v-195z" />
    <glyph glyph-name="ntilde" unicode="&#xa2;" horiz-adv-x="1142" 
d="M1014 0h-188v636q0 77 -7.5 143.5t-28.5 106.5q-23 42 -64 62.5t-112 20.5q-70 0 -144.5 -37.5t-145.5 -97.5v-834h-188v1117h188v-124q84 75 166 115t173 40q165 0 258 -108.5t93 -314.5v-725zM978 1632q-10 -156 -74.5 -234t-171.5 -78q-52 0 -96 19t-86 59
q-44 41 -76 62.5t-63 21.5q-49 0 -68.5 -45t-23.5 -121h-140q7 154 76 232.5t169 78.5q51 0 94 -19.5t86 -57.5q43 -39 77.5 -59.5t63.5 -20.5q47 0 68.5 45t24.5 117h140z" />
    <glyph glyph-name="oacute" unicode="&#xa3;" horiz-adv-x="1112" 
d="M1055 558q0 -282 -136 -435.5t-362 -153.5q-233 0 -366.5 158.5t-133.5 430.5q0 280 137.5 435t362.5 155q226 0 362 -154.5t136 -435.5zM861 558q0 217 -79 322.5t-225 105.5q-147 0 -226.5 -105.5t-79.5 -322.5q0 -210 79.5 -318.5t226.5 -108.5q145 0 224.5 106.5
t79.5 320.5zM871 1676l-273 -374h-149l179 374h243z" />
    <glyph glyph-name="ograve" unicode="&#xa4;" horiz-adv-x="1112" 
d="M1055 558q0 -282 -136 -435.5t-362 -153.5q-233 0 -366.5 158.5t-133.5 430.5q0 280 137.5 435t362.5 155q226 0 362 -154.5t136 -435.5zM861 558q0 217 -79 322.5t-225 105.5q-147 0 -226.5 -105.5t-79.5 -322.5q0 -210 79.5 -318.5t226.5 -108.5q145 0 224.5 106.5
t79.5 320.5zM670 1302h-149l-273 374h243z" />
    <glyph glyph-name="ocircumflex" unicode="&#xa5;" horiz-adv-x="1112" 
d="M1055 558q0 -282 -136 -435.5t-362 -153.5q-233 0 -366.5 158.5t-133.5 430.5q0 280 137.5 435t362.5 155q226 0 362 -154.5t136 -435.5zM861 558q0 217 -79 322.5t-225 105.5q-147 0 -226.5 -105.5t-79.5 -322.5q0 -210 79.5 -318.5t226.5 -108.5q145 0 224.5 106.5
t79.5 320.5zM901 1297h-159l-185 256l-184 -256h-155l228 379h227z" />
    <glyph glyph-name="odieresis" unicode="&#xa7;" horiz-adv-x="1112" 
d="M1055 558q0 -282 -136 -435.5t-362 -153.5q-233 0 -366.5 158.5t-133.5 430.5q0 280 137.5 435t362.5 155q226 0 362 -154.5t136 -435.5zM861 558q0 217 -79 322.5t-225 105.5q-147 0 -226.5 -105.5t-79.5 -322.5q0 -210 79.5 -318.5t226.5 -108.5q145 0 224.5 106.5
t79.5 320.5zM867 1304h-201v195h201v-195zM454 1304h-201v195h201v-195z" />
    <glyph glyph-name="otilde" unicode="&#xa8;" horiz-adv-x="1112" 
d="M1055 558q0 -282 -136 -435.5t-362 -153.5q-233 0 -366.5 158.5t-133.5 430.5q0 280 137.5 435t362.5 155q226 0 362 -154.5t136 -435.5zM861 558q0 217 -79 322.5t-225 105.5q-147 0 -226.5 -105.5t-79.5 -322.5q0 -210 79.5 -318.5t226.5 -108.5q145 0 224.5 106.5
t79.5 320.5zM960 1632q-10 -156 -74.5 -234t-171.5 -78q-52 0 -96 19t-86 59q-44 41 -76 62.5t-63 21.5q-49 0 -68.5 -45t-23.5 -121h-140q7 154 76 232.5t169 78.5q51 0 94 -19.5t86 -57.5q43 -39 77.5 -59.5t63.5 -20.5q47 0 68.5 45t24.5 117h140z" />
    <glyph glyph-name="uacute" unicode="&#xa9;" horiz-adv-x="1142" 
d="M1006 0h-188v124q-87 -76 -165 -115.5t-174 -39.5q-73 0 -137.5 24t-112.5 76t-74.5 131t-26.5 192v725h188v-636q0 -89 6.5 -147.5t29.5 -102.5q23 -43 62.5 -63t113.5 -20q69 0 147 39t143 96v834h188v-1117zM871 1676l-273 -374h-149l179 374h243z" />
    <glyph glyph-name="ugrave" unicode="&#xaa;" horiz-adv-x="1142" 
d="M1006 0h-188v124q-87 -76 -165 -115.5t-174 -39.5q-73 0 -137.5 24t-112.5 76t-74.5 131t-26.5 192v725h188v-636q0 -89 6.5 -147.5t29.5 -102.5q23 -43 62.5 -63t113.5 -20q69 0 147 39t143 96v834h188v-1117zM687 1302h-149l-273 374h243z" />
    <glyph glyph-name="ucircumflex" unicode="&#xab;" horiz-adv-x="1142" 
d="M1006 0h-188v124q-87 -76 -165 -115.5t-174 -39.5q-73 0 -137.5 24t-112.5 76t-74.5 131t-26.5 192v725h188v-636q0 -89 6.5 -147.5t29.5 -102.5q23 -43 62.5 -63t113.5 -20q69 0 147 39t143 96v834h188v-1117zM908 1297h-159l-185 256l-184 -256h-155l228 379h227z" />
    <glyph glyph-name="udieresis" unicode="&#xac;" horiz-adv-x="1142" 
d="M1006 0h-188v124q-87 -76 -165 -115.5t-174 -39.5q-73 0 -137.5 24t-112.5 76t-74.5 131t-26.5 192v725h188v-636q0 -89 6.5 -147.5t29.5 -102.5q23 -43 62.5 -63t113.5 -20q69 0 147 39t143 96v834h188v-1117zM879 1304h-201v195h201v-195zM466 1304h-201v195h201v-195z
" />
    <glyph glyph-name="dagger" unicode="&#xae;" horiz-adv-x="1118" 
d="M983 1034l-363 5l5 -904h-132l5 904l-363 -5v129l363 -5l-5 398h132l-5 -398l363 5v-129z" />
    <glyph glyph-name="degree" unicode="&#xaf;" horiz-adv-x="964" 
d="M863 1135q0 -160 -110 -270t-271 -110q-159 0 -270 109t-111 271q0 160 110 270t271 110t271 -110t110 -270zM706 1135q0 96 -64 162t-160 66t-160 -66t-64 -162q0 -98 65.5 -163t158.5 -65q96 0 160 66.5t64 161.5z" />
    <glyph glyph-name="cent" unicode="&#xb0;" horiz-adv-x="1118" 
d="M557 2q-215 25 -329 169t-114 386q0 238 118 386t325 172v360h114v-359q87 -3 167.5 -26.5t136.5 -52.5v-200h-10q-62 51 -132 89t-162 51v-836q49 5 98.5 23t83.5 38q36 21 64 41.5t48 37.5h10v-198q-65 -30 -135.5 -53.5t-168.5 -28.5v-362h-114v363zM557 146v825
q-116 -21 -183 -125.5t-67 -288.5q0 -188 68.5 -289.5t181.5 -121.5z" />
    <glyph glyph-name="sterling" unicode="&#xb1;" horiz-adv-x="1118" 
d="M1031 0h-942v207q111 33 156.5 128t45.5 278h-161v138h161v320q0 201 116 324t301 123q97 0 166 -15.5t127 -32.5v-206h-10q-58 41 -129 64t-135 23q-123 0 -183.5 -77t-60.5 -222v-301h364v-138h-364v-61q0 -117 -58.5 -212.5t-163.5 -157.5v-11h770v-171z" />
    <glyph glyph-name="section" unicode="&#xb4;" horiz-adv-x="1118" 
d="M759 401q24 35 37.5 67.5t13.5 86.5q0 49 -14.5 85t-39.5 59q-24 23 -56 38.5t-74 28.5l-77 22.5t-99 30.5q-20 -12 -41.5 -30t-47.5 -51q-20 -26 -36.5 -70t-16.5 -89q0 -81 38 -129t146 -81l77.5 -23.5l97.5 -30.5q19 12 44 33t48 53zM182 -133q26 -13 64.5 -29
t74.5 -28q47 -15 87 -22.5t101 -7.5q114 0 190.5 46.5t76.5 137.5q0 54 -18.5 87.5t-59.5 59.5q-42 25 -103.5 42.5l-134.5 38.5q-88 25 -146.5 51t-105.5 69q-45 41 -67 95t-22 126q0 94 49 178.5t150 146.5v7q-91 50 -130.5 121t-39.5 161q0 168 128 270t352 102
q85 0 157 -13t161 -44v-194h-10q-90 45 -167.5 66t-161.5 21q-112 0 -189.5 -45.5t-77.5 -133.5q0 -57 20.5 -93t59.5 -59q39 -24 99.5 -43t137.5 -39q184 -50 262.5 -128.5t78.5 -212.5q0 -108 -54.5 -189t-144.5 -135v-7q87 -46 128.5 -116t41.5 -164q0 -74 -31.5 -145
t-89.5 -119q-62 -53 -148.5 -82t-209.5 -29q-79 0 -157 14t-161 44v194h10z" />
    <glyph glyph-name="bullet" unicode="&#xb5;" horiz-adv-x="931" 
d="M817 662q0 -145 -103.5 -248t-248.5 -103t-248 103t-103 248t103 248t248 103t248.5 -103t103.5 -248z" />
    <glyph glyph-name="paragraph" unicode="&#xb6;" horiz-adv-x="1118" 
d="M982 -363h-140v1722h-187v-1722h-140v956q-206 5 -332 129t-126 328q0 207 130 323t373 116h422v-1852z" />
    <glyph glyph-name="germandbls" unicode="&#xb7;" horiz-adv-x="1123" 
d="M1068 481q0 -218 -135 -361.5t-351 -143.5q-25 0 -62.5 3t-59.5 7v166h10q28 -8 59 -12.5t61 -4.5q77 0 131.5 27.5t87.5 74.5q35 51 49.5 111t14.5 141q0 169 -103 248.5t-304 79.5v157q152 0 233.5 57.5t81.5 190.5q0 33 -10 68.5t-34 63.5q-24 29 -62 46.5t-97 17.5
q-53 0 -96 -14.5t-81 -54.5q-36 -37 -56.5 -103t-20.5 -160v-1086h-188v1080q0 130 34 218t95 150q60 60 142.5 89t174.5 29q168 0 279.5 -85t111.5 -240q0 -112 -71 -201t-184 -121v-9q164 -37 257 -147t93 -282z" />
    <glyph glyph-name="registered" unicode="&#xb8;" horiz-adv-x="1902" 
d="M1816 655q0 -358 -253.5 -611.5t-611.5 -253.5t-611.5 253.5t-253.5 611.5t253.5 611t611.5 253t611.5 -253t253.5 -611zM1701 655q0 313 -219.5 533.5t-529.5 220.5t-529.5 -220.5t-219.5 -533.5t219.5 -534t529.5 -221t529.5 221t219.5 534zM1448 215h-227l-283 355
h-123v-355h-165v915h279q94 0 148.5 -7t110.5 -39q60 -34 87 -82t27 -123q0 -100 -55.5 -164t-144.5 -100zM1120 868q0 37 -12 64t-42 46q-25 16 -56 21.5t-80 5.5h-115v-309h98q48 0 90 9.5t68 32.5t37.5 53t11.5 77z" />
    <glyph glyph-name="copyright" unicode="&#xba;" horiz-adv-x="1902" 
d="M1816 655q0 -358 -253.5 -611.5t-611.5 -253.5t-611.5 253.5t-253.5 611.5t253.5 611t611.5 253t611.5 -253t253.5 -611zM1701 655q0 313 -219.5 533.5t-529.5 220.5t-529.5 -220.5t-219.5 -533.5t219.5 -534t529.5 -221t529.5 221t219.5 534zM1274 255
q-67 -30 -134 -52.5t-158 -22.5q-209 0 -330 123.5t-121 356.5q0 230 125 356.5t326 126.5q83 0 159 -22t133 -51v-181h-16q-43 38 -119 72.5t-153 34.5q-123 0 -196.5 -82t-73.5 -254q0 -162 70 -247.5t200 -85.5q84 0 159 36.5t113 70.5h16v-179z" />
    <glyph glyph-name="trademark" unicode="&#xbb;" horiz-adv-x="1794" 
d="M1634 785h-124v616h-20l-204 -453h-85l-206 460h-25v-623h-123v704h238l161 -382l161 382h227v-704zM692 1372h-229v-587h-127v587h-229v117h585v-117z" />
    <glyph glyph-name="acute" unicode="&#xbf;" horiz-adv-x="1118" 
d="M871 1676l-273 -374h-149l179 374h243z" />
    <glyph glyph-name="dieresis" unicode="&#xc0;" horiz-adv-x="1118" 
d="M867 1304h-201v195h201v-195zM454 1304h-201v195h201v-195z" />
    <glyph glyph-name="notequal" unicode="&#xc1;" horiz-adv-x="1490" 
d="M1298 362h-568l-105 -335h-153l105 335h-385v156h434l84 268h-518v156h566l105 335h153l-105 -335h387v-156h-436l-83 -268h519v-156z" />
    <glyph glyph-name="AE" unicode="&#xc2;" horiz-adv-x="1870" 
d="M1802 0h-912v557h-505l-217 -557h-207l603 1489h1238v-176h-716v-408h666v-176h-666v-553h716v-176zM890 723v601h-194l-245 -601h439z" />
    <glyph glyph-name="Oslash" unicode="&#xc3;" horiz-adv-x="1449" 
d="M1383 744q0 -368 -180 -571.5t-479 -203.5q-110 0 -204.5 29t-171.5 82l-132 -196h-148l189 278q-90 99 -140.5 245t-50.5 337q0 368 180.5 572t477.5 204q114 0 203.5 -27.5t169.5 -82.5l115 171h148l-171 -251q91 -100 142.5 -243.5t51.5 -342.5zM995 1260
q-52 44 -120 66.5t-150 22.5q-208 0 -331.5 -154t-123.5 -451q0 -135 26 -239.5t73 -180.5zM1179 744q0 138 -27.5 246t-73.5 179l-628 -937q57 -46 120.5 -69t154.5 -23q206 0 330 155.5t124 448.5z" />
    <glyph glyph-name="infinity" unicode="&#xc4;" horiz-adv-x="1862" 
d="M1752 663q0 -229 -113.5 -367.5t-316.5 -138.5q-127 0 -234 80.5t-168 218.5q-77 -153 -176.5 -226t-236.5 -73q-182 0 -289.5 137t-107.5 348q0 236 117.5 371t312.5 135q127 0 234 -80.5t168 -218.5q75 150 177 224.5t236 74.5q182 0 289.5 -137t107.5 -348zM873 729
q-60 117 -144.5 175.5t-174.5 58.5q-131 0 -202.5 -82t-71.5 -239q0 -142 62.5 -220.5t167.5 -78.5q85 0 143 37.5t124 153.5q25 44 49.5 92t46.5 103zM1582 663q0 144 -63 221.5t-167 77.5q-88 0 -145 -39t-123 -152q-33 -55 -52.5 -97.5l-42.5 -97.5q58 -116 143.5 -175
t175.5 -59q131 0 202.5 81.5t71.5 239.5z" />
    <glyph glyph-name="plusminus" unicode="&#xc5;" horiz-adv-x="1490" 
d="M1328 159h-1166v158h500v422h-500v158h500v505h166v-505h500v-158h-500v-422h500v-158z" />
    <glyph glyph-name="lessequal" unicode="&#xc6;" horiz-adv-x="1490" 
d="M1275 305l-1074 483v120l1074 483v-181l-812 -362l812 -362v-181zM1275 0h-1074v160h1074v-160z" />
    <glyph glyph-name="greaterequal" unicode="&#xc7;" horiz-adv-x="1490" 
d="M1289 788l-1074 -483v181l812 362l-812 362v181l1074 -483v-120zM1289 0h-1074v160h1074v-160z" />
    <glyph glyph-name="yen" unicode="&#xc8;" horiz-adv-x="1118" 
d="M1059 1489l-408 -811v-100h342v-138h-340v-440h-188v440h-340v138h342v79l-411 832h210l294 -639l298 639h201z" />
    <glyph glyph-name="mu1" unicode="&#xc9;" horiz-adv-x="1163" 
d="M1027 0h-172v116h-6q-60 -63 -120.5 -98t-150.5 -35q-92 0 -145 35t-109 97v-527h-188v1529h188v-842q42 -50 105 -80.5t149 -30.5q90 0 151.5 29t109.5 82v842h188v-1117z" />
    <glyph glyph-name="partialdiff" unicode="&#xca;" horiz-adv-x="1118" 
d="M1033 837q0 -68 -7.5 -153.5t-25.5 -170.5t-48 -170t-74 -153q-82 -123 -178.5 -172t-205.5 -49q-190 0 -308.5 123.5t-118.5 331.5q0 228 130.5 372.5t326.5 144.5q87 0 163 -26t151 -91q2 26 2.5 53t0.5 58q0 216 -75 317.5t-221 101.5q-79 0 -165 -31t-162 -87h-13
v194q79 44 179.5 66.5t187.5 22.5q140 0 236.5 -56t155.5 -177q41 -86 55 -191t14 -258zM832 678q-56 46 -129 73.5t-143 27.5q-134 0 -213.5 -89t-79.5 -263q0 -146 63.5 -222t169.5 -76q143 0 230 143t102 406z" />
    <glyph glyph-name="summation" unicode="&#xcb;" horiz-adv-x="1303" 
d="M1228 -189h-1102v191l626 668l-616 631v188h1053v-176h-807l601 -598v-72l-628 -656h873v-176z" />
    <glyph glyph-name="product" unicode="&#xcc;" horiz-adv-x="1393" 
d="M1237 1489v-1678h-198v1502h-685v-1502h-198v1678h1081z" />
    <glyph glyph-name="pi1" unicode="&#xcd;" horiz-adv-x="1154" 
d="M1018 0h-188v955h-506v-955h-188v1117h882v-1117z" />
    <glyph glyph-name="integral" unicode="&#xce;" horiz-adv-x="1118" 
d="M1048 1369h-10q-29 10 -80.5 18.5t-80.5 8.5q-127 0 -175.5 -59.5t-48.5 -211.5v-1123q0 -210 -105.5 -317.5t-283.5 -107.5q-48 0 -94 4.5t-96 14.5v178h10q38 -11 82 -19t75 -8q127 0 175.5 59.5t48.5 211.5v1123q0 210 105 317.5t284 107.5q58 0 105 -5.5t89 -13.5
v-178z" />
    <glyph glyph-name="ordfeminine" unicode="&#xcf;" horiz-adv-x="1010" 
d="M874 566h-166v91l-51 -38.5t-63 -37.5q-41 -19 -80.5 -29.5t-109.5 -10.5q-124 0 -207 83.5t-83 214.5q0 104 43 169.5t123 103.5q75 36 189 51t239 21v19q0 52 -16.5 84t-48.5 50q-29 17 -72 22.5t-89 5.5q-78 0 -158.5 -23.5t-119.5 -37.5h-15v170q44 13 131.5 29
t162.5 16q192 0 291.5 -76.5t99.5 -248.5v-628zM708 802v243q-65 -4 -151 -12t-137 -23q-60 -17 -97 -55.5t-37 -105.5q0 -75 44 -114t131 -39q76 0 136.5 33t110.5 73z" />
    <glyph glyph-name="ordmasculine" unicode="&#xd1;" horiz-adv-x="1010" 
d="M926 1030q0 -234 -117 -362t-303 -128q-193 0 -307 131.5t-114 358.5q0 233 117 361.5t304 128.5t303.5 -127t116.5 -363zM746 1030q0 173 -64.5 256.5t-175.5 83.5t-176 -82.5t-65 -257.5q0 -169 64 -254.5t177 -85.5q111 0 175.5 85.5t64.5 254.5z" />
    <glyph glyph-name="Ohm" unicode="&#xd2;" horiz-adv-x="1438" 
d="M1403 0h-559v387q61 38 120.5 83.5t99.5 101.5q45 62 68.5 133t23.5 188q0 95 -26.5 179t-80.5 145q-53 61 -136 96.5t-190 35.5q-109 0 -191 -35t-140 -98q-53 -58 -81.5 -144.5t-28.5 -178.5q0 -109 26.5 -187.5t70.5 -134.5q45 -57 104 -101.5t119 -82.5v-387h-559
v174h393v124q-73 42 -138 101.5t-115 134.5q-50 76 -78.5 166.5t-28.5 192.5q0 139 43.5 250t128.5 198q81 83 204 131t271 48t268 -46.5t203 -131.5q82 -84 125 -198.5t43 -250.5q0 -103 -27.5 -193.5t-74.5 -164.5t-111 -134t-139 -103v-124h393v-174z" />
    <glyph glyph-name="ae" unicode="&#xd3;" horiz-adv-x="1802" 
d="M817 298q-19 54 -29 119.5t-10 140.5q-95 -3 -189.5 -8.5t-169.5 -26.5q-74 -20 -121 -66t-47 -127q0 -95 56 -141.5t167 -46.5q91 0 184 44t159 112zM1340 138q65 0 125.5 14.5t106.5 35.5q51 23 86 44.5t58 40.5h11v-205l-82.5 -32.5t-88.5 -30.5q-55 -15 -99.5 -23
t-114.5 -8q-161 0 -276 52t-189 155l-64.5 -59.5t-91.5 -68.5q-65 -38 -134.5 -60t-179.5 -22q-146 0 -247.5 97t-101.5 249q0 129 53 204t150 117q92 39 231.5 52t293.5 16v58q0 65 -21.5 108t-60.5 67q-36 22 -87.5 31.5t-116.5 9.5q-81 0 -176.5 -26.5t-152.5 -51.5h-15
v191q49 14 151.5 33.5t193.5 19.5q160 0 260 -48t153 -136q66 81 165 133.5t217 52.5q224 0 338.5 -134.5t114.5 -372.5v-82h-788q0 -114 30 -195.5t83 -132.5q53 -50 120 -71.5t146 -21.5zM1567 703q-5 59 -20.5 112.5t-47.5 92.5q-31 38 -85 61.5t-127 23.5
q-78 0 -129.5 -21.5t-94.5 -62.5q-40 -38 -64.5 -92.5t-34.5 -113.5h603z" />
    <glyph glyph-name="oslash" unicode="&#xd4;" horiz-adv-x="1112" 
d="M1055 558q0 -282 -136 -435t-362 -153q-79 0 -145 20.5t-124 56.5l-123 -194h-124l168 261q-72 76 -112 187t-40 257q0 280 137.5 434.5t362.5 154.5q75 0 142 -20t124 -57l108 170h125l-152 -236q71 -77 111 -186t40 -260zM735 932q-34 26 -78 40t-100 14
q-147 0 -228 -107.5t-81 -320.5q0 -97 14.5 -169.5t43.5 -126.5zM864 558q0 99 -14.5 173t-42.5 125l-429 -669q38 -29 79.5 -42.5t99.5 -13.5q145 0 226 106.5t81 320.5z" />
    <glyph glyph-name="questiondown" unicode="&#xd5;" horiz-adv-x="970" 
d="M632 1278h-204v211h204v-211zM861 40q-79 -30 -167 -50t-195 -20q-205 0 -323 104.5t-118 275.5q0 94 30 168t89 141q53 59 122.5 106.5l144.5 95.5v228h179v-305l-131.5 -81t-115.5 -89q-51 -48 -82.5 -109t-31.5 -140q0 -113 71 -168.5t185 -55.5q99 0 191 34.5
t141 68.5h11v-204z" />
    <glyph glyph-name="exclamdown" unicode="&#xd6;" horiz-adv-x="680" 
d="M442 1278h-204v211h204v-211zM452 0h-224l28 1079h166z" />
    <glyph glyph-name="logicalnot" unicode="&#xd8;" horiz-adv-x="1490" 
d="M1323 57h-171v545h-995v160h1166v-705z" />
    <glyph glyph-name="radical" unicode="&#xd9;" horiz-adv-x="1490" 
d="M1554 1789l-790 -1940h-104l-342 993h-237v139h393l265 -797l653 1605h162z" />
    <glyph glyph-name="florin" unicode="&#xda;" horiz-adv-x="1118" 
d="M1087 1320h-10q-27 10 -78.5 23.5t-89.5 13.5q-112 0 -162 -60.5t-72 -213.5l-29 -199h292v-138h-310l-70 -511q-32 -231 -137 -334t-286 -103q-39 0 -86.5 4.5t-97.5 13.5v181h10q28 -10 77.5 -23.5t90.5 -13.5q112 0 163 61t71 213l72 512h-178v138h196l27 198
q17 123 54 206.5t92 136.5q52 49 125.5 71.5t151.5 22.5q50 0 91 -4.5t93 -13.5v-181z" />
    <glyph glyph-name="approxequal" unicode="&#xdb;" horiz-adv-x="1490" 
d="M1298 1104q-19 -195 -100.5 -293.5t-235.5 -98.5q-69 0 -136.5 37t-120.5 83q-28 24 -90.5 65t-105.5 41q-72 0 -105 -47t-59 -172h-155q21 181 104 279t233 98q66 0 134.5 -36.5t122.5 -82.5q36 -30 94.5 -68.5t101.5 -38.5q69 0 106 53.5t55 180.5h157zM1299 588
q-23 -185 -102.5 -282t-235.5 -97q-66 0 -134.5 37t-122.5 83q-37 31 -95 68.5t-101 37.5q-72 0 -107.5 -55.5t-53.5 -177.5h-157q17 192 102 291.5t234 99.5q71 0 138.5 -37.5t118.5 -81.5q31 -26 90 -66.5t106 -40.5q70 0 104 50t59 171h157z" />
    <glyph glyph-name="Delta" unicode="&#xdc;" horiz-adv-x="1268" 
d="M1278 0h-1288l522 1489h244zM1010 172l-381 1120l-380 -1120h761z" />
    <glyph glyph-name="guillemotleft" unicode="&#xdf;" horiz-adv-x="1174" 
d="M1043 191l-488 419v85l488 418v-188l-317 -273l317 -273v-188zM613 162l-510 446v89l510 445v-196l-331 -294l331 -294v-196z" />
    <glyph glyph-name="guillemotright" unicode="&#xe0;" horiz-adv-x="1174" 
d="M1071 608l-510 -446v196l331 294l-331 294v196l510 -445v-89zM619 610l-488 -419v188l317 273l-317 273v188l488 -418v-85z" />
    <glyph glyph-name="ellipsis" unicode="&#xe1;" horiz-adv-x="1674" 
d="M1497 0h-204v223h204v-223zM939 0h-204v223h204v-223zM381 0h-204v223h204v-223z" />
    <glyph glyph-name="Agrave" unicode="&#xe2;" horiz-adv-x="1228" 
d="M-10 0l502 1489h244l502 -1489h-209l-135 416h-569l-135 -416h-200zM839 585l-230 702l-229 -702h459zM769 1675h-149l-273 374h243z" />
    <glyph glyph-name="Atilde" unicode="&#xe3;" horiz-adv-x="1228" 
d="M-10 0l502 1489h244l502 -1489h-209l-135 416h-569l-135 -416h-200zM839 585l-230 702l-229 -702h459zM1010 1965q-10 -156 -74.5 -234t-171.5 -78q-52 0 -96 19t-86 59q-44 41 -76 62.5t-63 21.5q-49 0 -68.5 -45t-23.5 -121h-140q7 154 76 232.5t169 78.5
q51 0 94 -19.5t86 -57.5q43 -39 77.5 -59.5t63.5 -20.5q47 0 68.5 45t24.5 117h140z" />
    <glyph glyph-name="Otilde" unicode="&#xe4;" horiz-adv-x="1449" 
d="M1204 1318q85 -98 132 -243t47 -331q0 -181 -46 -327t-133 -245q-91 -104 -212.5 -153.5t-267.5 -49.5q-151 0 -272 51t-208 152q-86 99 -132 244t-46 328q0 188 46.5 330t132.5 244q86 99 207.5 150.5t271.5 51.5q152 0 274 -53t206 -149zM1177 744q0 148 -32 262
t-90 189q-59 77 -142.5 115.5t-187.5 38.5q-108 0 -188.5 -37.5t-142.5 -116.5q-59 -76 -90.5 -191t-31.5 -260q0 -293 123 -448.5t330 -155.5t329.5 155.5t122.5 448.5zM1110 1985q-10 -156 -74.5 -234t-171.5 -78q-52 0 -96 19t-86 59q-44 41 -76 62.5t-63 21.5
q-49 0 -68.5 -45t-23.5 -121h-140q7 154 76 232.5t169 78.5q51 0 94 -19.5t86 -57.5q43 -39 77.5 -59.5t63.5 -20.5q47 0 68.5 45t24.5 117h140z" />
    <glyph glyph-name="OE" unicode="&#xe5;" horiz-adv-x="2000" 
d="M1932 0h-1031q-184 0 -308 26t-225 92q-144 95 -223 253.5t-79 374.5q0 209 84.5 370.5t220.5 252.5q89 60 209.5 90t318.5 30h1033v-176h-723v-408h673v-176h-673v-553h723v-176zM1012 171v1147h-119q-148 0 -241.5 -22.5t-172.5 -75.5q-103 -68 -155 -188t-52 -289
q0 -172 57 -293.5t169 -189.5q83 -50 173.5 -69.5t219.5 -19.5h121z" />
    <glyph glyph-name="oe" unicode="&#xe6;" horiz-adv-x="1861" 
d="M1625 683q-4 157 -71 233.5t-202 76.5q-128 0 -214.5 -82t-98.5 -228h586zM856 558q0 217 -78.5 322.5t-223.5 105.5q-148 0 -225.5 -110.5t-77.5 -317.5q0 -210 78.5 -318.5t224.5 -108.5q144 0 223 107.5t79 319.5zM1403 138q62 0 121.5 14t107.5 36q51 23 86 44.5
t58 40.5h11v-205l-82 -32.5t-88 -30.5q-55 -15 -99.5 -23t-112.5 -8q-147 0 -264.5 52.5t-188.5 152.5q-67 -103 -164.5 -156.5t-233.5 -53.5q-231 0 -364 158t-133 431q0 278 135 434t362 156q131 0 234.5 -55t167.5 -156q67 101 172.5 156t234.5 55q215 0 330 -133
t115 -374v-102h-769q0 -193 97 -297t267 -104z" />
    <glyph glyph-name="endash" unicode="&#xe7;" horiz-adv-x="1118" 
d="M1122 572h-1126v160h1126v-160z" />
    <glyph glyph-name="emdash" unicode="&#xe8;" horiz-adv-x="1862" 
d="M1866 572h-1870v160h1870v-160z" />
    <glyph glyph-name="quotedblleft" unicode="&#xe9;" horiz-adv-x="822" 
d="M725 997h-134l-261 559h238zM331 997h-134l-261 559h238z" />
    <glyph glyph-name="quotedblright" unicode="&#xea;" horiz-adv-x="822" 
d="M896 1556l-261 -559h-134l157 559h238zM502 1556l-261 -559h-134l157 559h238z" />
    <glyph glyph-name="quoteleft" unicode="&#xeb;" horiz-adv-x="432" 
d="M335 997h-138l-261 559h242z" />
    <glyph glyph-name="quoteright" unicode="&#xec;" horiz-adv-x="432" 
d="M496 1556l-261 -559h-138l157 559h242z" />
    <glyph glyph-name="divide" unicode="&#xed;" horiz-adv-x="1490" 
d="M864 1012h-238v275h238v-275zM1333 572h-1176v160h1176v-160zM864 17h-238v275h238v-275z" />
    <glyph glyph-name="lozenge" unicode="&#xee;" horiz-adv-x="1490" 
d="M1371 654l-626 -710l-626 710l626 710zM1153 654l-408 476l-408 -476l408 -474z" />
    <glyph glyph-name="ydieresis" unicode="&#xef;" horiz-adv-x="1020" 
d="M1014 1117l-601 -1529h-201l200 466l-406 1063h203l305 -827l304 827h196zM832 1304h-201v195h201v-195zM419 1304h-201v195h201v-195z" />
    <glyph glyph-name="Ydieresis" unicode="&#xf1;" horiz-adv-x="1180" 
d="M1193 1489l-503 -830v-659h-198v638l-503 851h220l384 -657l390 657h210zM900 1677h-201v195h201v-195zM487 1677h-201v195h201v-195z" />
    <glyph glyph-name="fraction" unicode="&#xf2;" horiz-adv-x="886" 
d="M916 1489l-780 -1489h-165l780 1489h165z" />
    <glyph glyph-name="Euro" unicode="&#xf3;" horiz-adv-x="1118" 
d="M945 662l-27 -138h-620q44 -170 146 -268q116 -112 290 -112q187 0 324 92h14v-193q-170 -70 -339 -70q-274 0 -444 158q-154 143 -203 393h-114l28 138h69q-3 40 -3 81q0 29 1 57h-95l28 138h83q46 262 207 414q174 164 446 164q178 0 336 -71v-195h-16q-141 97 -322 97
q-184 0 -302 -123q-101 -106 -140 -286h709l-27 -138h-700q-2 -28 -2 -57q0 -41 3 -81h670z" />
    <glyph glyph-name="guilsinglleft" unicode="&#xf4;" horiz-adv-x="784" 
d="M633 172l-510 436v89l510 435v-199l-331 -281l331 -281v-199z" />
    <glyph glyph-name="guilsinglright" unicode="&#xf5;" horiz-adv-x="784" 
d="M661 608l-510 -436v199l331 281l-331 281v199l510 -435v-89z" />
    <glyph glyph-name="fi" unicode="&#xf6;" horiz-adv-x="1092" 
d="M954 0h-188v964h-422v-964h-188v961h-127v156h127v57q0 182 97 287t250 105q52 0 94.5 -5.5t70.5 -9.5v-172h-10q-16 6 -53 14.5t-79 8.5q-105 0 -146.5 -54.5t-41.5 -172.5v-58h616v-1117zM954 1304h-202v195h202v-195z" />
    <glyph glyph-name="fl" unicode="&#xf7;" horiz-adv-x="1086" 
d="M948 0h-188v1404q-27 3 -66.5 5t-63.5 2q-162 0 -227 -53.5t-65 -193.5v-47h243v-156h-237v-961h-188v961h-127v156h127v49q0 103 32 177t90 125q55 48 142.5 73t187.5 25q60 0 131 -7l111 -11l98 8v-1556z" />
    <glyph glyph-name="daggerdbl" unicode="&#xf8;" horiz-adv-x="1118" 
d="M983 507l-363 5l5 -388h-132l5 388l-363 -5v129l363 -5v418l-363 -5v129l363 -5l-5 388h132l-5 -388l363 5v-129l-363 5v-418l363 5v-129z" />
    <glyph glyph-name="glyph194" unicode="&#xf9;" horiz-adv-x="620" 
d="M429 516h-239v273h239v-273z" />
    <glyph glyph-name="quotesinglbase" unicode="&#xfa;" horiz-adv-x="432" 
d="M386 283l-261 -559h-138l157 559h242z" />
    <glyph glyph-name="quotedblbase" unicode="&#xfb;" horiz-adv-x="814" 
d="M781 283l-261 -559h-134l157 559h238zM387 283l-261 -559h-134l157 559h238z" />
    <glyph glyph-name="perthousand" unicode="&#xfc;" horiz-adv-x="2848" 
d="M807 1076q0 -225 -90.5 -333.5t-261.5 -108.5q-174 0 -263.5 110t-89.5 331q0 224 91 333t262 109q174 0 263 -110t89 -331zM1473 1489l-780 -1489h-165l780 1489h165zM1897 413q0 -225 -90.5 -333.5t-261.5 -108.5q-174 0 -263.5 110t-89.5 331q0 224 91 333t262 109
q174 0 263 -110t89 -331zM629 1076q0 152 -35.5 230t-138.5 78t-139 -79t-36 -230q0 -150 34 -229t141 -79q103 0 138.5 79t35.5 230zM1719 413q0 152 -35.5 230t-138.5 78t-139 -79t-36 -230q0 -150 34 -229t141 -79q103 0 138.5 79t35.5 230zM2741 413
q0 -225 -90.5 -333.5t-261.5 -108.5q-174 0 -263.5 110t-89.5 331q0 224 91 333t262 109q174 0 263 -110t89 -331zM2563 413q0 152 -35.5 230t-138.5 78t-139 -79t-36 -230q0 -150 34 -229t141 -79q103 0 138.5 79t35.5 230z" />
    <glyph glyph-name="Acircumflex" unicode="&#xff;" horiz-adv-x="1228" 
d="M-10 0l502 1489h244l502 -1489h-209l-135 416h-569l-135 -416h-200zM839 585l-230 702l-229 -702h459zM940 1650h-159l-185 256l-184 -256h-155l228 379h227z" />
    <glyph glyph-name="Ecircumflex" unicode="&#x2260;" horiz-adv-x="1149" 
d="M151 0v1489h931v-176h-733v-408h683v-176h-683v-553h733v-176h-931zM961 1670h-159l-185 256l-184 -256h-155l228 379h227z" />
    <glyph glyph-name="Aacute" unicode="&#x20a0;" horiz-adv-x="1228" 
d="M-10 0l502 1489h244l502 -1489h-209l-135 416h-569l-135 -416h-200zM839 585l-230 702l-229 -702h459zM865 2049l-273 -374h-149l179 374h243z" />
    <glyph glyph-name="Edieresis" unicode="&#x160;" horiz-adv-x="1149" 
d="M151 0v1489h931v-176h-733v-408h683v-176h-683v-553h733v-176h-931zM966 1677h-201v195h201v-195zM553 1677h-201v195h201v-195z" />
    <glyph glyph-name="Egrave" unicode="&#x161;" horiz-adv-x="1149" 
d="M151 0v1489h931v-176h-733v-408h683v-176h-683v-553h733v-176h-931zM754 1675h-149l-273 374h243z" />
    <glyph glyph-name="Iacute" unicode="&#xa6;" horiz-adv-x="764" 
d="M671 0h-578v152h190v1185h-190v152h578v-152h-190v-1185h190v-152zM660 2049l-273 -374h-149l179 374h243z" />
    <glyph glyph-name="Icircumflex" unicode="&#xb2;" horiz-adv-x="764" 
d="M671 0h-578v152h190v1185h-190v152h578v-152h-190v-1185h190v-152zM728 1670h-159l-185 256l-184 -256h-155l228 379h227z" />
    <glyph glyph-name="Idieresis" unicode="&#xb3;" horiz-adv-x="764" 
d="M671 0h-578v152h190v1185h-190v152h578v-152h-190v-1185h190v-152zM693 1677h-201v195h201v-195zM280 1677h-201v195h201v-195z" />
    <glyph glyph-name="Igrave" unicode="&#xb9;" horiz-adv-x="764" 
d="M671 0h-578v152h190v1185h-190v152h578v-152h-190v-1185h190v-152zM532 1675h-149l-273 374h243z" />
    <glyph glyph-name="Oacute" unicode="&#xbc;" horiz-adv-x="1449" 
d="M1204 1318q85 -98 132 -243t47 -331q0 -181 -46 -327t-133 -245q-91 -104 -212.5 -153.5t-267.5 -49.5q-151 0 -272 51t-208 152q-86 99 -132 244t-46 328q0 188 46.5 330t132.5 244q86 99 207.5 150.5t271.5 51.5q152 0 274 -53t206 -149zM1177 744q0 148 -32 262
t-90 189q-59 77 -142.5 115.5t-187.5 38.5q-108 0 -188.5 -37.5t-142.5 -116.5q-59 -76 -90.5 -191t-31.5 -260q0 -293 123 -448.5t330 -155.5t329.5 155.5t122.5 448.5zM1002 2049l-273 -374h-149l179 374h243z" />
    <glyph glyph-name="Ocircumflex" unicode="&#xbd;" horiz-adv-x="1449" 
d="M1204 1318q85 -98 132 -243t47 -331q0 -181 -46 -327t-133 -245q-91 -104 -212.5 -153.5t-267.5 -49.5q-151 0 -272 51t-208 152q-86 99 -132 244t-46 328q0 188 46.5 330t132.5 244q86 99 207.5 150.5t271.5 51.5q152 0 274 -53t206 -149zM1177 744q0 148 -32 262
t-90 189q-59 77 -142.5 115.5t-187.5 38.5q-108 0 -188.5 -37.5t-142.5 -116.5q-59 -76 -90.5 -191t-31.5 -260q0 -293 123 -448.5t330 -155.5t329.5 155.5t122.5 448.5zM1055 1670h-159l-185 256l-184 -256h-155l228 379h227z" />
    <glyph glyph-name="Ograve" unicode="&#xbe;" horiz-adv-x="1449" 
d="M1204 1318q85 -98 132 -243t47 -331q0 -181 -46 -327t-133 -245q-91 -104 -212.5 -153.5t-267.5 -49.5q-151 0 -272 51t-208 152q-86 99 -132 244t-46 328q0 188 46.5 330t132.5 244q86 99 207.5 150.5t271.5 51.5q152 0 274 -53t206 -149zM1177 744q0 148 -32 262
t-90 189q-59 77 -142.5 115.5t-187.5 38.5q-108 0 -188.5 -37.5t-142.5 -116.5q-59 -76 -90.5 -191t-31.5 -260q0 -293 123 -448.5t330 -155.5t329.5 155.5t122.5 448.5zM851 1675h-149l-273 374h243z" />
    <glyph glyph-name="Uacute" unicode="&#xd0;" horiz-adv-x="1343" 
d="M671 -31q-131 0 -229 34.5t-167 102.5q-78 78 -110 186.5t-32 267.5v929h198v-929q0 -103 13 -173.5t51 -126.5q40 -60 108.5 -91t167.5 -31q93 0 165 31t112 91q37 57 50.5 126t13.5 169v934h198v-929q0 -155 -31.5 -266t-110.5 -188q-71 -69 -165.5 -103t-231.5 -34z
M995 2049l-273 -374h-149l179 374h243z" />
    <glyph glyph-name="Ucircumflex" unicode="&#xd7;" horiz-adv-x="1343" 
d="M671 -31q-131 0 -229 34.5t-167 102.5q-78 78 -110 186.5t-32 267.5v929h198v-929q0 -103 13 -173.5t51 -126.5q40 -60 108.5 -91t167.5 -31q93 0 165 31t112 91q37 57 50.5 126t13.5 169v934h198v-929q0 -155 -31.5 -266t-110.5 -188q-71 -69 -165.5 -103t-231.5 -34z
M1006 1670h-159l-185 256l-184 -256h-155l228 379h227z" />
    <glyph glyph-name="Ugrave" unicode="&#xdd;" horiz-adv-x="1343" 
d="M671 -31q-131 0 -229 34.5t-167 102.5q-78 78 -110 186.5t-32 267.5v929h198v-929q0 -103 13 -173.5t51 -126.5q40 -60 108.5 -91t167.5 -31q93 0 165 31t112 91q37 57 50.5 126t13.5 169v934h198v-929q0 -155 -31.5 -266t-110.5 -188q-71 -69 -165.5 -103t-231.5 -34z
M854 1675h-149l-273 374h243z" />
    <glyph glyph-name="dotlessi" unicode="&#xde;" horiz-adv-x="468" 
d="M328 0h-188v1117h188v-1117z" />
    <glyph glyph-name="circumflex" unicode="&#xf0;" horiz-adv-x="1118" 
d="M901 1297h-159l-185 256l-184 -256h-155l228 379h227z" />
    <glyph glyph-name="tilde" unicode="&#xfd;" horiz-adv-x="1118" 
d="M960 1632q-10 -156 -74.5 -234t-171.5 -78q-52 0 -96 19t-86 59q-44 41 -76 62.5t-63 21.5q-49 0 -68.5 -45t-23.5 -121h-140q7 154 76 232.5t169 78.5q51 0 94 -19.5t86 -57.5q43 -39 77.5 -59.5t63.5 -20.5q47 0 68.5 45t24.5 117h140z" />
    <glyph glyph-name="glyph216" unicode="&#xfe;" horiz-adv-x="1118" 
d="M936 1335h-754v154h754v-154z" />
    <glyph glyph-name="breve" unicode="&#x25cc;" horiz-adv-x="1079" 
d="M643 43q0 20 13.5 35.5t33.5 15.5q21 0 35 -15.5t14 -35.5t-14 -33.5t-35 -13.5q-20 0 -33.5 13.5t-13.5 33.5zM645 944q0 21 14.5 36t34.5 15q21 0 35 -15t14 -36q0 -20 -14 -33.5t-35 -13.5q-20 0 -34.5 13.5t-14.5 33.5zM618 76q0 -21 -14 -34t-35 -13q-20 0 -34.5 13
t-14.5 34q0 20 14.5 34.5t34.5 14.5q21 0 35 -14.5t14 -34.5zM516 150q0 -21 -14.5 -35.5t-34.5 -14.5q-21 0 -35 14.5t-14 35.5q0 20 14 34.5t35 14.5q20 0 34.5 -14.5t14.5 -34.5zM446 258q0 -20 -14 -34.5t-35 -14.5q-20 0 -34.5 14.5t-14.5 34.5q0 21 14.5 35t34.5 14
q21 0 35 -14t14 -35zM408 375q0 -21 -14.5 -35t-35.5 -14q-20 0 -34.5 14t-14.5 35q0 20 14.5 34.5t34.5 14.5q21 0 35.5 -14.5t14.5 -34.5zM399 494q0 -21 -14 -34.5t-35 -13.5q-20 0 -34.5 13.5t-14.5 34.5q0 20 14.5 35.5t34.5 15.5q21 0 35 -15.5t14 -35.5zM408 612
q0 -20 -14.5 -34.5t-35.5 -14.5q-20 0 -34.5 14.5t-14.5 34.5q0 21 14.5 35.5t34.5 14.5q21 0 35.5 -14.5t14.5 -35.5zM449 729q0 -20 -14.5 -34.5t-35.5 -14.5q-20 0 -34.5 14.5t-14.5 34.5q0 21 14.5 35t34.5 14q21 0 35.5 -14t14.5 -35zM514 838q0 -21 -14.5 -35.5
t-34.5 -14.5q-21 0 -34 14.5t-13 35.5q0 20 13 34.5t34 14.5q20 0 34.5 -14.5t14.5 -34.5zM616 913q0 -20 -14 -33.5t-35 -13.5q-20 0 -34.5 13.5t-14.5 33.5q0 21 14.5 36.5t34.5 15.5q21 0 35 -15.5t14 -36.5zM762 76q0 20 14.5 34.5t34.5 14.5t34.5 -14.5t14.5 -34.5
q0 -21 -14.5 -34t-34.5 -13t-34.5 13t-14.5 34zM864 150q0 20 14.5 34.5t34.5 14.5q21 0 35.5 -14.5t14.5 -34.5q0 -21 -14.5 -35.5t-35.5 -14.5q-20 0 -34.5 14.5t-14.5 35.5zM934 258q0 21 14.5 35t34.5 14q21 0 35 -14t14 -35q0 -20 -14 -34.5t-35 -14.5
q-20 0 -34.5 14.5t-14.5 34.5zM973 375q0 20 14 34.5t35 14.5q20 0 34.5 -14.5t14.5 -34.5q0 -21 -14.5 -35t-34.5 -14q-21 0 -35 14t-14 35zM981 494q0 20 14.5 35.5t34.5 15.5q21 0 35 -15.5t14 -35.5q0 -21 -14 -34.5t-35 -13.5q-20 0 -34.5 13.5t-14.5 34.5zM973 612
q0 21 14 35.5t35 14.5q20 0 34.5 -14.5t14.5 -35.5q0 -20 -14.5 -34.5t-34.5 -14.5q-21 0 -35 14.5t-14 34.5zM932 729q0 21 14.5 35t34.5 14t34.5 -14t14.5 -35q0 -20 -14.5 -34.5t-34.5 -14.5t-34.5 14.5t-14.5 34.5zM866 838q0 20 13.5 33.5t33.5 13.5q21 0 36.5 -13.5
t15.5 -33.5q0 -21 -15.5 -35.5t-36.5 -14.5q-20 0 -33.5 14.5t-13.5 35.5zM766 913q0 21 13.5 36.5t33.5 15.5q21 0 35 -15.5t14 -36.5q0 -20 -14 -33.5t-35 -13.5q-20 0 -33.5 13.5t-13.5 33.5z" />
    <glyph glyph-name="dotaccent" unicode="&#x200b;" 
 />
    <glyph glyph-name="ring" unicode="&#x200c;" horiz-adv-x="63" 
d="M0 0v1610h63v-1610h-63z" />
    <glyph glyph-name="cedilla" unicode="&#x200d;" horiz-adv-x="61" 
d="M184 1499l-123 123v-1622h-61v1620l-118 -121l-41 45l151 152l-151 151l41 45l151 -153l151 153l43 -45l-153 -151l153 -152z" />
    <glyph glyph-name="hungarumlaut" unicode="&#x1780;" horiz-adv-x="1331" 
d="M1264 1352q0 -76 -113 -76q-39 0 -112.5 19.5t-110.5 19.5q-29 0 -77 -51.5t-108 -51.5q-59 0 -173.5 50.5t-157.5 50.5q-29 0 -74 -49.5t-47 -79.5q4 -4 76 -41q49 -27 49 -66q0 -24 -31 -52t-55 -28q-11 0 -11 13q0 22 -90 66t-90 63q0 6 21 59q35 92 100 158
q78 78 166 78q51 0 165 -50.5t150 -50.5q27 0 71 50.5t81 50.5q43 0 125 -21.5t125 -21.5q12 0 35.5 4t35.5 4q50 0 50 -47zM1167 0h-123v870q0 91 -243 91q-86 0 -269 -56q-204 -61 -204 -114v-791h-123v811q0 109 252 197q207 73 348 73q362 0 362 -233v-848z" />
    <glyph glyph-name="ogonek" 
d="M-184 -794h-123v510q0 22 -108 35q-82 12 -133 12q-93 0 -229 -27.5t-222 -64.5q-27 -13 -27 -15v-450h-122v498q0 79 266 141q209 47 334 47q108 0 206 -18q158 -33 158 -101v-567z" />
    <glyph glyph-name="caron" 
d="M-184 -1403h-123v479q0 21 -108 33q-82 10 -133 10q-93 0 -229 -25.5t-222 -60.5q-27 -12 -27 -14v-422h-122v467q0 76 266 133q209 45 334 45q108 0 206 -18q158 -31 158 -94v-533z" />
    <glyph glyph-name="Lslash" horiz-adv-x="1943" 
d="M1167 0h-123v870q0 91 -243 91q-86 0 -269 -56q-204 -61 -204 -114v-791h-123v811q0 109 252 197q207 73 348 73q362 0 362 -233v-848zM1798 0h-123v1255q0 43 -76 66q-53 14 -122 14q-168 0 -332 -51q-162 -35 -217 -35q-117 -16 -255 31t-224 53q-35 -10 -93.5 -74.5
t-58.5 -72.5q0 -4 14 -10l109 -29q72 -21 67 -74l-8 -20l-14 -17l-16 -8l-62 -16q0 32 -84 53l-113 20q-34 9 -34 48q0 81 96 194q98 119 192 115q101 4 252.5 -49.5t231.5 -53.5q41 0 100 21l98 33q162 53 365 53q123 0 201 -33q98 -45 106 -137v-1276z" />
    <glyph glyph-name="lslash" horiz-adv-x="1943" 
d="M1798 0h-123v1255q0 43 -76 66q-53 14 -122 14q-168 0 -332 -51q-162 -35 -217 -35q-117 -16 -255 31t-224 53q-35 -10 -93.5 -74.5t-58.5 -72.5q0 -4 14 -10l109 -29q72 -21 67 -74l-8 -20l-14 -17l-16 -8l-62 -16q0 32 -84 53l-113 20q-34 9 -34 48q0 81 96 194
q98 119 192 115q101 4 252.5 -49.5t231.5 -53.5q41 0 100 21l98 33q162 53 365 53q111 0 184 -27v359q0 34 -187.5 97.5t-187.5 96.5q0 129 76 127q0 -41 109 -86l205 -80q108 -51 108 -102v-1831zM1167 0h-123v870q0 91 -243 91q-86 0 -269 -56q-204 -61 -204 -114v-791
h-123v811q0 109 252 197q207 73 348 73q362 0 362 -233v-848z" />
    <glyph glyph-name="Scaron" unicode="&#x1781;" horiz-adv-x="1431" 
d="M1288 584q0 -17 -49 -54q-68 -237 -215 -376q-164 -154 -399 -154q-174 0 -303 100q-142 107 -142 277q0 88 172 151q117 37 350 119q125 51 248 135q166 117 166 205q0 148 -129 242q-117 82 -270 82q-158 0 -271 -58q-143 -71 -143 -215q0 -71 57 -114q52 -39 125 -39
q136 0 136 127q0 45 -23 112q6 2 45 17.5t45 15.5q53 0 53 -133q0 -115 -84 -184.5t-200 -69.5q-119 0 -198 70.5t-79 189.5q0 213 170 318q139 86 367 86q213 0 360 -113q162 -125 162 -332q0 -131 -164 -264q-121 -98 -282 -164l-269 -92q-213 -80 -213 -111
q0 -116 117 -184q98 -55 223 -55q117 0 230 76q102 67 170 176q39 61 88 215q49 26 106 26q43 0 43 -28z" />
    <glyph glyph-name="scaron" 
d="M-143 -493q0 -22 -41 -60l-47 -54q-100 -116 -219 -161q-129 -51 -309 -51q-135 0 -240 31q-151 45 -151 145q0 87 194 136q6 2 277 45q100 18 206 46q168 46 168 84q0 66 -346 66q-368 0 -368 -73q0 -18 51 -18q86 0 149.5 34t79.5 34q39 0 39 -36q0 -65 -100 -104
q-82 -33 -162 -33q-188 0 -188 103q0 206 483 206q491 0 491 -179q0 -80 -149 -143q-109 -45 -303 -83l-244 -42q-145 -29 -145 -43q0 -37 112 -58q80 -13 154 -13q168 0 287 65q55 30 153 123q70 64 123 64q45 0 45 -31z" />
    <glyph glyph-name="Zcaron" 
d="M-143 -1077q0 -23 -41 -62l-47 -57q-100 -121 -219 -168q-129 -53 -309 -53q-135 0 -240 32q-151 47 -151 150q0 92 194 143q6 2 277 47q100 19 206 47q168 48 168 88q0 70 -346 70q-368 0 -368 -76q0 -20 51 -20q86 0 149.5 36t79.5 36q39 0 39 -37q0 -68 -100 -111
q-82 -33 -162 -33q-188 0 -188 107q0 215 483 215q491 0 491 -187q0 -83 -149 -149q-109 -47 -303 -86q-123 -23 -244 -43q-145 -31 -145 -47q0 -37 112 -60q80 -12 154 -12q168 0 287 66q55 32 153 129q70 67 123 67q45 0 45 -32z" />
    <glyph glyph-name="zcaron" horiz-adv-x="1945" 
d="M1794 0h-127v1202q0 58 -108 88q-76 23 -156 23q-88 0 -154 -13l-119 -28q109 -115 109 -283q0 -131 -164 -264q-121 -98 -282 -164l-269 -92q-213 -80 -213 -111q0 -116 117 -184q98 -55 223 -55q117 0 230 76q102 67 170 176q39 61 88 215q49 26 106 26q43 0 43 -28
q0 -17 -49 -54q-68 -237 -215 -376q-164 -154 -399 -154q-174 0 -303 100q-142 107 -142 277q0 88 172 151q117 37 350 119q125 51 248 135q166 117 166 205q0 148 -129 242q-117 82 -270 82q-158 0 -271 -58q-143 -71 -143 -215q0 -71 57 -114q52 -39 125 -39
q136 0 136 127q0 45 -23 112q6 2 45 17.5t45 15.5q53 0 53 -133q0 -115 -84 -184.5t-200 -69.5q-119 0 -198 70.5t-79 189.5q0 213 170 318q139 86 367 86q157 0 280 -64q201 64 406 64q137 0 246 -45q141 -62 145 -183v-1206z" />
    <glyph glyph-name="brokenbar" horiz-adv-x="1945" 
d="M1794 0h-127v1202q0 58 -108 88q-76 23 -156 23q-88 0 -154 -13l-119 -28q109 -115 109 -283q0 -131 -164 -264q-121 -98 -282 -164l-269 -92q-213 -80 -213 -111q0 -116 117 -184q98 -55 223 -55q117 0 230 76q102 67 170 176q39 61 88 215q49 26 106 26q43 0 43 -28
q0 -17 -49 -54q-68 -237 -215 -376q-164 -154 -399 -154q-174 0 -303 100q-142 107 -142 277q0 88 172 151q117 37 350 119q125 51 248 135q166 117 166 205q0 148 -129 242q-117 82 -270 82q-158 0 -271 -58q-143 -71 -143 -215q0 -71 57 -114q52 -39 125 -39
q136 0 136 127q0 45 -23 112q6 2 45 17.5t45 15.5q53 0 53 -133q0 -115 -84 -184.5t-200 -69.5q-119 0 -198 70.5t-79 189.5q0 213 170 318q139 86 367 86q157 0 280 -64q201 64 406 64q137 0 246 -45l18 -9v439q0 34 -187.5 97.5t-187.5 96.5q0 129 76 127q0 -41 109 -86
l204 -80q113 -51 113 -102v-664v-2v-1206z" />
    <glyph glyph-name="Eth" unicode="&#x1782;" horiz-adv-x="1331" 
d="M1264 1352q0 -76 -113 -76q-45 0 -124 19.5t-99 19.5q-29 0 -76 -51.5t-109 -51.5q-57 0 -173.5 50.5t-157.5 50.5q-27 0 -74 -50.5t-47 -78.5q2 -2 76 -41q49 -27 49 -66q0 -22 -32 -51t-54 -29q-11 0 -11 13q0 22 -90 66t-90 63q0 18 21 59q35 92 100 158q78 78 166 78
q49 0 165 -50.5t150 -50.5q27 0 71 50.5t81 50.5q41 0 124 -21.5t126 -21.5q12 0 35.5 4t35.5 4q50 0 50 -47zM1167 0h-123v870q0 91 -243 91q-56 0 -142 -19q-75 -16 -184 -57q-147 -56 -147 -94v-584q161 235 331 235q101 0 101 -86q0 -59 -45 -59q-17 0 -40.5 11
t-35.5 11q-70 0 -180 -129q-90 -104 -133 -190h-121v811q0 111 252 199q209 71 348 71q362 0 362 -233v-848z" />
    <glyph glyph-name="eth" 
d="M-184 -794h-123v510q0 22 -110 35q-82 12 -131 12q-220 0 -447 -90q-31 -17 -31 -303q232 159 334 159q97 0 97 -77q0 -72 -80 -72q-29 0 -60 10q-53 -10 -149 -76q-84 -57 -135 -108h-129v498q0 79 266 141q209 47 334 47q108 0 206 -18q158 -33 158 -101v-567z" />
    <glyph glyph-name="Yacute" 
d="M-184 -1403h-123v479q0 21 -110 33q-82 10 -131 10q-220 0 -447 -84q-31 -16 -31 -284q232 149 334 149q97 0 97 -73q0 -68 -80 -68q-29 0 -60 10q-53 -10 -149 -71q-84 -54 -135 -101h-129v467q0 76 266 133q209 45 334 45q108 0 206 -18q158 -31 158 -94v-533z" />
    <glyph glyph-name="yacute" horiz-adv-x="1943" 
d="M1167 0h-123v870q0 91 -243 91q-56 0 -142 -19q-75 -16 -184 -57q-147 -56 -147 -94v-584q161 235 331 235q101 0 101 -86q0 -59 -45 -59q-17 0 -40.5 11t-35.5 11q-70 0 -180 -129q-90 -104 -133 -190h-121v811q0 111 252 199q209 71 348 71q362 0 362 -233v-848z
M1798 0h-123v1255q0 43 -76 66q-53 14 -122 14q-168 0 -332 -51q-162 -35 -217 -35q-117 -16 -255 31t-224 53q-35 -10 -93.5 -74.5t-58.5 -72.5q0 -4 14 -10l109 -29q72 -21 67 -74l-8 -20l-14 -17l-16 -8l-62 -16q0 32 -84 53l-113 20q-34 9 -34 48q0 81 96 194
q98 119 192 115q101 4 252.5 -49.5t231.5 -53.5q41 0 100 21l98 33q162 53 365 53q123 0 201 -33q98 -45 106 -137v-1276z" />
    <glyph glyph-name="Thorn" horiz-adv-x="1943" 
d="M1798 0h-123v1262q-6 38 -76 59q-53 14 -122 14q-168 0 -332 -51q-162 -35 -217 -35q-117 -16 -255 31t-224 53q-35 -10 -93.5 -74.5t-58.5 -72.5q0 -4 14 -10l109 -29q72 -21 67 -74l-8 -20l-14 -17l-16 -8l-62 -16q0 32 -84 53l-113 20q-34 9 -34 48q0 81 96 194
q98 119 192 115q101 4 252.5 -49.5t231.5 -53.5q41 0 100 21l98 33q162 53 365 53q111 0 184 -27v359q0 34 -187.5 97.5t-187.5 96.5q0 129 76 127q0 -41 109 -86l205 -80q108 -51 108 -102v-1831zM1167 0h-123v870q0 91 -243 91q-56 0 -142 -19q-75 -16 -184 -57
q-147 -56 -147 -94v-584q161 235 331 235q101 0 101 -86q0 -59 -45 -59q-17 0 -40.5 11t-35.5 11q-70 0 -180 -129q-90 -104 -133 -190h-121v811q0 111 252 199q209 71 348 71q362 0 362 -233v-848z" />
    <glyph glyph-name="thorn" unicode="&#x1783;" horiz-adv-x="2385" 
d="M2365 1374q0 -24 -28 -69q-29 -41 -51 -41q-31 0 -105 18t-110 18q-64 0 -103 -69q-74 -127 -74 -174l48 -17l80 -16l81 -16q119 -33 119 -82v-684q0 -131 -295 -195q-104 -22 -203.5 -34.5t-197.5 -12.5q-113 0 -164 18q-82 29 -117 109q-188 -127 -485 -127
q-148 0 -236 55q-106 68 -106 205v678q-10 -109 -197 -109q-119 0 -119 107q0 141 64.5 264t183.5 193q72 41 123 41q53 0 66 -64q2 -8 2 -108v-998q0 -76 75 -112q62 -29 144 -29q123 0 244 29q145 36 217 108v590q0 45 -68 61q-31 4 -61.5 10.5t-63.5 12.5q-67 24 -67 90
q0 90 102 246q108 164 194 164q29 0 70 -5.5t96 -15.5q111 -18 166 -18q25 0 25 -37q0 -41 -30 -75t-71 -34q-28 0 -98 19q-67 20 -108 20q-82 0 -131 -80l-37.5 -75.5t-34.5 -73.5q4 -6 121 -43q118 -37 118 -90v-654q0 -106 64 -133q39 -16 162 -16q344 0 497 104
q33 21 33 35v588q0 39 -133 68q-43 10 -86 17t-84 15q-41 11 -41 72q0 108 90 254q99 158 199 158q24 0 61 -4.5t86 -12.5q50 -8 86.5 -11t61.5 -3q26 0 26 -29zM418 1274q-68 -8 -133 -123q-60 -107 -60 -180q0 -29 31 -29q47 0 158 51q2 -4 2 -12t2 -18v311z" />
    <glyph glyph-name="minus" horiz-adv-x="733" 
d="M713 1374q0 -24 -29 -69q-29 -41 -53 -41q-29 0 -103 18q-73 18 -110 18q-60 0 -103 -71q-73 -121 -73 -174q0 -15 47 -15l81 -16l81 -16q118 -33 118 -82v-1449q0 -143 -190 -213q-139 -49 -309 -49q-192 0 -278 80q-56 -27 -220 -56q-151 -24 -229 -24t-178 22
q-131 33 -131 89v382q0 19 -12 19q-11 0 -21 -9.5t-19.5 -22.5t-15.5 -27.5t-6 -26.5q0 -21 29 -43q26 -21 26 -29q0 -26 -77 -26q-107 0 -107 96q0 86 66 158q63 69 151 69q66 0 87.5 -25.5t21.5 -89.5v-376q0 -17 86 -29q33 -4 57.5 -6t44.5 -2q105 0 305 37q11 2 29 6
t41 8q16 2 20 6v162q-14 10 -100 27q-63 12 -63 57q0 49 61 139q61 86 109 86q43 0 129 -12q43 -8 74.5 -11t51.5 -3q49 0 49 -33q0 -27 -35 -62q-34 -34 -65 -34q-14 0 -69 16q-56 16 -80 16q-37 0 -78 -53q4 -6 76 -29q63 -20 63 -45v-221q0 -20 94 -41q82 -16 113 -16
q125 0 225 26q151 37 151 117v1367q0 39 -133 67q-43 11 -86 19l-84 16q-41 11 -41 70q0 110 91 256q96 158 198 158q25 0 61.5 -4.5t86.5 -12.5q49 -8 86 -11t61 -3q27 0 27 -29z" />
    <glyph glyph-name="multiply" horiz-adv-x="733" 
d="M713 1374q0 -24 -29 -69q-29 -41 -53 -41q-29 0 -103 18q-73 18 -110 18q-60 0 -103 -71q-73 -121 -73 -174q0 -15 47 -15l81 -16l81 -16q118 -33 118 -82v-2077q0 -144 -190 -213q-139 -49 -309 -49q-192 0 -278 80q-56 -27 -220 -56q-151 -24 -229 -24t-178 22
q-131 33 -131 88v383q0 19 -12 19q-11 0 -21 -9.5t-19.5 -22.5t-15.5 -27.5t-6 -26.5q0 -21 29 -43q26 -21 26 -29q0 -27 -77 -27q-107 0 -107 97q0 86 66 157q63 70 151 70q66 0 87.5 -25.5t21.5 -89.5v-377q0 -16 86 -28q33 -4 57.5 -6t44.5 -2q105 0 305 36q11 2 29 6.5
t41 8.5q16 2 20 6v162q-14 10 -100 26q-63 13 -63 58q0 49 61 139q61 86 109 86q43 0 129 -12q43 -9 74.5 -12t51.5 -3q49 0 49 -32q0 -27 -35 -62q-34 -35 -65 -35q-14 0 -69 17q-56 16 -80 16q-37 0 -78 -53q4 -6 76 -29q63 -20 63 -45v-221q0 -21 94 -41q82 -16 113 -16
q125 0 225 26q151 37 151 117v1995q0 39 -133 67q-43 11 -86 19l-84 16q-41 11 -41 70q0 110 91 256q96 158 198 158q25 0 61.5 -4.5t86.5 -12.5q49 -8 86 -11t61 -3q27 0 27 -29z" />
    <glyph glyph-name="onesuperior" horiz-adv-x="3174" 
d="M2998 0h-127v1202q0 58 -108 86q-66 12 -129 12h-27q-45 -4 -83 -7t-70 -7l-13 -2l-77 -9l-95 -11v2q-28 2 -88 18q-78 16 -110 16q-64 0 -103 -69q-74 -127 -74 -174l48 -17l80 -16l81 -16q119 -33 119 -82v-684q0 -131 -295 -195q-104 -22 -203.5 -34.5t-197.5 -12.5
q-113 0 -164 18q-82 29 -117 109q-188 -127 -485 -127q-148 0 -236 55q-106 68 -106 205v678q-10 -109 -197 -109q-119 0 -119 107q0 141 64.5 264t183.5 193q72 41 123 41q53 0 66 -64q2 -8 2 -108v-998q0 -76 75 -112q62 -29 144 -29q123 0 244 29q145 36 217 108v590
q0 45 -68 61q-31 4 -61.5 10.5t-63.5 12.5q-67 24 -67 90q0 90 102 246q108 164 194 164q29 0 70 -5.5t96 -15.5q111 -18 166 -18q25 0 25 -37q0 -41 -30 -75t-71 -34q-28 0 -98 19q-67 20 -108 20q-82 0 -131 -80l-37.5 -75.5t-34.5 -73.5q4 -6 121 -43q118 -37 118 -90
v-654q0 -106 64 -133q39 -16 162 -16q344 0 497 104q33 21 33 35v588q0 39 -133 68q-43 10 -86 17t-84 15q-41 11 -41 72q0 108 90 254q99 158 199 158q24 0 61 -4.5t86 -12.5q39 -6 71 -9l54 -5q101 6 291 31q141 0 246 -45q141 -62 145 -183v-1206zM418 1274
q-68 -8 -133 -123q-60 -107 -60 -180q0 -29 31 -29q47 0 158 51q2 -4 2 -12t2 -18v311z" />
    <glyph glyph-name="twosuperior" horiz-adv-x="1533" 
d="M1339 0h-127v1202q0 58 -108 86q-76 17 -156 12q-88 -6 -153 -14q-60 -8 -148 -18q-8 -4 -16 -4h-21q-28 4 -82 18q-73 18 -110 18q-60 0 -103 -71q-73 -121 -73 -174q0 -15 47 -15l162 -32q118 -35 118 -82v-1478q0 -144 -190 -213q-137 -50 -309 -50q-192 0 -278 80
q-56 -26 -220 -55q-151 -25 -229 -25q-82 0 -178 23q-131 33 -131 88v383q0 18 -12 18q-21 0 -41.5 -31.5t-20.5 -54.5q0 -20 27.5 -42.5t27.5 -28.5q0 -27 -77 -27q-107 0 -107 96q0 88 65.5 158t151.5 70q66 0 87.5 -26t21.5 -89v-377q0 -16 86 -29q63 -8 102 -8
q105 0 305 37q23 4 70 14q18 5 20 7v161q-14 13 -100 27q-63 12 -63 57q0 52 61 139t109 87q43 0 129 -13.5t126 -13.5q49 0 49 -33q0 -28 -34.5 -62t-65.5 -34q-18 0 -69 16.5t-80 16.5q-39 0 -78 -53q4 -7 76 -29q63 -21 63 -45v-221q0 -21 94 -41q78 -17 113 -17
q120 0 225 27q151 37 151 117v1396q0 39 -133 70l-170 32q-41 8 -41 70q0 110 91 256q96 158 198 158q49 0 148 -17q75 -12 123 -14q98 6 286 31q137 0 246 -45q141 -62 145 -183v-1206z" />
    <glyph glyph-name="threesuperior" horiz-adv-x="1533" 
d="M1339 0h-127v1202q0 58 -108 86q-76 17 -156 12q-88 -6 -153 -14q-60 -8 -148 -18q-8 -4 -16 -4h-15h-6q-28 4 -82 18q-73 18 -110 18q-60 0 -103 -71q-73 -121 -73 -174q0 -15 47 -15l162 -32q118 -35 118 -82v-2067q0 -143 -190 -213q-137 -49 -309 -49q-192 0 -278 80
q-56 -27 -220 -55q-151 -25 -229 -25q-82 0 -178 23q-131 32 -131 88v383q0 18 -12 18q-21 0 -41.5 -31.5t-20.5 -54.5q0 -20 27.5 -42.5t27.5 -29.5q0 -26 -77 -26q-107 0 -107 96q0 88 65.5 157.5t151.5 69.5q66 0 87.5 -25.5t21.5 -88.5v-377q0 -16 86 -29q63 -8 102 -8
q105 0 305 37q23 4 70 14q18 4 20 6v162q-14 12 -100 27q-63 12 -63 57q0 51 61 138t109 87q43 0 129 -13t126 -13q49 0 49 -33q0 -29 -34.5 -62.5t-65.5 -33.5q-18 0 -69 16.5t-80 16.5q-39 0 -78 -54q4 -6 76 -28q63 -21 63 -45v-222q0 -20 94 -41q78 -16 113 -16
q120 0 225 27q151 37 151 116v1985q0 39 -133 70l-170 32q-41 8 -41 70q0 110 91 256q96 158 198 158q49 0 148 -17q75 -12 123 -14q98 6 286 31q137 0 246 -45q141 -62 145 -183v-1206z" />
    <glyph glyph-name="onehalf" horiz-adv-x="3174" 
d="M2998 0h-127v1202v4q-6 54 -108 82q-76 17 -156 12q-88 -6 -153 -14q-72 -10 -185 -22v2q-31 4 -88 18q-74 16 -110 16q-62 0 -103 -69q-74 -125 -74 -174l48 -17l161 -32q119 -35 119 -82v-684q0 -129 -295 -195q-205 -47 -401 -47q-111 0 -164 18q-80 27 -117 109
q-186 -127 -485 -127q-146 0 -236 57q-106 66 -106 203v678q-10 -109 -197 -109q-119 0 -119 107q0 141 64.5 264t183.5 193q70 41 123 41t66 -64q2 -12 2 -108v-998q0 -76 75 -112q60 -29 144 -29q127 0 244 29q145 36 217 108v590q0 45 -68 61l-125 23q-67 24 -67 90
q0 92 102 246q106 164 194 164q56 0 166.5 -19.5t165.5 -19.5q25 0 25 -37q0 -41 -30 -75t-71 -34q-28 0 -97.5 19.5t-108.5 19.5q-82 0 -131 -80l-72 -149q2 -6 120.5 -43t118.5 -90v-654q0 -104 64 -133q37 -16 162 -16q344 0 497 104q33 23 33 35v588q0 39 -133 70
q-86 14 -170 30q-41 11 -41 72q0 108 90 254q99 158 199 158q49 0 147 -17q78 -12 125 -14q101 6 291 31q137 0 246 -45l18 -9v439q0 34 -187 97.5t-187 96.5q0 129 75 127q0 -41 109 -86l205 -80q112 -51 112 -102v-664v-2v-1206zM418 1274q-70 -8 -133 -123
q-60 -104 -60 -180q0 -29 31 -29q43 0 158 51q2 -10 4 -30v311z" />
    <glyph glyph-name="onequarter" horiz-adv-x="1533" 
d="M1339 0h-127v1206q-6 54 -108 82q-76 17 -156 12q-88 -6 -153 -14q-60 -8 -148 -18q-8 -4 -16 -4h-15h-6q-28 4 -82 18q-73 18 -110 18q-60 0 -103 -71q-73 -121 -73 -174q0 -15 47 -15l162 -32q118 -35 118 -82v-1478q0 -144 -190 -213q-137 -50 -309 -50
q-192 0 -278 80q-56 -26 -220 -55q-151 -25 -229 -25q-82 0 -178 23q-131 33 -131 88v383q0 18 -12 18q-21 0 -41.5 -31.5t-20.5 -54.5q0 -20 27.5 -42.5t27.5 -28.5q0 -27 -77 -27q-107 0 -107 96q0 88 65.5 158t151.5 70q66 0 87.5 -26t21.5 -89v-377q0 -16 86 -29
q63 -8 102 -8q105 0 305 37q23 4 70 14q18 5 20 7v161q-14 13 -100 27q-63 12 -63 57q0 52 61 139t109 87q43 0 129 -13.5t126 -13.5q49 0 49 -33q0 -28 -34.5 -62t-65.5 -34q-18 0 -69 16.5t-80 16.5q-39 0 -78 -53q4 -7 76 -29q63 -21 63 -45v-221q0 -21 94 -41
q78 -17 113 -17q120 0 225 27q151 37 151 117v1396q0 39 -133 70l-170 32q-41 8 -41 70q0 110 91 256q96 158 198 158q49 0 148 -17q75 -12 123 -14q98 6 286 31q137 0 246 -45l18 -9v439q0 34 -187 97.5t-187 96.5q0 129 75 127q0 -41 109 -86l205 -80q112 -51 112 -102
v-664v-2v-1206z" />
    <glyph glyph-name="threequarters" horiz-adv-x="1533" 
d="M1339 0h-127v1206q-6 54 -108 82q-76 17 -156 12q-88 -6 -153 -14q-60 -8 -148 -18q-8 -4 -16 -4h-15h-6q-28 4 -82 18q-73 18 -110 18q-60 0 -103 -71q-73 -121 -73 -174q0 -15 47 -15l162 -32q118 -35 118 -82v-2077q0 -143 -190 -213q-137 -49 -309 -49
q-192 0 -278 80q-56 -27 -220 -55q-151 -25 -229 -25q-82 0 -178 23q-131 32 -131 88v383q0 18 -12 18q-21 0 -41.5 -31.5t-20.5 -54.5q0 -20 27.5 -42.5t27.5 -29.5q0 -26 -77 -26q-107 0 -107 96q0 88 65.5 157.5t151.5 69.5q66 0 87.5 -25.5t21.5 -88.5v-377
q0 -16 86 -29q63 -8 102 -8q105 0 305 37q23 4 70 14q18 4 20 6v162q-14 12 -100 27q-63 12 -63 57q0 51 61 138t109 87q43 0 129 -13t126 -13q49 0 49 -33q0 -29 -34.5 -62.5t-65.5 -33.5q-18 0 -69 16.5t-80 16.5q-39 0 -78 -54q4 -6 76 -28q63 -21 63 -45v-222
q0 -20 94 -41q78 -16 113 -16q120 0 225 27q151 37 151 116v1995q0 39 -133 70l-170 32q-41 8 -41 70q0 110 91 256q96 158 198 158q49 0 148 -17q75 -12 123 -14q98 6 286 31q137 0 246 -45l18 -9v439q0 34 -187 97.5t-187 96.5q0 129 75 127q0 -41 109 -86l205 -80
q112 -51 112 -102v-664v-2v-1206z" />
    <glyph glyph-name="franc" unicode="&#x1784;" horiz-adv-x="1533" 
d="M1364 1247q0 -155 -145 -241q120 -60 120 -95v-864q0 -47 -49 -47q-71 0 -270 111q-199 108 -232 108q-20 0 -163 -110q-142 -111 -195 -111q-43 0 -43 61v402q-10 -105 -170 -105q-115 0 -115 117q0 154 93 268q96 115 247 115q54 0 66 -65q2 -9 2 -105v-506
q37 17 133 96q82 66 143 66q68 0 236 -94t186 -94h9v700q0 29 -56 59l-80 37q-123 -37 -270 -37q-152 0 -303 35q-217 49 -217 152q0 28 59 135q60 106 60 176q0 19 -113 45q-111 27 -111 66q0 8 56 118q0 -24 84 -49q129 -35 157 -49q84 -41 84 -100q0 -96 -129 -324
q2 -39 170 -63q123 -19 211 -19q58 0 117 6q-82 80 -82 207q0 117 72.5 182.5t191.5 65.5q103 0 174 -74q72 -75 72 -176zM1239 1247q0 53 -39 90t-92 37q-57 0 -94 -34.5t-37 -90.5q0 -96 110 -172q152 60 152 170zM387 719q-74 -4 -119 -72q-43 -61 -43 -139q0 -43 29 -43
q39 0 133 41v213z" />
    <glyph glyph-name="Gbreve" 
d="M-104 -497q0 -80 -143 -174q-109 -72 -209 -103q-119 -39 -230 -39q-188 0 -311 76q-153 90 -153 281q0 170 137 266q116 82 282 82q95 0 156 -49q70 -55 70 -156q0 -53 -31 -108q-33 -66 -80 -66q-25 0 -55 19q-37 22 -37 47q0 8 37 32.5t37 67.5q0 80 -97 80
q-106 0 -192 -49q-103 -62 -103 -168q0 -113 125 -174q101 -52 215 -52q84 0 180.5 31t190.5 92q131 80 131 154q0 31 25 31q55 0 55 -121z" />
    <glyph glyph-name="gbreve" 
d="M-104 -1114q0 -74 -143 -160q-109 -65 -209 -94q-119 -35 -230 -35q-188 0 -311 68q-153 84 -153 258q0 155 137 243q116 76 282 76q95 0 156 -45q70 -51 70 -143q0 -49 -31 -100q-33 -60 -80 -60q-25 0 -55 16q-37 21 -37 44q0 8 37 30.5t37 61.5q0 73 -97 73
q-106 0 -192 -45q-103 -55 -103 -153q0 -103 125 -160q101 -47 215 -47q84 0 180.5 28.5t190.5 84.5q131 73 131 141q0 29 25 29q55 0 55 -111z" />
    <glyph glyph-name="Idotaccent" horiz-adv-x="2252" 
d="M2060 0h-127v1202q0 58 -108 88q-76 23 -156 23q-88 0 -153 -13l-144 -32q-4 6 -10 12q2 -16 2 -33q0 -155 -145 -241q120 -60 120 -95v-864q0 -47 -49 -47q-71 0 -269 109.5t-233 109.5q-20 0 -162.5 -110.5t-195.5 -110.5q-43 0 -43 61v402q-10 -105 -170 -105
q-115 0 -115 117q0 156 93.5 269.5t246.5 113.5q54 0 66 -65q2 -13 2 -105l2 -506q33 15 131 96q80 66 143 66q68 0 237 -94t185 -94h9v700q0 29 -56 59q-39 19 -80 37q-123 -37 -270 -37q-156 0 -303 35q-217 49 -217 152q0 30 49 134.5t49 176.5q0 16 -111.5 45t-111.5 66
q0 8 55 118q0 -24 84 -49q127 -35 158 -49q84 -39 84 -100q0 -96 -109 -324q2 -39 170 -63q123 -19 211 -19q60 0 117 6q-82 80 -82 207q0 117 72.5 182.5t191.5 65.5q103 0 174 -74q17 -18 29 -37q172 48 348 48q137 0 246 -45q141 -62 145 -183v-1206zM1239 1247
q0 53 -39 90t-92 37q-57 0 -94 -34.5t-37 -90.5q0 -96 110 -172q152 58 152 170zM387 481v238q-72 -2 -119 -72q-43 -61 -43 -139q0 -43 29 -43q37 0 129 41z" />
    <glyph glyph-name="Scedilla" horiz-adv-x="2252" 
d="M2060 0h-127v1206q-6 54 -108 84q-76 23 -156 23q-88 0 -153 -13l-144 -32q-4 6 -10 12q2 -16 2 -33q0 -155 -145 -241q120 -60 120 -95v-864q0 -47 -49 -47q-71 0 -269 109.5t-233 109.5q-20 0 -162.5 -110.5t-195.5 -110.5q-43 0 -43 61v402q-10 -105 -170 -105
q-115 0 -115 117q0 156 93.5 269.5t246.5 113.5q54 0 66 -65q2 -13 2 -105l2 -506q33 15 131 96q80 66 143 66q68 0 237 -94t185 -94h9v700q0 29 -56 59q-39 19 -80 37q-123 -37 -270 -37q-156 0 -303 35q-217 49 -217 152q0 30 69.5 145t69.5 187q0 16 -111.5 44.5
t-111.5 65.5q0 8 96 160q-41 -66 43 -90q127 -35 158 -49q84 -39 84 -101q0 -96 -150 -344q2 -39 170 -63q123 -19 211 -19q60 0 117 6q-82 80 -82 207q0 117 72.5 182.5t191.5 65.5q103 0 174 -74q17 -18 29 -37q172 48 348 48q137 0 246 -45l18 -9v439q0 34 -187 97.5
t-187 96.5q0 129 75 127q0 -41 109 -86l205 -80q112 -51 112 -102v-660v-6v-1206zM1239 1247q0 53 -39 90t-92 37q-57 0 -94 -34.5t-37 -90.5q0 -96 110 -172q152 58 152 170zM387 481v238q-72 -2 -119 -72q-43 -61 -43 -139q0 -43 29 -43q37 0 129 41z" />
    <glyph glyph-name="scedilla" unicode="&#x1785;" horiz-adv-x="1447" 
d="M1331 1352q0 -82 -137 -82q-82 0 -207 33q-16 4 -29 4q-30 0 -81.5 -47.5t-110.5 -47.5q-61 0 -186 51.5t-179 51.5q-57 0 -135 -182l131 -58q99 -43 99 -78v-733q0 -76 75 -112q60 -29 144 -29q295 0 415 113q31 28 31 45v254q-43 -33 -143 -33q-182 0 -182 174
q0 121 108.5 225.5t231.5 104.5q75 0 96 -48q12 -26 12 -116v-582q0 -137 -229 -209q-164 -51 -340 -51q-146 0 -236 57q-106 66 -106 203v670q0 39 -135.5 87t-135.5 73l97 190q73 129 139 147q24 7 63 7q58 0 185 -50.5t174 -50.5q26 0 70 50.5t81 50.5q50 0 149 -20.5
t148 -20.5q13 0 36.5 3t35.5 3q51 0 51 -47zM1159 657v228q-65 -6 -131.5 -70.5t-66.5 -128.5q0 -80 79 -80q27 0 68 15q51 16 51 36z" />
    <glyph glyph-name="Cacute" 
d="M-137 -712q0 -101 -32 -101q-9 0 -35 31q-35 41 -57.5 58.5t-110.5 95.5q-82 -66 -189 -113q-118 -53 -209 -53q-143 0 -258 65q-139 82 -139 222q0 28 165 144t165 122q0 16 -57 16q-21 0 -59 -12t-54 -12q-8 0 -8 16q0 47 35.5 86t80.5 39q66 0 125 -23q82 -28 82 -86
q0 -55 -88 -131q-51 -43 -162 -112q-88 -56 -88 -66q0 -69 101 -112q82 -35 157 -35q152 0 324 131q-80 110 -80 235q0 84 48 150.5t126 66.5q160 0 160 -252q0 -96 -88 -202l96 -75t49 -93zM-317 -337v22q0 96 -31 96q-53 0 -53 -80q0 -83 41 -153q43 57 43 115z" />
    <glyph glyph-name="cacute" 
d="M-137 -1323q0 -92 -32 -92q-9 0 -35 29q-35 36 -57.5 52.5t-110.5 90.5q-82 -62 -189 -107q-118 -49 -209 -49q-143 0 -258 62q-139 75 -139 207q0 26 165 134.5t165 112.5q0 17 -57 17q-21 0 -59 -11.5t-54 -11.5q-8 0 -8 15q0 45 35.5 80.5t80.5 35.5q66 0 125 -20
q82 -27 82 -80t-88 -123q-51 -41 -162 -106q-88 -52 -88 -62q0 -63 101 -104q82 -33 157 -33q152 0 324 123q-80 102 -80 219q0 80 48 142.5t126 62.5q160 0 160 -236q0 -90 -88 -190l96 -70t49 -88zM-317 -973v23q0 90 -31 90q-53 0 -53 -76q0 -78 41 -143q43 53 43 106z
" />
    <glyph glyph-name="Ccaron" horiz-adv-x="2048" 
d="M1898 -4h-133v1259q0 43 -82 66q-59 14 -133 14q-184 0 -362 -55q-174 -43 -234 -43q-129 -4 -278.5 43t-241.5 53q-39 -10 -102.5 -95t-63.5 -93q0 -4 15 -10q55 -23 108 -50q70 -34 84 -53v-2q21 -16 21 -33v-733q0 -76 75 -112q60 -29 144 -29q295 0 415 113
q31 28 31 45v254q-43 -33 -143 -33q-182 0 -182 174q0 121 108.5 225.5t231.5 104.5q75 0 96 -48q12 -26 12 -116v-582q0 -137 -229 -209q-164 -51 -340 -51q-146 0 -236 57q-106 66 -106 203v672q-15 24 -43 43l-4 2l-4 2q-23 12 -58 27q-6 2 -12 6q-10 2 -23 6
q-10 2 -18 6q-29 8 -59 20q-37 9 -37 48q0 82 104 235q107 119 209 115q109 4 268.5 -49.5t257.5 -51.5q43 2 109 19l106 33q174 53 396 53q133 0 217 -33q108 -45 116 -137v-1280zM1159 657v228q-65 -6 -131.5 -70.5t-66.5 -128.5q0 -80 79 -80q27 0 68 15q51 16 51 36z
" />
    <glyph glyph-name="ccaron" horiz-adv-x="2048" 
d="M1898 -4h-133v1259q0 43 -82 66q-59 14 -133 14q-184 0 -362 -55q-174 -43 -234 -43q-129 -4 -278.5 43t-241.5 53q-39 -10 -102.5 -95t-63.5 -93q0 -4 15 -10q55 -23 108 -50q70 -34 84 -53v-2q21 -16 21 -33v-733q0 -76 75 -112q60 -29 144 -29q295 0 415 113
q31 28 31 45v254q-43 -33 -143 -33q-182 0 -182 174q0 121 108.5 225.5t231.5 104.5q75 0 96 -48q12 -26 12 -116v-582q0 -137 -229 -209q-164 -51 -340 -51q-146 0 -236 57q-106 66 -106 203v672q-15 24 -43 43l-4 2l-4 2q-23 12 -58 27q-6 2 -12 6q-10 2 -23 6
q-10 2 -18 6q-29 8 -59 20q-37 9 -37 48q0 82 104 235q107 119 209 115q109 4 268.5 -49.5t257.5 -51.5q43 2 109 19l106 33q174 53 396 53q121 0 200 -27v324q0 35 -203.5 98.5t-203.5 95.5q0 129 82 127q0 -41 119 -86l221 -80q118 -51 118 -102v-1800zM1159 657v228
q-65 -6 -131.5 -70.5t-66.5 -128.5q0 -80 79 -80q27 0 68 15q51 16 51 36z" />
    <glyph glyph-name="dmacron" unicode="&#x1786;" horiz-adv-x="1447" 
d="M1331 1352q0 -82 -137 -82q-80 0 -205 33q-16 4 -31 4q-28 0 -81.5 -47.5t-110.5 -47.5q-64 0 -183.5 51.5t-181.5 51.5q-30 0 -77 -76q-35 -55 -56 -106l131 -58q99 -45 99 -78v-444q116 -6 207 -49q120 -58 120 -158q0 -104 -39 -143q5 -80 82 -80q293 0 293 147v265
q-47 -33 -141 -33q-184 0 -184 174q0 121 109.5 225.5t232.5 104.5q69 0 92 -41q14 -27 14 -103v-620q0 -129 -156 -193q-116 -49 -266 -49q-84 0 -141 61.5t-57 145.5q38 24 38 127q0 92 -204 112v-313q0 -70 -17 -96q-22 -37 -88 -37q-149 0 -211 94q-53 76 -53 234
q0 182 246 219v383q0 39 -135.5 86t-137.5 74l97 194q75 129 147 146q21 4 57 4q64 0 180.5 -50.5t176.5 -50.5q26 0 71.5 50.5t81.5 50.5q52 0 150 -20.5t147 -20.5q13 0 36.5 3t33.5 3q51 0 51 -47zM1161 655v228q-65 -6 -134 -70.5t-69 -128.5q0 -78 82 -78q25 0 73 15.5
t48 33.5zM375 123v315q-123 -26 -123 -110q0 -205 123 -205z" />
    <glyph glyph-name="macron" 
d="M-184 -555q0 -249 -360 -249q-209 0 -310 209q54 83 54 141q0 90 -197 112v-327q0 -144 -82 -144q-135 0 -231 92.5t-96 235.5q0 117 90 186q75 58 196 74v45q0 4 -6 4q-24 9 -80 15v57q0 31 137 31q72 0 72 -13v-135q115 -8 205 -51q123 -55 123 -153q0 -95 -41 -152
q22 -43 71.5 -75t94.5 -32q235 0 237 170q-35 -10 -63 -10q-74 0 -129.5 46t-55.5 120q0 86 91.5 167t175.5 81q41 0 72.5 -29.5t31.5 -72.5v-343zM-307 -399v160q-37 -6 -84 -49t-47 -80q0 -17 37 -31q29 -8 49 -8q27 0 45 8zM-1120 -671v325q-164 -32 -164 -151
q0 -62 52.5 -116t111.5 -58z" />
    <glyph glyph-name="periodcentered" 
d="M-184 -1173q0 -230 -360 -230q-209 0 -310 193q54 75 54 129q0 82 -197 102v-299q0 -131 -82 -131q-135 0 -231 85t-96 214q0 107 90 170q75 53 196 70v41q0 4 -6 4q-24 6 -80 10v53q0 29 137 29q72 0 72 -10v-125q115 -6 205 -45q123 -52 123 -142q0 -86 -41 -139
q22 -39 71.5 -67.5t94.5 -28.5q235 0 237 153q-35 -8 -63 -8q-74 0 -129.5 42t-55.5 110q0 80 91.5 152.5t175.5 72.5q41 0 72.5 -26.5t31.5 -65.5v-313zM-307 -1030v145q-37 -6 -84 -45t-47 -73q0 -15 37 -27q29 -8 49 -8q27 0 45 8zM-1120 -1280v297q-164 -29 -164 -137
q0 -58 52.5 -107t111.5 -53z" />
    <glyph glyph-name="Abreve" horiz-adv-x="2048" 
d="M1898 -4h-133v1259q0 43 -82 66q-59 14 -133 14q-184 0 -362 -55q-174 -43 -234 -43q-129 -4 -278.5 43t-241.5 53q-39 -10 -102.5 -95t-63.5 -93q0 -4 15 -10q55 -23 108 -50q66 -34 84 -53q23 -18 23 -35v-444q116 -6 207 -49q120 -58 120 -158q0 -104 -39 -143
q5 -80 82 -80q293 0 293 147v265q-47 -33 -141 -33q-184 0 -184 174q0 121 109.5 225.5t232.5 104.5q69 0 92 -41q14 -27 14 -103v-620q0 -129 -156 -193q-116 -49 -266 -49q-84 0 -141 61.5t-57 145.5q38 24 38 127q0 92 -204 112v-313q0 -70 -17 -96q-22 -37 -88 -37
q-149 0 -211 94q-53 76 -53 234q0 182 246 219v383q-15 31 -60 55q-12 4 -24 10l-25 11q-2 0 -4 2q-18 4 -143 61q-4 8 -4 23q0 82 104 235q107 119 209 115q109 4 268.5 -49.5t257.5 -51.5q43 2 109 19l106 33q174 53 396 53q133 0 217 -33q108 -45 116 -137v-1280z
M1161 655v228q-65 -6 -134 -70.5t-69 -128.5q0 -78 82 -78q25 0 73 15.5t48 33.5zM375 123v315q-123 -26 -123 -110q0 -205 123 -205z" />
    <glyph glyph-name="abreve" horiz-adv-x="2048" 
d="M1898 -4h-133v1259q0 43 -82 66q-59 14 -133 14q-184 0 -362 -55q-174 -43 -234 -43q-129 -4 -278.5 43t-241.5 53q-39 -10 -102.5 -95t-63.5 -93q0 -4 15 -10q55 -23 108 -50q66 -34 82 -49q25 -22 25 -39v-444q116 -6 207 -49q120 -58 120 -158q0 -104 -39 -143
q5 -80 82 -80q293 0 293 147v265q-47 -33 -141 -33q-184 0 -184 174q0 121 109.5 225.5t232.5 104.5q69 0 92 -41q14 -27 14 -103v-620q0 -129 -156 -193q-116 -49 -266 -49q-84 0 -141 61.5t-57 145.5q38 24 38 127q0 92 -204 112v-313q0 -70 -17 -96q-22 -37 -88 -37
q-149 0 -211 94q-53 76 -53 234q0 182 246 219v379q-15 35 -60 59l-30 12q-41 15 -59.5 21l-58.5 18.5t-48 32.5q-4 12 -4 23q0 82 104 235q107 119 209 115q109 4 268.5 -49.5t257.5 -51.5q43 2 109 19l106 33q174 53 396 53q121 0 200 -27v324q0 35 -203.5 98.5
t-203.5 95.5q0 129 82 127q0 -41 119 -86l221 -80q118 -51 118 -102v-1800zM1161 655v228q-65 -6 -134 -70.5t-69 -128.5q0 -78 82 -78q25 0 73 15.5t48 33.5zM375 123v315q-123 -26 -123 -110q0 -205 123 -205z" />
    <glyph glyph-name="Aogonek" unicode="&#x1787;" horiz-adv-x="1447" 
d="M1241 1315q0 -90 -100 -144q-23 -26 -121 -26q-125 0 -326.5 86t-277.5 86q-78 0 -152 -182q6 -9 123 -58q111 -45 111 -82v-811q2 0 85 102.5t134 102.5q65 0 230 -123t198 -123q12 0 16 15v733h123v-811q0 -80 -80 -80q-86 0 -277.5 133t-205.5 133t-66 -69
q-65 -91 -104 -127q-72 -70 -135 -70q-41 0 -41 61v877q0 31 -135.5 78t-137.5 76l109 217q80 125 190 125q111 0 311.5 -82t311.5 -82q86 -21 86 57q0 41 -37 109.5t-37 107.5q0 47 62 84q53 33 104 33q45 0 45 -45q0 -76 -63 -96q43 -86 53 -131q4 -19 4 -74z" />
    <glyph glyph-name="aogonek" 
d="M2 -337q0 -11 -24 -54q-59 -96 -182 -135q-23 -127 -88 -205q-72 -86 -179 -86q-129 0 -213 119q-12 19 -38 53l-76 -90q-74 -82 -170 -82q-113 0 -168 133q-43 103 -43 244q0 94 37 184q45 111 118 111q39 0 80 -41t41 -84q0 -22 -12 -49t-31 -27q-14 0 -32.5 31
t-34.5 31q-25 0 -39 -72q-10 -47 -10 -92q0 -246 116 -246q47 0 133 110.5t97 110.5q4 0 88 -106.5t157 -106.5q105 0 144 136l-19 -2q-102 -3 -169.5 65t-67.5 182q0 84 53 150.5t125 66.5q102 0 160 -108q51 -92 51 -215q20 8 101 48t85 40q10 0 10 -14zM-307 -393
q2 49 -26.5 108.5t-71.5 59.5q-55 0 -55 -80q0 -135 121 -127l30 2z" />
    <glyph glyph-name="Dcaron" 
d="M2 -979q0 -10 -24 -47q-59 -86 -182 -121q-23 -112 -88 -180q-72 -76 -179 -76q-129 0 -213 105q-12 16 -38 47l-76 -80q-74 -72 -170 -72q-113 0 -168 117q-43 90 -43 215q0 84 37 164q45 98 118 98q39 0 80 -37t41 -74q0 -20 -12 -43.5t-31 -23.5q-14 0 -32.5 27.5
t-34.5 27.5q-25 0 -39 -63q-10 -43 -10 -82q0 -217 116 -217q47 0 133 97t97 97q4 0 88 -94t157 -94q105 0 144 121l-19 -2q-102 -2 -169.5 57t-67.5 162q0 73 53 132.5t125 59.5q102 0 160 -96q51 -82 51 -190q20 6 101 41.5t85 35.5q10 0 10 -12zM-307 -1028
q2 43 -26.5 95t-71.5 52q-55 0 -55 -69q0 -121 121 -113l30 2z" />
    <glyph glyph-name="dcaron" horiz-adv-x="2097" 
d="M1962 0h-127v1202q0 58 -109 88q-75 23 -155 23q-88 0 -154 -13l-131 -30q-22 -45 -84 -78q-84 -47 -182 -47q-125 0 -326.5 86t-277.5 86q-78 0 -152 -182q6 -9 123 -58q111 -45 111 -82v-811q2 0 85 102.5t134 102.5q65 0 230 -123t198 -123q12 0 16 15v733h123v-811
q0 -80 -80 -80q-86 0 -277.5 133t-205.5 133t-66 -69q-65 -91 -104 -127q-72 -70 -135 -70q-41 0 -41 61v877q0 31 -135.5 78t-137.5 76l109 217q80 125 190 125q111 0 311.5 -82t311.5 -82q147 0 147 78q0 41 -47 119.5t-47 117.5q0 47 62 84q53 33 104 33q45 0 45 -45
q0 -76 -63 -96l73 -154q127 27 273 27q137 0 246 -45q141 -62 145 -183v-1206z" />
    <glyph glyph-name="Dslash" horiz-adv-x="2097" 
d="M1962 0h-127v1206q-6 54 -109 84q-75 23 -155 23q-88 0 -154 -13l-131 -30q-22 -45 -84 -78q-84 -47 -182 -47q-125 0 -326.5 86t-277.5 86q-78 0 -152 -182q6 -9 123 -58q111 -45 111 -82v-811q2 0 85 102.5t134 102.5q65 0 230 -123t198 -123q12 0 16 15v733h123v-811
q0 -80 -80 -80q-86 0 -277.5 133t-205.5 133t-66 -69q-65 -91 -104 -127q-72 -70 -135 -70q-41 0 -41 61v877q0 31 -135.5 78t-137.5 76l109 217q80 125 190 125q111 0 311.5 -82t311.5 -82q147 0 147 78q0 41 -47 119.5t-47 117.5q0 47 62 84q53 33 104 33q45 0 45 -45
q0 -76 -63 -96l73 -154q127 27 273 27q137 0 246 -45l18 -9v439q0 34 -187.5 97.5t-187.5 96.5q0 129 76 127q0 -41 109 -86l204 -80q113 -51 113 -102v-660v-6v-1206z" />
    <glyph glyph-name="Eogonek" unicode="&#x1788;" horiz-adv-x="3051" 
d="M3035 1374q0 -35 -29.5 -72.5t-62.5 -37.5q-21 0 -94.5 18t-110.5 18q-57 0 -102 -69q-15 -25 -43 -86q-31 -70 -31 -88q0 -4 43 -19l164 -32q121 -33 121 -80v-684q0 -131 -258 -197q-178 -45 -365 -45q-145 0 -207 14q-116 27 -157 119q-191 -133 -514 -133
q-150 0 -238 59q-104 72 -104 213v951q0 88 -246 88q-74 0 -151 -18.5t-179 -57.5q-143 -55 -143 -92v-635q59 55 137 55q82 0 135 -59.5t53 -143.5q0 -159 -92 -259.5t-250 -100.5q-71 0 -94 76q-12 41 -12 137v950q0 109 252 197q209 74 348 74q364 0 364 -234v-928
q0 -149 220 -149q94 0 176 14q59 10 174 47q147 47 147 76v590q0 43 -131 72l-170 28q-41 13 -41 72q0 108 90 254q99 158 199 158q49 0 147.5 -15.5t147.5 -15.5q26 0 26 -27q0 -35 -28.5 -73.5t-61.5 -38.5q-20 0 -94 18t-110 18q-60 0 -103 -69q-16 -25 -43 -86
q-31 -70 -31 -88q0 -4 41 -19l164 -32q121 -33 121 -80v-654q0 -108 80 -135q39 -14 178 -14q316 0 467 102q33 23 33 35v590q0 43 -131 70q-86 16 -172 30q-41 13 -41 72q0 108 90 254q98 158 199 158q49 0 147 -15.5t150 -15.5q26 0 26 -29zM530 371q0 84 -71 84
q-64 0 -131 -72v-260q202 24 202 248z" />
    <glyph glyph-name="eogonek" horiz-adv-x="718" 
d="M713 1374q0 -26 -28 -68t-52 -42q-31 0 -104.5 18t-110.5 18q-58 0 -103 -71q-73 -119 -73 -174q0 -15 47 -15l162 -32q118 -35 118 -82v-1478q0 -144 -190 -213q-35 -35 -146 -43q-159 -7 -239 73q-47 -22 -135 -51t-131 -29q-78 0 -158 23q-112 31 -112 88v383
q0 35 -86 35q-58 0 -142 -32l-147 -58q-20 -11 -20 -13v-36q20 6 45 6q61 0 116 -35q64 -37 64 -94q0 -74 -89 -170.5t-161 -96.5q-41 0 -74 29t-33 70v372q0 54 232 142q125 39 209 39q28 0 102 -21q107 -31 107 -94v-377q0 -37 107.5 -37t238.5 51q8 3 16 7v161
q-14 13 -100 27q-64 12 -64 57q0 52 61.5 139t108.5 87q43 0 129 -13.5t130 -13.5t44 -33q0 -28 -35 -62t-63 -34q-19 0 -71 16.5t-79 16.5q-42 0 -77 -53q4 -7 75 -29q64 -21 64 -45v-221q0 -23 73 -41q62 -17 94 -17l62 6q151 58 151 138v1396q0 39 -131 70l-172 32
q-41 11 -41 72q0 108 91 254q96 158 198 158q49 0 147.5 -15.5t147.5 -15.5q27 0 27 -29zM-841 -565q0 35 -58 35q-20 0 -38 -6v-131q32 4 64 36.5t32 65.5z" />
    <glyph glyph-name="Ecaron" horiz-adv-x="718" 
d="M713 1374q0 -26 -28 -68t-52 -42q-31 0 -104.5 18t-110.5 18q-58 0 -103 -71q-73 -119 -73 -174q0 -15 47 -15l162 -32q118 -35 118 -82v-2067q0 -143 -190 -213q-35 -35 -146 -43q-159 -6 -239 74q-47 -23 -135 -51.5t-131 -28.5q-78 0 -158 23q-112 30 -112 88v383
q0 35 -86 35q-58 0 -142 -32t-147 -59q-20 -10 -20 -12v-37q20 6 45 6q61 0 116 -34q64 -37 64 -95q0 -73 -89 -169.5t-161 -96.5q-41 0 -74 28.5t-33 69.5v373q0 53 232 142q125 38 209 38q28 0 102 -20q107 -31 107 -94v-377q0 -37 107.5 -37t238.5 51q8 2 16 6v162
q-14 12 -100 27q-64 12 -64 57q0 51 61.5 138t108.5 87q43 0 129 -13t130 -13t44 -33q0 -29 -35 -62.5t-63 -33.5q-19 0 -71 16.5t-79 16.5q-42 0 -77 -54q4 -6 75 -28q64 -21 64 -45v-222q0 -22 73 -41q62 -16 94 -16l62 6q151 58 151 137v1985q0 39 -131 70l-172 32
q-41 11 -41 72q0 108 91 254q96 158 198 158q49 0 147.5 -15.5t147.5 -15.5q27 0 27 -29zM-841 -1153q0 35 -58 35q-20 0 -38 -6v-131q32 4 64 36.5t32 65.5z" />
    <glyph glyph-name="ecaron" horiz-adv-x="3803" 
d="M3654 0h-127v1202q0 58 -109 86q-76 17 -156 12q-88 -6 -153 -14q-60 -8 -143 -18q-13 -4 -23 -4h-12h-6q-25 4 -76 18q-74 18 -111 18q-57 0 -102 -69q-15 -25 -43 -86q-31 -70 -31 -88q0 -4 43 -19l164 -32q121 -33 121 -80v-684q0 -131 -258 -197q-178 -45 -365 -45
q-145 0 -207 14q-116 27 -157 119q-191 -133 -514 -133q-150 0 -238 59q-104 72 -104 213v951q0 88 -246 88q-74 0 -151 -18.5t-179 -57.5q-143 -55 -143 -92v-635q59 55 137 55q82 0 135 -59.5t53 -143.5q0 -159 -92 -259.5t-250 -100.5q-71 0 -94 76q-12 41 -12 137v950
q0 109 252 197q209 74 348 74q364 0 364 -234v-928q0 -149 220 -149q94 0 176 14q59 10 174 47q147 47 147 76v590q0 43 -131 72l-170 28q-41 13 -41 72q0 108 90 254q99 158 199 158q49 0 147.5 -15.5t147.5 -15.5q26 0 26 -27q0 -35 -28.5 -73.5t-61.5 -38.5q-20 0 -94 18
t-110 18q-60 0 -103 -69q-16 -25 -43 -86q-31 -70 -31 -88q0 -4 41 -19l164 -32q121 -33 121 -80v-654q0 -108 80 -135q39 -14 178 -14q316 0 467 102q33 23 33 35v590q0 43 -131 70q-86 16 -172 30q-41 13 -41 72q0 108 90 254q98 158 199 158q49 0 147 -17q74 -10 121 -14
q98 6 282 31q138 0 246 -45q142 -62 146 -183v-1206zM530 371q0 84 -71 84q-64 0 -131 -72v-260q202 24 202 248z" />
    <glyph glyph-name="Lacute" horiz-adv-x="1482" 
d="M1339 0h-127v1202q0 58 -108 86q-66 12 -129 12h-27q-45 -4 -83 -7t-70 -7q-56 -8 -146 -18q-71 0 -121 14q-73 18 -110 18q-56 0 -103 -71q-73 -121 -73 -174q0 -15 47 -15l81 -16l81 -16q118 -33 118 -82v-1498q0 -53 -28.5 -96t-74.5 -74t-104.5 -47t-117.5 -16h-41
q-137 0 -209 71q-22 -10 -56 -23.5t-79 -27.5q-92 -29 -131 -29q-74 0 -158 23q-112 31 -112 88v383q0 35 -86 35q-60 0 -142 -31l-77.5 -30.5l-69.5 -28.5q-20 -9 -20 -13v-37q20 7 45 7q59 0 116 -35q64 -37 64 -94q0 -76 -88 -170q-90 -97 -162 -97q-41 0 -74 29t-33 70
v372q0 52 232 142q123 39 209 39q33 0 102 -21q107 -31 107 -94v-377q0 -37 108 -37q109 0 238 51l16 7v161q-14 11 -100 27q-64 12 -64 57q0 49 62 140q61 86 108 86q43 0 129 -13q43 -6 75.5 -9t54 -6t33 -9t11.5 -23q0 -26 -35 -61t-63 -35q-17 0 -72 16q-55 17 -78 17
q-42 0 -77 -54q4 -6 75 -28q64 -21 64 -45v-221q0 -23 73 -41q31 -9 70 -9q47 0 90 13.5t76 34t52 44t19 44.5v1395q0 10 -11 19.5t-43 21.5t-91 26.5t-158 34.5q-41 11 -41 72q0 108 91 254q96 158 198 158q25 0 61.5 -4.5t86.5 -12.5q39 -6 69.5 -9t53.5 -5q100 6 286 31
q142 0 246 -45q141 -62 145 -183v-1206zM-841 -564q0 35 -58 35q-20 0 -38 -6v-131q32 4 64 36.5t32 65.5z" />
    <glyph glyph-name="lacute" horiz-adv-x="1486" 
d="M1339 0h-127v1202q0 58 -108 86q-66 12 -129 12h-27q-45 -4 -83 -7t-70 -7q-56 -8 -146 -18q-71 0 -121 14q-73 18 -110 18q-56 0 -103 -71q-73 -121 -73 -174q0 -15 47 -15l81 -16l81 -16q118 -33 118 -82v-2097q0 -53 -33.5 -97t-86 -75t-118 -47.5t-128.5 -16.5
q-64 0 -119 17.5t-90 56.5q-22 -10 -56 -23.5t-79 -27.5q-92 -29 -131 -29q-74 0 -158 23q-112 30 -112 88v383q0 35 -86 35q-60 0 -142 -31l-77.5 -31t-69.5 -29q-20 -8 -20 -12v-37q20 6 45 6q59 0 116 -34q64 -37 64 -95q0 -75 -88 -170q-90 -96 -162 -96q-41 0 -74 28.5
t-33 69.5v373q0 51 232 142q123 38 209 38q33 0 102 -20q107 -31 107 -94v-377q0 -37 108 -37q109 0 238 51l16 6v162q-14 10 -100 27q-64 12 -64 57q0 49 62 139q61 86 108 86q43 0 129 -12q43 -6 75.5 -9t54 -6t33 -9.5t11.5 -22.5q0 -27 -35 -61q-35 -35 -63 -35
q-17 0 -72 16q-55 17 -78 17q-42 0 -77 -54q4 -6 75 -28q64 -21 64 -45v-222q0 -22 73 -41q66 -16 94 -16l62 6q151 60 151 137v1995q0 10 -11 19.5t-43 21.5t-91 26.5t-158 34.5q-41 11 -41 72q0 108 91 254q96 158 198 158q25 0 61.5 -4.5t86.5 -12.5q39 -6 69.5 -9
t53.5 -5q100 6 286 31q142 0 246 -45q141 -62 145 -183v-1206zM-841 -1163q0 35 -58 35q-20 0 -38 -6v-131q32 4 64 36.5t32 65.5z" />
    <glyph glyph-name="Lcaron" horiz-adv-x="3803" 
d="M3654 0h-127v1206q-6 54 -109 82q-65 12 -129 12h-27q-45 -4 -82.5 -7t-70.5 -7l-66 -9t-77 -9q-17 -4 -23 -4h-18q-23 2 -76 18q-74 18 -111 18q-57 0 -102 -69q-17 -25 -43 -86q-31 -72 -31 -88q0 -4 43 -19l164 -32q121 -35 121 -80v-684q0 -133 -258 -197
q-174 -45 -365 -45q-149 0 -207 14q-118 29 -157 119q-193 -133 -514 -133q-148 0 -238 59q-104 70 -104 213v951q0 88 -246 88q-74 0 -150 -18.5t-180 -57.5q-143 -55 -143 -92v-635q57 55 137 55q82 0 135 -58.5t53 -144.5q0 -79 -23.5 -146t-68.5 -114t-107.5 -73.5
t-142.5 -26.5q-73 0 -94 76q-12 39 -12 137v950q0 107 252 197q209 74 348 74q364 0 364 -234v-928q0 -149 220 -149q98 0 176 14q55 8 174 47q147 45 147 76v590q0 45 -131 72q-43 8 -86 14t-84 14q-41 13 -41 72q0 108 90 254q99 158 199 158q25 0 61.5 -4.5t85.5 -12.5
q50 -8 86.5 -11t61.5 -3q26 0 26 -27q0 -18 -8 -37.5t-20 -36t-28.5 -27.5t-33.5 -11q-20 0 -94 18t-110 18q-60 0 -103 -69q-16 -25 -43 -86q-31 -72 -31 -88q0 -2 41 -19l164 -32q121 -35 121 -80v-654q0 -108 80 -135q37 -14 178 -14q316 0 467 102q33 21 33 35v590
q0 10 -11.5 20.5t-43 21.5t-91 25.5t-157.5 32.5q-41 13 -41 72q0 108 90 254q98 158 199 158q24 0 61 -4.5t86 -12.5q37 -4 67.5 -8t53.5 -6q98 6 282 31q142 0 246 -45l19 -9v439q0 32 -189 98q-186 63 -186 96q0 127 72 127h4q0 -39 108 -86l205 -80q113 -51 113 -102
v-1872zM530 371q0 84 -71 84q-64 0 -131 -72v-260q202 24 202 248z" />
    <glyph glyph-name="lcaron" horiz-adv-x="1482" 
d="M569 -552q0 -14 -2 -20q0 -14 -2 -20q-12 -37 -25.5 -59.5t-33.5 -39.5q-53 -53 -107.5 -72.5t-132.5 -35.5q-8 -2 -15 -3t-18 -3h-30q-137 0 -209 71q-22 -10 -56 -23.5t-79 -27.5q-92 -29 -131 -29q-74 0 -158 23q-112 31 -112 88v383q0 35 -86 35q-60 0 -142 -31
l-77.5 -30.5l-69.5 -28.5q-20 -9 -20 -13v-37q20 7 45 7q59 0 116 -35q64 -37 64 -94q0 -76 -88 -170q-90 -97 -162 -97q-41 0 -74 29t-33 70v372q0 52 232 142q123 39 209 39q33 0 102 -21q107 -31 107 -94v-377q0 -37 108 -37q109 0 238 51l16 7v161q-14 11 -100 27
q-64 12 -64 57q0 49 62 140q61 86 108 86q43 0 129 -13q43 -8 74.5 -11t54.5 -3q45 0 45 -33q0 -26 -35 -61t-63 -35q-17 0 -72 16q-55 17 -78 17q-42 0 -77 -54q4 -6 75 -28q64 -21 64 -45v-221q0 -23 73 -41q66 -17 94 -17q113 37 157 64.5t54 60.5v4q2 2 2 6v1404
q0 10 -11 19.5t-43 21.5t-91 26.5t-158 34.5q-41 11 -41 72q0 108 91 254q96 158 198 158q25 0 61.5 -4.5t86.5 -12.5q39 -6 69.5 -9t53.5 -5q100 6 286 31q142 0 246 -45l18 -9v439q0 32 -188 98q-186 63 -186 96q0 127 71 127h4q0 -39 109 -86l205 -80q112 -51 112 -102
v-1872h-127v1202q0 58 -108 86q-66 12 -129 12h-27q-45 -4 -83 -7t-70 -7q-56 -8 -146 -18q-12 -4 -16 -4h-23q-28 2 -82 18q-73 18 -110 18q-56 0 -103 -71q-73 -121 -73 -174q0 -15 47 -15l81 -16l81 -16q118 -33 118 -82v-1478zM-841 -564q0 35 -58 35q-20 0 -38 -6v-131
q32 4 64 36.5t32 65.5z" />
    <glyph glyph-name="Ldot" horiz-adv-x="1486" 
d="M1339 0h-127v1202q0 58 -108 86q-66 12 -129 12h-27q-45 -4 -83 -7t-70 -7q-56 -8 -146 -18q-12 -4 -16 -4h-23q-28 2 -82 18q-73 18 -110 18q-56 0 -103 -71q-73 -121 -73 -174q0 -15 47 -15l81 -16l81 -16q118 -33 118 -82v-2091q-4 -55 -38.5 -99t-87 -75t-116 -47.5
t-126.5 -16.5q-62 0 -117 17.5t-90 52.5q-22 -10 -56 -23.5t-79 -27.5q-92 -29 -131 -29q-74 0 -158 23q-112 30 -112 88v383q0 35 -86 35q-60 0 -142 -31l-77.5 -31t-69.5 -29q-20 -8 -20 -12v-37q20 6 45 6q59 0 116 -34q64 -37 64 -95q0 -75 -88 -170q-90 -96 -162 -96
q-41 0 -74 28.5t-33 69.5v373q0 51 232 142q123 38 209 38q33 0 102 -20q107 -31 107 -94v-377q0 -37 108 -37q109 0 238 51l16 6v162q-14 10 -100 27q-64 12 -64 57q0 49 62 139q61 86 108 86q43 0 129 -12q43 -6 75.5 -9t54 -6t33 -9.5t11.5 -22.5q0 -27 -35 -61
q-35 -35 -63 -35q-17 0 -72 16q-55 17 -78 17q-42 0 -77 -54q4 -6 75 -28q64 -21 64 -45v-222q0 -22 73 -41q31 -8 64 -8q49 0 93 14.5t78 35t53 44t19 41.5v1995q0 10 -11 19.5t-43 21.5t-91 26.5t-158 34.5q-41 11 -41 72q0 108 91 254q96 158 198 158q25 0 61.5 -4.5
t86.5 -12.5q39 -6 69.5 -9t53.5 -5q100 6 286 31q142 0 246 -45l18 -9v439q0 32 -188 98q-186 63 -186 96q0 127 71 127h4q0 -39 109 -86l205 -80q112 -51 112 -102v-1872zM-841 -1163q0 35 -58 35q-20 0 -38 -6v-131q32 4 64 36.5t32 65.5z" />
    <glyph glyph-name="ldot" unicode="&#x1789;" horiz-adv-x="2068" 
d="M1898 -2h-122v1202q0 57 -105 88q-80 23 -158 23q-65 0 -140 -10.5t-163 -30.5q7 -31 7 -64v-1208h-123v1216q0 97 -125 97q-74 0 -193 -92q-117 -93 -145 -93q-21 0 -76 93q-55 92 -98 92q-64 0 -96.5 -50.5t-32.5 -117.5v-637q57 55 137 55q82 0 135 -58.5t53 -144.5
q0 -79 -23.5 -146t-67.5 -114t-107.5 -73.5t-143.5 -26.5q-73 0 -94 76q-12 39 -12 137v979q0 108 98 180q84 64 203 64q43 0 96 -72t55 -72q238 144 342 144q82 0 142 -50q174 50 372 50q134 0 244 -48q141 -61 141 -182v-1206zM1896 -473q0 -186 -178 -284
q-145 -78 -346 -78q-127 0 -293 82q-28 14 -94.5 52l-171.5 101q-137 82 -190 82q-43 0 -95 -24q-53 -25 -77 -25q-23 0 -23 21q0 4 4 16q39 135 213 135q72 0 209 -82l254 -153q76 -45 142.5 -63.5t121.5 -18.5q148 0 258 47q146 61 146 194q0 162 -115 162q-37 0 -64 -18
q-34 -23 -34 -53q0 -25 30 -58q33 -33 33 -55q0 -35 -53 -35q-60 0 -97.5 48t-37.5 108q0 78 73 137q66 51 150 51q119 0 182 -88q53 -78 53 -201zM530 369q0 84 -71 84q-60 0 -131 -72v-260q202 24 202 248z" />
    <glyph glyph-name="Nacute" horiz-adv-x="2068" 
d="M1898 -2h-122v1202q0 57 -105 88q-80 23 -158 23q-65 0 -140 -10.5t-163 -30.5q7 -31 7 -64v-1208h-123v1216q0 97 -125 97q-74 0 -193 -92q-117 -93 -145 -93q-21 0 -76 93q-55 92 -98 92q-64 0 -96.5 -50.5t-32.5 -117.5v-637q57 55 137 55q82 0 135 -58.5t53 -144.5
q0 -79 -23.5 -146t-67.5 -114t-107.5 -73.5t-143.5 -26.5q-73 0 -94 76q-12 39 -12 137v979q0 108 98 180q84 64 203 64q43 0 96 -72t55 -72q238 144 342 144q82 0 142 -50q174 50 372 50q134 0 244 -48q141 -61 141 -182v-1206zM530 369q0 84 -71 84q-60 0 -131 -72v-260
q202 24 202 248z" />
    <glyph glyph-name="nacute" 
d="M-145 -488q0 -274 -346 -274q-139 0 -489 184q-97 49 -134 49q-41 0 -92 -24q-53 -25 -78 -25q-22 0 -22 21q0 67 78 110q63 39 139 39q59 0 272 -117q211 -116 353 -116q96 0 143 30q55 37 55 127q0 162 -114 162q-35 0 -67 -19.5t-32 -52.5q0 -24 31 -57q31 -35 31 -55
q0 -35 -51 -35q-60 0 -99 48t-39 108q0 79 72 133q72 53 154 53q118 0 180 -88q55 -78 55 -201z" />
    <glyph glyph-name="Ncaron" 
d="M-145 -1086q0 -274 -346 -274q-139 0 -489 184q-97 49 -134 49q-41 0 -92 -25q-53 -24 -78 -24q-22 0 -22 20q0 68 78 111q63 39 139 39q59 0 272 -117q211 -117 353 -117q96 0 143 31q55 37 55 127q0 162 -114 162q-35 0 -67 -19.5t-32 -52.5q0 -24 31 -57
q31 -35 31 -55q0 -35 -51 -35q-60 0 -99 48t-39 107q0 80 72 134q72 53 154 53q118 0 180 -88q55 -78 55 -201z" />
    <glyph glyph-name="ncaron" 
d="M-104 -542h-123v291q0 20 -88 34q-65 15 -110 15q-68 0 -162 -19l-160 -32v-289h-123v286q0 54 -121 54q-73 0 -196 -49q-123 -50 -139 -50q-19 0 -113 50q-96 49 -156 49q-88 0 -88 -60v-55q10 2 21.5 3t21.5 1q70 0 127 -33q66 -34 66 -84q0 -53 -90 -118
q-93 -68 -164 -68q-41 0 -73 21.5t-32 52.5v278q0 154 238 154q72 0 151 -43q76 -43 101 -43q16 8 43.5 18.5l64.5 24.5q117 43 232 43q137 0 196 -53l89 16t90 18q98 19 186 19q121 0 201 -27q110 -37 110 -114v-291zM-94 -696q0 -92 -211 -135q-143 -29 -311 -29
q-201 0 -403 68q-267 88 -348 88q-43 0 -95 -18q-53 -19 -77 -19q-23 0 -23 17q0 49 78 83q67 31 139 31q55 0 152 -39q340 -135 616 -135q96 0 207 19q156 26 156 73q0 64 -99 64q-114 0 -114 -31l12 -47q0 -27 -53 -27q-64 0 -64 60q0 61 66 90q53 26 139 26
q117 0 168 -26q65 -31 65 -113zM-1562 -428q0 15 -30.5 23t-53.5 8q-10 0 -18.5 -1t-18.5 -3v-125q37 6 78 39q43 33 43 59z" />
    <glyph glyph-name="Odblacute" 
d="M-104 -1063h-123v285q0 20 -88 35q-65 14 -110 14q-68 0 -162 -18l-160 -33v-283h-123v283q0 51 -121 51q-71 0 -196 -47q-123 -49 -139 -49q-19 0 -113 49q-98 47 -156 47q-88 0 -88 -57v-56q10 2 21.5 3.5t21.5 1.5q68 0 127 -31q66 -37 66 -84q0 -51 -90 -117
q-95 -65 -164 -65q-41 0 -73 20.5t-32 50.5v273q0 151 238 151q72 0 151 -43q78 -41 101 -41q16 8 43.5 18.5l64.5 24.5q119 41 232 41q137 0 196 -53l179 37q49 10 95 13t91 3q121 0 201 -26q110 -37 110 -113v-285zM-94 -1216q0 -95 -211 -133q-143 -29 -311 -29
q-196 0 -403 65q-267 88 -348 88q-43 0 -95 -18q-53 -18 -77 -18q-23 0 -23 14q0 49 78 84q69 29 139 29q53 0 152 -37q344 -133 616 -133q96 0 207 18q156 27 156 74q0 59 -99 59q-114 0 -114 -29l12 -47q0 -24 -53 -24q-64 0 -64 59q0 60 66 88q55 25 139 25
q115 0 168 -25q65 -30 65 -110zM-1562 -950q0 14 -30.5 22.5t-53.5 8.5q-10 0 -18.5 -1t-18.5 -3v-123q37 6 78 39q43 32 43 57z" />
    <glyph glyph-name="odblacute" horiz-adv-x="2713" 
d="M2554 0h-127v1202q0 58 -109 88q-80 23 -155 23q-90 0 -154 -13l-125 -28q14 -29 14 -68v-1206h-122v1202q0 57 -105 88q-80 23 -158 23q-65 0 -140 -10.5t-163 -30.5q7 -31 7 -64v-1208h-123v1216q0 97 -125 97q-74 0 -193 -92q-117 -93 -145 -93q-21 0 -76 93
q-55 92 -98 92q-64 0 -96.5 -50.5t-32.5 -117.5v-637q57 55 137 55q82 0 135 -58.5t53 -144.5q0 -79 -23.5 -146t-67.5 -114t-107.5 -73.5t-143.5 -26.5q-73 0 -94 76q-12 39 -12 137v979q0 108 98 180q84 64 203 64q43 0 96 -72t55 -72q238 144 342 144q82 0 142 -50
q174 50 372 50q134 0 244 -48q10 -6 21 -10q186 58 385 58q141 0 245 -45q142 -62 146 -183v-1206zM1896 -473q0 -186 -178 -284q-145 -78 -346 -78q-127 0 -293 82q-28 14 -94.5 52l-171.5 101q-137 82 -190 82q-43 0 -95 -24q-53 -25 -77 -25q-23 0 -23 21q0 4 4 16
q39 135 213 135q72 0 209 -82l254 -153q76 -45 142.5 -63.5t121.5 -18.5q148 0 258 47q146 61 146 194q0 162 -115 162q-37 0 -64 -18q-34 -23 -34 -53q0 -25 30 -58q33 -33 33 -55q0 -35 -53 -35q-60 0 -97.5 48t-37.5 108q0 78 73 137q66 51 150 51q119 0 182 -88
q53 -78 53 -201zM530 369q0 84 -71 84q-60 0 -131 -72v-260q202 24 202 248z" />
    <glyph glyph-name="Racute" horiz-adv-x="2713" 
d="M2554 0h-127v1202q0 58 -109 88q-75 23 -155 23q-88 0 -154 -13l-125 -28q14 -31 14 -68v-1206h-122v1202q0 57 -105 88q-76 23 -158 23q-129 0 -303 -41q7 -31 7 -64v-1208h-123v1216q0 97 -125 97q-74 0 -192 -92.5t-146 -92.5q-21 0 -76 92.5t-98 92.5
q-64 0 -96.5 -50.5t-32.5 -117.5v-637q59 55 137 55q82 0 135 -59.5t53 -143.5q0 -159 -91 -259.5t-251 -100.5q-71 0 -94 76q-12 41 -12 137v979q0 110 98 180q86 64 203 64q45 0 96 -72t55 -72q240 144 342 144q84 0 142 -50q176 50 372 50q138 0 244 -48q10 -6 21 -10
q190 58 385 58q137 0 245 -45q142 -62 146 -183v-1206zM530 369q0 84 -71 84q-60 0 -131 -72v-260q202 24 202 248z" />
    <glyph glyph-name="racute" horiz-adv-x="2713" 
d="M2554 0h-127v1206q-6 54 -109 84q-80 23 -155 23q-23 0 -45.5 -1t-53 -5t-73.5 -12.5t-107 -22.5q14 -29 14 -68v-1206h-122v1202q0 57 -105 88q-80 23 -158 23q-65 0 -140 -10.5t-163 -30.5q7 -31 7 -64v-1208h-123v1216q0 97 -125 97q-74 0 -193 -92q-117 -93 -145 -93
q-21 0 -76 93q-55 92 -98 92q-64 0 -96.5 -50.5t-32.5 -117.5v-637q57 55 137 55q82 0 135 -58.5t53 -144.5q0 -79 -23.5 -146t-67.5 -114t-107.5 -73.5t-143.5 -26.5q-73 0 -94 76q-12 39 -12 137v979q0 108 98 180q84 64 203 64q43 0 96 -72t55 -72q238 144 342 144
q82 0 142 -50q174 50 372 50q134 0 244 -48q10 -6 21 -10q186 58 385 58q141 0 245 -45l19 -9v439q0 32 -189 98q-186 63 -186 96q0 60 17.5 92.5t27.5 32.5q4 0 4 -6q0 -8 34 -24.5t84 -37l108.5 -44t108.5 -50t84 -53.5t34 -51v-1872zM1896 -453q0 -186 -178 -284
q-145 -78 -346 -78q-127 0 -293 82q-28 14 -94.5 52l-171.5 101q-137 82 -190 82q-43 0 -95 -24q-53 -25 -77 -25q-23 0 -23 21q0 4 4 16q39 135 213 135q72 0 209 -82l254 -153q76 -45 142.5 -63.5t121.5 -18.5q148 0 258 47q146 61 146 194q0 162 -115 162q-37 0 -64 -18
q-34 -23 -34 -53q0 -25 30 -58q33 -33 33 -55q0 -35 -53 -35q-60 0 -97.5 48t-37.5 108q0 78 73 137q66 51 150 51q119 0 182 -88q53 -78 53 -201zM530 369q0 84 -71 84q-60 0 -131 -72v-260q202 24 202 248z" />
    <glyph glyph-name="Rcaron" horiz-adv-x="2713" 
d="M2554 0h-127v1206q-6 54 -109 84q-80 23 -155 23q-23 0 -45.5 -1t-53 -5t-73.5 -12.5t-107 -22.5q14 -29 14 -68v-1206h-122v1202q0 57 -105 88q-80 23 -158 23q-65 0 -140 -10.5t-163 -30.5q7 -31 7 -64v-1208h-123v1216q0 97 -125 97q-74 0 -193 -92q-117 -93 -145 -93
q-21 0 -76 93q-55 92 -98 92q-64 0 -96.5 -50.5t-32.5 -117.5v-637q57 55 137 55q82 0 135 -58.5t53 -144.5q0 -79 -23.5 -146t-67.5 -114t-107.5 -73.5t-143.5 -26.5q-73 0 -94 76q-12 39 -12 137v979q0 108 98 180q84 64 203 64q43 0 96 -72t55 -72q238 144 342 144
q82 0 142 -50q174 50 372 50q134 0 244 -48q10 -6 21 -10q186 58 385 58q141 0 245 -45l19 -9v439q0 32 -189 98q-186 63 -186 96q0 127 72 127h4q0 -10 10 -21.5t43 -29.5t94.5 -46l163.5 -71q115 -49 115 -100v-1872zM530 369q0 84 -71 84q-60 0 -131 -72v-260
q202 24 202 248z" />
    <glyph glyph-name="rcaron" unicode="&#x178a;" horiz-adv-x="1372" 
d="M1208 74q0 -74 -71 -74q-88 0 -306 131q-215 129 -239 129q-6 0 -143 -131q-136 -129 -201 -129q-43 0 -43 70v804l123 -69v-617h2q6 0 108 97q101 98 150 98q65 0 260 -121q194 -121 223 -121q14 0 14 9v733q0 57 -43 135q-157 -107 -346 -107q-491 0 -491 244
q0 115 110 201q103 78 220 78q319 0 526 -220q24 39 24 74q0 121 -346 203q-161 39 -161 170q0 31 29.5 54.5t62.5 23.5q37 0 41 -43q6 -56 55 -76q20 -4 50 -13.5l69 -21.5q323 -98 323 -297q0 -96 -65 -180q65 -107 65 -184v-850zM965 1126q-166 185 -430 185
q-72 0 -138 -41q-69 -45 -69 -117q0 -119 362 -119q129 0 275 92z" />
    <glyph glyph-name="Sacute" 
d="M-184 -793h-123v496q0 21 -108 33q-84 12 -133 12q-88 0 -228 -28q-135 -24 -225 -63q-25 -12 -25 -14v-39q25 6 48 6q59 0 118 -32q68 -39 68 -100q0 -77 -88 -173q-88 -102 -162 -102q-41 0 -73.5 29.5t-32.5 72.5v384q0 80 266 138q209 46 334 46q108 0 206 -17
q158 -33 158 -99v-550zM-915 -527q0 41 -68 41q-26 0 -43 -10v-152q19 3 38.5 16t36 29t26.5 35.5t10 40.5z" />
    <glyph glyph-name="sacute" 
d="M-184 -1408h-123v472q0 20 -108 32l-74 7t-59 3q-93 0 -228 -24q-133 -26 -225 -61q-25 -12 -25 -14v-36q25 6 48 6q61 0 118 -32q68 -36 68 -94q0 -72 -88 -166q-90 -95 -162 -95q-41 0 -73.5 27.5t-32.5 67.5v367q0 75 266 131q205 44 334 44q108 0 206 -17
q158 -31 158 -93v-525zM-915 -1165q0 35 -68 35q-26 0 -43 -8v-127q19 2 38.5 11.5t36 24t26.5 32t10 32.5z" />
    <glyph glyph-name="Tcedilla" horiz-adv-x="2045" 
d="M1896 0h-127v1202q0 58 -108 88q-80 23 -156 23q-22 0 -44.5 -1t-55.5 -6.5t-80 -14.5l-117 -23q-10 -92 -65 -160q65 -107 65 -184v-850q0 -74 -71 -74q-88 0 -306 131q-215 129 -239 129q-6 0 -143 -131q-136 -129 -201 -129q-43 0 -43 70v804l123 -69v-617h2
q6 0 108 97q101 98 150 98q65 0 260 -121q194 -121 223 -121q14 0 14 9v733q0 57 -43 135q-157 -107 -346 -107q-491 0 -491 244q0 115 110 201q103 78 220 78q319 0 526 -220q24 39 24 74q0 142 -346 223q-161 39 -161 170q0 31 29.5 54.5t62.5 23.5q37 0 41 -43
q6 -55 55 -76q20 -4 50 -13l69 -21q237 -74 301 -211q153 39 319 39q142 0 246 -45q141 -62 145 -183v-1206zM965 1126q-166 185 -430 185q-72 0 -138 -41q-69 -45 -69 -117q0 -119 362 -119q129 0 275 92z" />
    <glyph glyph-name="tcedilla" horiz-adv-x="2045" 
d="M1896 0h-127v1202q0 58 -108 88q-80 23 -156 23q-22 0 -44.5 -1t-55.5 -6.5t-80 -14.5l-117 -23q-10 -92 -65 -160q65 -107 65 -184v-850q0 -74 -71 -74q-88 0 -306 131q-215 129 -239 129q-6 0 -143 -131q-136 -129 -201 -129q-43 0 -43 70v804l123 -69v-617h2
q6 0 108 97q101 98 150 98q65 0 260 -121q194 -121 223 -121q14 0 14 9v733q0 57 -43 135q-157 -107 -346 -107q-491 0 -491 244q0 115 110 201q103 78 220 78q319 0 526 -220q24 39 24 74q0 142 -346 223q-161 39 -161 170q0 31 29.5 54.5t62.5 23.5q37 0 41 -43
q6 -55 55 -76q20 -4 50 -13l69 -21q237 -74 301 -211q153 39 319 39q142 0 246 -45l18 -9v439q0 32 -188 98q-186 63 -186 96q0 127 71 127h4q0 -10 10.5 -21.5t43 -29.5t94 -46t164.5 -71q114 -49 114 -100v-1872zM965 1126q-166 185 -430 185q-72 0 -138 -41
q-69 -45 -69 -117q0 -119 362 -119q129 0 275 92z" />
    <glyph glyph-name="Tcaron" unicode="&#x178b;" horiz-adv-x="1546" 
d="M1477 1423q0 -55 -36 -99t-89 -44q-13 0 -30 3t-35.5 7t-36 7t-27.5 3q-93 0 -150 -180q-18 -55 -18 -59q0 -2 22 -12l185 -48q61 -16 90.5 -35.5t29.5 -37.5v-668q0 -133 -258 -207q-190 -53 -364 -53q-148 0 -236 55q-106 68 -106 205v674q-12 -53 -70 -80
q-53 -25 -127 -25q-119 0 -119 107q0 143 64.5 266t183.5 193q72 41 123 41q53 0 66 -64q2 -10 2 -108v-1000q0 -76 75 -112q62 -29 144 -29q311 0 467 119q33 24 33 39v571q0 37 -134 66q-43 10 -86 18l-86 16q-41 11 -41 72q0 109 91 254q98 158 198 158q25 0 66 -15
q43 -12 63 -12q15 0 19 18q-17 9 -78 76q-98 107 -98 152q0 24 7 47.5t21.5 43t32.5 32t41 12.5q22 0 22 -39l-6 -68q0 -16 6 -22l129 -154q54 -73 54 -84v-2h-2zM418 1276q-68 -8 -133 -123q-60 -106 -60 -180q0 -31 31 -31q35 0 158 51q0 -8 4 -24v307z" />
    <glyph glyph-name="tcaron" 
d="M-98 -274h-86v-412q0 -22 -22 -22h-136q-22 0 -86.5 99.5t-103.5 99.5q-53 0 -94 -62q-21 -31 -55 -123q-31 -80 -51.5 -101.5t-96.5 -21.5q-170 0 -274 84q-113 90 -113 262q0 142 57 224q68 98 197 98h655v57h123v-57h86v-125zM-307 -565v291h-620q-166 0 -166 -182
q0 -105 54 -170.5t153 -65.5q69 0 84 23l43 98q47 92 88 131q57 55 139 55q78 0 133 -61z" />
    <glyph glyph-name="Uring" 
d="M-98 -889h-86v-397q0 -22 -22 -22h-136q-22 0 -86.5 96t-103.5 96q-53 0 -94 -59q-21 -31 -55 -119q-31 -78 -51.5 -98.5t-96.5 -20.5q-170 0 -274 80q-113 88 -113 254q0 137 57 217q68 94 197 94h655v58h123v-58h86v-121zM-307 -1169v280h-620q-166 0 -166 -176
q0 -100 54 -163.5t153 -63.5q69 0 84 20l43 97q47 88 88 127q57 53 139 53q78 0 133 -59z" />
    <glyph glyph-name="uring" horiz-adv-x="2250" 
d="M2101 0h-127v1202q0 58 -108 88q-76 23 -156 23q-88 0 -154 -6q-65 -7 -172 -23q-16 -4 -32 -4q-23 0 -66 10t-63 10q-90 0 -150 -180q-18 -55 -18 -59t22 -12q13 -2 25 -7l160 -41q120 -36 120 -73v-668q0 -133 -258 -207q-186 -53 -364 -53q-146 0 -236 57
q-106 66 -106 203v682q-6 -57 -70 -88q-51 -25 -127 -25q-119 0 -119 107q0 143 64.5 266t183.5 193q70 41 123 41t66 -64q2 -14 2 -108v-1000q0 -76 75 -112q60 -29 144 -29q309 0 467 119q33 24 33 39v571q0 37 -134 68l-172 32q-41 11 -41 72q0 109 91 254
q98 158 198 158q23 0 66 -13.5t63 -13.5q19 0 51 -25v27h9q-15 31 -58 82q-78 96 -78 141q0 47 29 91t74 44q22 0 22 -38q0 -11 -3 -33.5t-3 -34.5q0 -16 6 -23l88 -133q45 -63 35 -82q90 9 207 9q137 0 246 -45q141 -62 145 -183v-1206zM418 1276q-70 -10 -133 -123
q-60 -104 -60 -180q0 -31 31 -31t158 51q2 -10 4 -28v311z" />
    <glyph glyph-name="Udblacute" horiz-adv-x="2250" 
d="M2101 0h-127v1202q0 58 -108 88q-76 23 -156 23q-88 0 -154 -6q-65 -7 -172 -23q-16 -4 -32 -4q-23 0 -66 10t-63 10q-90 0 -150 -180q-18 -55 -18 -59t22 -12q13 -2 25 -7l160 -41q120 -36 120 -73v-668q0 -133 -258 -207q-186 -53 -364 -53q-146 0 -236 57
q-106 66 -106 203v682q-6 -57 -70 -88q-51 -25 -127 -25q-119 0 -119 107q0 143 64.5 266t183.5 193q70 41 123 41t66 -64q2 -14 2 -108v-1000q0 -76 75 -112q60 -29 144 -29q309 0 467 119q33 24 33 39v571q0 37 -134 68l-172 32q-41 11 -41 72q0 109 91 254
q98 158 198 158q23 0 66 -13.5t63 -13.5q10 0 15 -14q-13 49 -54 108q-57 86 -57 131q0 47 28.5 91t73.5 44q23 0 23 -38q0 -11 -3 -33.5t-3 -34.5q0 -16 6 -23q108 -124 129 -153q-12 -55 -12 -64q98 11 233 11q137 0 246 -45l18 -9v439q0 34 -187.5 97.5t-187.5 96.5
q0 129 76 127q0 -41 109 -86l205 -80q112 -51 112 -102v-664v-2v-1206zM418 1276q-70 -10 -133 -123q-60 -104 -60 -180q0 -31 31 -31t158 51q2 -10 4 -28v311z" />
    <glyph glyph-name="udblacute" unicode="&#x178c;" horiz-adv-x="1392" 
d="M1264 598q0 -27 -25 -68v-528q-12 -26 -58 -49.5t-79 -23.5q-23 0 -23 22q0 13 18.5 28t18.5 29v254q-219 -262 -491 -262q-174 0 -303 100q-142 107 -142 277q0 104 242 196q428 164 452 175q242 129 242 319q0 244 -137 244q-72 0 -147.5 -86t-98.5 -86q-31 0 -127 86
t-149 86q-154 0 -154 -205q0 -86 23 -152q30 -92 96 -92q31 0 62.5 20.5t31.5 49.5q0 18 -16.5 53t-16.5 51q0 41 58 41q45 0 71 -51q23 -43 23 -92q0 -84 -68.5 -134t-156.5 -50q-119 0 -181 122q-49 97 -49 228q0 334 293 334q90 0 165 -73t95 -73q23 25 72 72
q82 74 199 74q120 0 184 -131q51 -105 51 -238q0 -172 -137 -297q-103 -92 -307 -178l-326 -127q-158 -70 -158 -107q0 -114 117 -182q98 -57 223 -57q84 0 146 28q149 70 225 179q59 84 117 260q61 41 96 41q29 0 29 -27z" />
    <glyph glyph-name="Zacute" 
d="M-184 -716q0 -37 -50 -69t-93 -32q-35 0 -35 21q0 14 27.5 39.5t27.5 42.5v119q-96 -86 -252 -134q-143 -45 -288 -45q-117 0 -205 35q-115 45 -115 137q0 95 170 140l260 45q312 57 387 137q19 18 19 35q0 35 -80 35q-76 0 -135 -35q-31 -17 -84 -62q-37 -35 -60 -35
q-24 0 -82.5 65t-124.5 65q-47 0 -90 -17q-57 -18 -57 -53q0 -31 53 -31q25 0 40.5 10.5t25.5 10.5q45 0 45 -58q0 -63 -133 -63q-70 0 -112 34.5t-42 96.5q0 88 98 133q78 37 187 37q80 0 139 -47t64 -47q18 16 57 47q70 47 209 47q219 0 219 -141q0 -76 -168 -156
q-125 -59 -244 -86q-92 -17 -274 -47l-90 -21q-74 -18 -74 -35q0 -38 90 -59q64 -12 131 -12q164 0 305 71q90 48 193 140q84 73 104 73q37 0 37 -36v-295z" />
    <glyph glyph-name="zacute" 
d="M-184 -1325q0 -35 -50 -65.5t-93 -30.5q-35 0 -35 20q0 12 27.5 38t27.5 40v117q-96 -84 -252 -129q-143 -45 -288 -45q-117 0 -205 34q-115 44 -115 132q0 92 170 135l260 43q312 57 387 133q19 16 19 33q0 34 -80 34q-76 0 -135 -32q-31 -17 -84 -62q-37 -33 -60 -33
q-24 0 -82.5 62.5t-124.5 62.5q-47 0 -90 -16q-57 -18 -57 -51q0 -29 53 -29q25 0 40.5 9.5t25.5 9.5q45 0 45 -56q0 -61 -133 -61q-70 0 -112 33.5t-42 93.5q0 84 98 127q78 37 187 37q80 0 139 -45t64 -45q18 16 57 45q70 45 209 45q219 0 219 -138q0 -71 -168 -149
q-125 -57 -244 -82q-92 -16 -274 -45q-45 -12 -90 -21q-74 -18 -74 -34q0 -37 90 -58q64 -12 131 -12q164 0 305 72q90 43 193 133q84 69 104 69q37 0 37 -34v-285z" />
    <glyph glyph-name="Zdot" horiz-adv-x="2048" 
d="M1896 0h-127v1202q0 58 -108 88q-76 23 -156 23q-88 0 -153 -13l-144 -32q-4 6 -12 14q43 -98 43 -217q0 -172 -137 -297q-103 -92 -307 -178l-326 -127q-158 -70 -158 -107q0 -114 117 -182q98 -57 223 -57q84 0 146 28q149 70 225 179q59 84 117 260q61 41 96 41
q29 0 29 -27t-25 -68v-528q-12 -26 -58 -49.5t-79 -23.5q-23 0 -23 22q0 13 18.5 28t18.5 29v254q-219 -262 -491 -262q-174 0 -303 100q-142 107 -142 277q0 104 242 196q428 164 452 175q242 129 242 319q0 244 -137 244q-72 0 -147.5 -86t-98.5 -86q-31 0 -127 86
t-149 86q-154 0 -154 -205q0 -86 23 -152q30 -92 96 -92q31 0 62.5 20.5t31.5 49.5q0 18 -16.5 53t-16.5 51q0 41 58 41q45 0 71 -51q23 -43 23 -92q0 -84 -68.5 -134t-156.5 -50q-119 0 -181 122q-49 97 -49 228q0 334 293 334q90 0 165 -73t95 -73q23 25 72 72
q82 74 199 74q75 0 129 -54q184 54 372 54q137 0 246 -45q141 -62 145 -183v-1206z" />
    <glyph glyph-name="zdot" horiz-adv-x="2048" 
d="M1896 0h-127v1202q0 58 -108 88q-76 23 -156 23q-88 0 -153 -13l-144 -32q-4 6 -12 14q43 -98 43 -217q0 -172 -137 -297q-103 -92 -307 -178l-326 -127q-158 -70 -158 -107q0 -114 117 -182q98 -57 223 -57q84 0 146 28q149 70 225 179q59 84 117 260q61 41 96 41
q29 0 29 -27t-25 -68v-528q-12 -26 -58 -49.5t-79 -23.5q-23 0 -23 22q0 13 18.5 28t18.5 29v254q-219 -262 -491 -262q-174 0 -303 100q-142 107 -142 277q0 104 242 196q428 164 452 175q242 129 242 319q0 244 -137 244q-72 0 -147.5 -86t-98.5 -86q-31 0 -127 86
t-149 86q-154 0 -154 -205q0 -86 23 -152q30 -92 96 -92q31 0 62.5 20.5t31.5 49.5q0 18 -16.5 53t-16.5 51q0 41 58 41q45 0 71 -51q23 -43 23 -92q0 -84 -68.5 -134t-156.5 -50q-119 0 -181 122q-49 97 -49 228q0 334 293 334q90 0 165 -73t95 -73q23 25 72 72
q82 74 199 74q75 0 129 -54q184 54 372 54q137 0 246 -45l18 -9v439q0 34 -187 97.5t-187 96.5q0 129 75 127q0 -41 109 -86l205 -80q112 -51 112 -102v-664v-2v-1206z" />
    <glyph glyph-name="Gamma" unicode="&#x178d;" horiz-adv-x="2170" 
d="M2152 1374q0 -26 -27.5 -68t-51.5 -42q-37 0 -108 18t-107 18q-62 0 -105 -69q-16 -27 -43 -86q-31 -70 -31 -88q0 -10 43 -19q150 -28 164 -32q121 -33 121 -80v-684q0 -127 -158 -193q-118 -49 -268 -49q-84 0 -140.5 61.5t-56.5 145.5q39 26 39 127q0 92 -206 112
v-313q0 -70 -17 -96q-22 -37 -86 -37q-149 0 -211 94q-53 76 -53 234q0 182 244 219v667q0 97 -125 97q-72 0 -189.5 -92.5t-148.5 -92.5q-23 0 -77 92.5t-97 92.5q-64 0 -96.5 -50.5t-32.5 -117.5v-635q61 55 137 55q82 0 135 -59.5t53 -143.5q0 -159 -91 -259.5
t-251 -100.5q-106 0 -106 199v991q0 110 98 180q86 64 203 64q43 0 92 -72t59 -72q-2 0 121 72t221 72q97 0 157.5 -63.5t60.5 -164.5v-653q116 -6 208 -49q121 -58 121 -158q0 -102 -39 -143q0 -80 80 -80q297 0 297 147v580q0 41 -133 68l-170 32q-39 15 -39 72
q0 108 90 254q97 158 199 158q49 0 146.5 -15.5t148.5 -15.5q26 0 26 -29zM1094 123v315q-121 -26 -121 -110q0 -207 121 -205zM530 371q0 84 -71 84q-64 0 -131 -72v-260q202 22 202 248z" />
    <glyph glyph-name="Theta" horiz-adv-x="733" 
d="M713 1374q0 -26 -28 -68t-54 -42q-35 0 -105.5 18t-107.5 18q-58 0 -103 -71q-73 -119 -73 -174q0 -15 47 -15q82 -16 162 -34q118 -33 118 -80v-1564q0 -154 -422 -154q-75 0 -136.5 47t-61.5 121q53 80 53 139q0 60 -143 60l-18 -3v-249q0 -72 -49 -99
q-35 -18 -113 -18q-90 0 -157.5 78t-67.5 170q0 172 264 223v6q0 70 -100 70q-72 0 -169.5 -64.5t-111.5 -64.5q-18 0 -86 64.5t-121 64.5q-72 0 -94 -45q-12 -27 -12 -107q20 6 43 6q67 0 129.5 -45t62.5 -110q0 -72 -91 -159t-161 -87q-43 0 -74.5 28.5t-31.5 69.5v365
q0 86 78 149q71 58 159 58q72 0 135.5 -55.5t83.5 -55.5l86 55q93 56 209 56q187 0 189 -185h18q90 0 166 -22q106 -33 106 -99q0 -131 -49 -200q27 -47 96 -47q230 0 268 57v1468q0 41 -133 70l-170 32q-41 15 -41 70q0 110 91 256q96 158 198 158q49 0 146.5 -15.5
t148.5 -15.5q27 0 27 -29zM-282 -647v203q-141 -37 -141 -100q0 -47 30.5 -87t77.5 -40q33 0 33 24zM-856 -546q0 18 -29.5 30.5t-51.5 12.5q-21 0 -39 -6v-168q34 8 77 52t43 79z" />
    <glyph glyph-name="Phi" horiz-adv-x="733" 
d="M713 1374q0 -26 -28 -68t-54 -42q-35 0 -105.5 18t-107.5 18q-58 0 -103 -71q-73 -119 -73 -174q0 -15 47 -15q82 -16 162 -34q118 -33 118 -80v-2194q0 -153 -422 -153q-75 0 -136.5 47t-61.5 121q53 80 53 139t-143 59l-18 -2v-250q0 -71 -49 -98q-35 -18 -113 -18
q-90 0 -157.5 77.5t-67.5 169.5q0 173 264 224v6q0 69 -100 69q-72 0 -169.5 -64.5t-111.5 -64.5q-18 0 -86 64.5t-121 64.5q-72 0 -94 -45q-12 -26 -12 -106q20 6 43 6q67 0 129.5 -45t62.5 -111q0 -71 -91 -158t-161 -87q-43 0 -74.5 28.5t-31.5 69.5v365q0 86 78 149
q71 57 159 57q72 0 135.5 -55t83.5 -55l86 55q93 55 209 55q187 0 189 -184h18q90 0 166 -22q106 -33 106 -99q0 -131 -49 -200q27 -48 96 -48q230 0 268 58v2097q0 41 -133 70l-170 32q-41 15 -41 70q0 110 91 256q96 158 198 158q49 0 146.5 -15.5t148.5 -15.5
q27 0 27 -29zM-282 -1276v203q-141 -37 -141 -100q0 -48 30.5 -87.5t77.5 -39.5q33 0 33 24zM-856 -1176q0 19 -29.5 31t-51.5 12q-21 0 -39 -6v-168q34 9 77 53t43 78z" />
    <glyph glyph-name="alpha" horiz-adv-x="2916" 
d="M2773 0h-127v1202q0 58 -109 86q-75 17 -155 12q-88 -6 -154 -14q-57 -8 -139 -18q-8 -4 -16 -4h-21h-8v2q-33 4 -80 16q-70 18 -106 18q-62 0 -105 -69q-16 -27 -43 -86q-31 -70 -31 -88q0 -10 43 -19q150 -28 164 -32q121 -33 121 -80v-684q0 -127 -158 -193
q-118 -49 -268 -49q-84 0 -140.5 61.5t-56.5 145.5q39 26 39 127q0 92 -206 112v-313q0 -70 -17 -96q-22 -37 -86 -37q-149 0 -211 94q-53 76 -53 234q0 182 244 219v667q0 97 -125 97q-72 0 -189.5 -92.5t-148.5 -92.5q-23 0 -77 92.5t-97 92.5q-64 0 -96.5 -50.5
t-32.5 -117.5v-635q61 55 137 55q82 0 135 -59.5t53 -143.5q0 -159 -91 -259.5t-251 -100.5q-106 0 -106 199v991q0 110 98 180q86 64 203 64q43 0 92 -72t59 -72q-2 0 121 72t221 72q97 0 157.5 -63.5t60.5 -164.5v-653q116 -6 208 -49q121 -58 121 -158q0 -102 -39 -143
q0 -80 80 -80q297 0 297 147v580q0 41 -133 68l-170 32q-39 15 -39 72q0 108 90 254q97 158 199 158q49 0 145 -17q74 -10 121 -14q101 6 285 31q137 0 246 -45q141 -62 145 -183v-1206zM530 371q0 84 -71 84q-64 0 -131 -72v-260q202 22 202 248zM1094 123v315
q-121 -26 -121 -110q0 -207 121 -205z" />
    <glyph glyph-name="delta" horiz-adv-x="1486" 
d="M1339 0h-127v1202q0 58 -108 86q-76 17 -156 12q-88 -6 -153 -14q-60 -8 -148 -18q-8 -4 -16 -4h-17h-4q-32 4 -86 18q-69 18 -106 18q-58 0 -103 -71q-73 -119 -73 -174q0 -15 47 -15q82 -16 162 -34q118 -33 118 -80v-1564q0 -154 -422 -154q-75 0 -136.5 47t-61.5 121
q53 80 53 139q0 60 -143 60l-18 -3v-249q0 -72 -49 -99q-35 -18 -113 -18q-90 0 -157.5 78t-67.5 170q0 172 264 223v6q0 70 -100 70q-72 0 -169.5 -64.5t-111.5 -64.5q-18 0 -86 64.5t-121 64.5q-72 0 -94 -45q-12 -27 -12 -107q20 6 43 6q67 0 129.5 -45t62.5 -110
q0 -72 -91 -159t-161 -87q-43 0 -74.5 28.5t-31.5 69.5v365q0 86 78 149q71 58 159 58q72 0 135.5 -55.5t83.5 -55.5l86 55q93 56 209 56q187 0 189 -185h18q90 0 166 -22q106 -33 106 -99q0 -131 -49 -200q27 -47 96 -47q230 0 268 57v1468q0 41 -133 70l-170 32
q-41 15 -41 70q0 110 91 256q96 158 198 158q49 0 146 -17q75 -12 125 -14q98 6 286 31q137 0 246 -45q141 -62 145 -183v-1206zM-282 -647v203q-141 -37 -141 -100q0 -47 30.5 -87t77.5 -40q33 0 33 24zM-856 -546q0 18 -29.5 30.5t-51.5 12.5q-21 0 -39 -6v-168
q34 8 77 52t43 79z" />
    <glyph glyph-name="epsilon" horiz-adv-x="1486" 
d="M1339 0h-127v1202q0 58 -108 86q-76 17 -156 12q-88 -6 -153 -14q-60 -8 -148 -18q-8 -4 -16 -4h-17h-4q-32 4 -86 18q-69 18 -106 18q-58 0 -103 -71q-73 -119 -73 -174q0 -15 47 -15q82 -16 162 -34q118 -33 118 -80v-2184q0 -153 -422 -153q-75 0 -136.5 47t-61.5 121
q53 80 53 139t-143 59l-18 -2v-250q0 -71 -49 -98q-35 -18 -113 -18q-90 0 -157.5 77.5t-67.5 169.5q0 173 264 224v6q0 69 -100 69q-72 0 -169.5 -64.5t-111.5 -64.5q-18 0 -86 64.5t-121 64.5q-72 0 -94 -45q-12 -26 -12 -106q20 6 43 6q67 0 129.5 -45t62.5 -111
q0 -71 -91 -158t-161 -87q-43 0 -74.5 28.5t-31.5 69.5v365q0 86 78 149q71 57 159 57q72 0 135.5 -55t83.5 -55l86 55q93 55 209 55q187 0 189 -184h18q90 0 166 -22q106 -33 106 -99q0 -131 -49 -200q27 -48 96 -48q230 0 268 58v2087q0 41 -133 70l-170 32q-41 15 -41 70
q0 110 91 256q96 158 198 158q49 0 146 -17q75 -12 125 -14q98 6 286 31q137 0 246 -45q141 -62 145 -183v-1206zM-282 -1266v203q-141 -37 -141 -100q0 -48 30.5 -87.5t77.5 -39.5q33 0 33 24zM-856 -1166q0 19 -29.5 31t-51.5 12q-21 0 -39 -6v-168q34 9 77 53t43 78z" />
    <glyph glyph-name="sigma" horiz-adv-x="2916" 
d="M2773 0h-127v1202v4q-6 54 -109 82q-75 17 -155 12q-88 -6 -154 -14q-57 -8 -139 -18q-8 -4 -16 -4h-21h-8v2q-33 4 -80 16q-70 18 -106 18q-62 0 -105 -69q-16 -27 -43 -86q-31 -70 -31 -88q0 -10 43 -19q150 -28 164 -32q121 -33 121 -80v-684q0 -127 -158 -193
q-118 -49 -268 -49q-84 0 -140.5 61.5t-56.5 145.5q39 26 39 127q0 92 -206 112v-313q0 -70 -17 -96q-22 -37 -86 -37q-149 0 -211 94q-53 76 -53 234q0 182 244 219v667q0 97 -125 97q-72 0 -189.5 -92.5t-148.5 -92.5q-23 0 -77 92.5t-97 92.5q-64 0 -96.5 -50.5
t-32.5 -117.5v-635q61 55 137 55q82 0 135 -59.5t53 -143.5q0 -159 -91 -259.5t-251 -100.5q-106 0 -106 199v991q0 110 98 180q86 64 203 64q43 0 92 -72t59 -72q-2 0 121 72t221 72q97 0 157.5 -63.5t60.5 -164.5v-653q116 -6 208 -49q121 -58 121 -158q0 -102 -39 -143
q0 -80 80 -80q297 0 297 147v580q0 41 -133 68l-170 32q-39 15 -39 72q0 108 90 254q97 158 199 158q49 0 145 -17q74 -10 121 -14q101 6 285 31q137 0 246 -45l18 -9v439q0 34 -187.5 97.5t-187.5 96.5q0 129 76 127q0 -41 109 -86l204 -80q113 -51 113 -102v-664v-2v-1206
zM530 371q0 84 -71 84q-64 0 -131 -72v-260q202 22 202 248zM1094 123v315q-121 -26 -121 -110q0 -207 121 -205z" />
    <glyph glyph-name="tau" horiz-adv-x="1486" 
d="M1339 0h-127v1206q-6 54 -108 82q-76 17 -156 12q-88 -6 -153 -14q-60 -8 -148 -18q-8 -4 -16 -4h-17h-4q-32 4 -86 18q-69 18 -106 18q-58 0 -103 -71q-73 -119 -73 -174q0 -15 47 -15q82 -16 162 -34q118 -33 118 -80v-1585q0 -154 -422 -154q-75 0 -136.5 47.5
t-61.5 120.5q53 80 53 140q0 59 -143 59l-18 -2v-250q0 -72 -49 -98q-35 -19 -113 -19q-90 0 -157.5 78t-67.5 170q0 172 264 223v7q0 69 -100 69q-72 0 -169.5 -64.5t-111.5 -64.5q-18 0 -86 64.5t-121 64.5q-72 0 -94 -45q-12 -26 -12 -106q20 6 43 6q67 0 129.5 -45
t62.5 -111q0 -72 -91 -159t-161 -87q-43 0 -74.5 29t-31.5 70v364q0 86 78 150q71 57 159 57q72 0 135.5 -55.5t83.5 -55.5l86 56q93 55 209 55q187 0 189 -184h18q90 0 166 -23q106 -33 106 -98q0 -131 -49 -201q27 -47 96 -47q230 0 268 57v1489q0 41 -133 70l-170 32
q-41 15 -41 70q0 110 91 256q96 158 198 158q49 0 146 -17q75 -12 125 -14q98 6 286 31q137 0 246 -45l18 -9v439q0 34 -187 97.5t-187 96.5q0 129 75 127q0 -41 109 -86l205 -80q112 -51 112 -102v-660v-6v-1206zM-282 -647v203q-141 -37 -141 -100q0 -47 30.5 -87
t77.5 -40q33 0 33 24zM-856 -546q0 18 -29.5 30.5t-51.5 12.5q-21 0 -39 -6v-168q34 8 77 52t43 79z" />
    <glyph glyph-name="phi" horiz-adv-x="1486" 
d="M1339 0h-127v1206q-6 54 -108 82q-76 17 -156 12q-88 -6 -153 -14q-60 -8 -148 -18q-8 -4 -16 -4h-17h-4q-32 4 -86 18q-69 18 -106 18q-58 0 -103 -71q-73 -119 -73 -174q0 -15 47 -15q82 -16 162 -34q118 -33 118 -80v-2143q0 -154 -422 -154q-75 0 -136.5 47
t-61.5 121q53 80 53 139q0 60 -143 60l-18 -2v-250q0 -72 -49 -98q-35 -19 -113 -19q-90 0 -157.5 78t-67.5 170q0 172 264 223v6q0 70 -100 70q-72 0 -169.5 -64.5t-111.5 -64.5q-18 0 -86 64.5t-121 64.5q-72 0 -94 -45q-12 -27 -12 -107q20 7 43 7q67 0 129.5 -45.5
t62.5 -110.5q0 -72 -91 -159t-161 -87q-43 0 -74.5 28.5t-31.5 69.5v365q0 86 78 150q71 57 159 57q72 0 135.5 -55.5t83.5 -55.5l86 56q93 55 209 55q187 0 189 -184h18q90 0 166 -23q106 -33 106 -98q0 -131 -49 -201q27 -47 96 -47q230 0 268 57v2047q0 41 -133 70
l-170 32q-41 15 -41 70q0 110 91 256q96 158 198 158q49 0 146 -17q75 -12 125 -14q98 6 286 31q137 0 246 -45l18 -9v439q0 34 -187 97.5t-187 96.5q0 129 75 127q0 -41 109 -86l205 -80q112 -51 112 -102v-660v-6v-1206zM-282 -1225v202q-141 -37 -141 -100
q0 -47 30.5 -87t77.5 -40q33 0 33 25zM-856 -1125q0 18 -29.5 30.5t-51.5 12.5q-21 0 -39 -6v-168q34 8 77 52t43 79z" />
    <glyph glyph-name="underscoredbl" unicode="&#x178e;" horiz-adv-x="2560" 
d="M2376 0h-123v1184q0 127 -275 127q-90 0 -206 -23q-160 -33 -177 -86q54 -26 54 -57v-1079q0 -70 -56 -70q-65 0 -158.5 103.5t-117.5 103.5l-148 -121q-108 -84 -155 -84q-45 0 -45 61v1164q0 88 -244 88q-66 0 -131.5 -16.5t-151.5 -57.5q-114 -53 -114 -94v-635
q59 55 137 55q82 0 135 -59.5t53 -143.5q0 -159 -92 -259.5t-250 -100.5q-71 0 -94 76q-12 41 -12 137v950q0 113 213 199q176 72 311 72q363 0 363 -234l2 -1026q22 10 104 86q72 66 117 66q61 0 124.5 -80t80.5 -80q6 4 6 10v930q0 33 -76 68q0 43 35 90q127 170 493 170
q174 0 265 -37q133 -58 133 -205v-1192zM530 371q0 84 -71 84q-64 0 -131 -72v-260q202 24 202 248z" />
    <glyph glyph-name="exclamdbl" 
d="M100 -804h-122v512q0 57 -166 57q-68 0 -221.5 -35t-145.5 -65q10 -7 10 -29v-279q0 -163 -63 -163q-60 0 -256 135q-47 59 -60 59q-22 2 -92 -63q-127 -142 -182 -142q-57 0 -57 174v363q0 45 -160 45q-51 0 -225 -45q-166 -43 -166 -72v-73q41 14 88 14q151 0 151 -117
q0 -139 -104 -221q-80 -62 -154 -62q-41 0 -72.5 31t-31.5 76v371q0 104 229 170q187 53 285 53q129 0 186 -21q97 -38 97 -149v-371q8 2 73 70q78 98 117 98q59 0 111 -63l137 -107q18 -12 24 -12h2v299q0 29 -20 35q-6 14 -6 26q0 62 127 119q174 76 366 76q107 0 189 -33
q112 -45 112 -137v-524zM-1689 -546q0 20 -48 20q-34 0 -69 -14v-141q31 4 69 40q48 48 48 95z" />
    <glyph glyph-name="nsuperior" 
d="M100 -1383h-122v512q0 57 -166 57q-68 0 -221.5 -34.5t-145.5 -65.5q10 -6 10 -29v-278q0 -164 -63 -164q-60 0 -256 135q-47 59 -60 59q-22 2 -92 -63q-127 -141 -182 -141q-57 0 -57 174v362q0 45 -160 45q-51 0 -225 -45q-166 -43 -166 -71v-74q41 14 88 14
q151 0 151 -117q0 -139 -104 -221q-80 -61 -154 -61q-41 0 -72.5 30.5t-31.5 75.5v371q0 104 229 170q187 53 285 53q129 0 186 -20q97 -39 97 -150v-370q8 2 73 69q78 98 117 98q59 0 111 -63l137 -107q18 -12 24 -12q2 -2 2 0v299q0 29 -20 35q-6 14 -6 27q0 61 127 118
q174 76 366 76q107 0 189 -33q112 -45 112 -137v-524zM-1689 -1125q0 20 -48 20q-34 0 -69 -14v-141q31 4 69 41q48 47 48 94z" />
    <glyph glyph-name="peseta" horiz-adv-x="3172" 
d="M3052 0h-127v1202q0 58 -109 88q-76 23 -156 23q-88 0 -153 -13l-144 -32q13 -35 13 -76v-1192h-123v1184q0 127 -275 127q-90 0 -206 -23q-160 -33 -177 -86q54 -26 54 -57v-1079q0 -70 -56 -70q-65 0 -158.5 103.5t-117.5 103.5l-148 -121q-108 -84 -155 -84
q-45 0 -45 61v1164q0 88 -244 88q-66 0 -131.5 -16.5t-151.5 -57.5q-114 -53 -114 -94v-635q59 55 137 55q82 0 135 -59.5t53 -143.5q0 -159 -92 -259.5t-250 -100.5q-71 0 -94 76q-12 41 -12 137v950q0 113 213 199q176 72 311 72q363 0 363 -234l2 -1026q22 10 104 86
q72 66 117 66q61 0 124.5 -80t80.5 -80q6 4 6 10v930q0 33 -76 68q0 43 35 90q127 170 493 170q174 0 265 -37q18 -8 36 -21q189 58 381 58q138 0 246 -45q141 -62 146 -183v-1206zM530 371q0 84 -71 84q-64 0 -131 -72v-260q202 24 202 248z" />
    <glyph glyph-name="IJ" horiz-adv-x="3254" 
d="M3052 0h-127v1206q-7 54 -109 84q-76 23 -156 23q-88 0 -153 -13l-144 -32q13 -35 13 -76v-1192h-123v1184q0 127 -275 127q-90 0 -206 -23q-160 -33 -177 -86q54 -26 54 -57v-1079q0 -70 -56 -70q-65 0 -158.5 103.5t-117.5 103.5l-148 -121q-108 -84 -155 -84
q-45 0 -45 61v1164q0 88 -244 88q-66 0 -131.5 -16.5t-151.5 -57.5q-114 -53 -114 -94v-635q59 55 137 55q82 0 135 -59.5t53 -143.5q0 -159 -92 -259.5t-250 -100.5q-71 0 -94 76q-12 41 -12 137v950q0 113 213 199q176 72 311 72q363 0 363 -234l2 -1026q22 10 104 86
q72 66 117 66q61 0 124.5 -80t80.5 -80q6 4 6 10v930q0 33 -76 68q0 43 35 90q127 170 493 170q174 0 265 -37q18 -8 36 -21q189 58 381 58q138 0 246 -45l19 -9v439q0 34 -187.5 97.5t-187.5 96.5q0 129 76 127q0 -41 108 -86l205 -80q113 -51 113 -102v-660v-6v-1206z
M530 371q0 84 -71 84q-64 0 -131 -72v-260q202 24 202 248z" />
    <glyph glyph-name="ij" unicode="&#x178f;" horiz-adv-x="1331" 
d="M1264 1352q0 -76 -113 -76q-45 0 -124 19.5t-99 19.5q-29 0 -76 -51.5t-109 -51.5q-57 0 -173.5 50.5t-157.5 50.5q-27 0 -74 -50.5t-47 -78.5q2 -2 76 -41q49 -27 49 -66q0 -22 -32 -51t-54 -29q-11 0 -11 13q0 22 -90 66t-90 63q0 18 21 59q35 92 100 158q78 78 166 78
q49 0 165 -50.5t150 -50.5q27 0 71 50.5t81 50.5q41 0 124 -21.5t126 -21.5q12 0 35.5 4t35.5 4q50 0 50 -47zM1167 0h-123v870q0 91 -243 91q-60 0 -148 -21q-80 -18 -180 -57q-145 -54 -145 -92v-283q59 55 137 55q82 0 135 -59.5t53 -143.5q0 -159 -92 -259.5
t-250 -100.5q-71 0 -94 76q-12 41 -12 137v598q0 111 252 199q209 71 348 71q362 0 362 -233v-848zM530 371q0 84 -71 84q-64 0 -131 -72v-260q202 24 202 248z" />
    <glyph glyph-name="napostrophe" 
d="M-184 -819h-123v529q0 22 -108 34q-82 13 -133 13q-93 0 -229 -29t-224 -67q-25 -13 -25 -15v-41q25 6 48 6q61 0 118 -36q68 -41 68 -105q0 -80 -89 -186.5t-161 -106.5q-41 0 -73.5 31t-32.5 78v409q0 84 266 148q209 49 334 49q108 0 206 -18q158 -35 158 -105v-588z
M-915 -571q0 39 -68 39q-24 0 -43 -8v-144q37 5 74 41.5t37 71.5z" />
    <glyph glyph-name="minute" 
d="M-184 -1411h-123v477q0 21 -108 33q-82 10 -133 10q-93 0 -229 -25.5t-224 -60.5q-25 -12 -25 -14v-37q25 6 48 6q61 0 118 -32q68 -37 68 -95q0 -73 -89 -168.5t-161 -95.5q-41 0 -73.5 27.5t-32.5 68.5v371q0 76 266 133q209 45 334 45q108 0 206 -18q158 -31 158 -94
v-531zM-915 -1165q0 35 -68 35q-24 0 -43 -8v-129q37 4 74 36.5t37 65.5z" />
    <glyph glyph-name="second" horiz-adv-x="1945" 
d="M1167 0h-123v870q0 91 -243 91q-60 0 -148 -21q-80 -18 -180 -57q-145 -54 -145 -92v-283q59 55 137 55q82 0 135 -59.5t53 -143.5q0 -159 -92 -259.5t-250 -100.5q-71 0 -94 76q-12 41 -12 137v598q0 111 252 199q209 71 348 71q362 0 362 -233v-848zM530 371
q0 84 -71 84q-64 0 -131 -72v-260q202 24 202 248zM1798 0h-123v1255q0 43 -76 66q-53 14 -122 14q-168 0 -332 -51q-162 -35 -217 -35q-117 -16 -255 31t-224 53q-35 -10 -93.5 -74.5t-58.5 -72.5q0 -4 14 -10l109 -29q72 -21 67 -74l-8 -20l-14 -17l-16 -8l-62 -16
q0 32 -84 53l-113 20q-34 9 -34 48q0 81 96 194q98 119 192 115q101 4 252.5 -49.5t231.5 -53.5q41 0 100 21l98 33q162 53 365 53q123 0 201 -33q98 -45 106 -137v-1276z" />
    <glyph glyph-name="afii61248" horiz-adv-x="1945" 
d="M1798 0h-123v1255q0 43 -76 66q-53 14 -122 14q-168 0 -332 -51q-162 -35 -217 -35q-117 -16 -255 31t-224 53q-35 -10 -93.5 -74.5t-58.5 -72.5q0 -4 14 -10l109 -29q72 -21 67 -74l-8 -20l-14 -17l-16 -8l-62 -16q0 32 -84 53l-113 20q-34 9 -34 48q0 81 96 194
q98 119 192 115q101 4 252.5 -49.5t231.5 -53.5q41 0 100 21l98 33q162 53 365 53q111 0 184 -27v359q0 34 -187.5 97.5t-187.5 96.5q0 129 76 127q0 -41 109 -86l205 -80q108 -51 108 -102v-1831zM1167 0h-123v870q0 91 -243 91q-60 0 -148 -21q-80 -18 -180 -57
q-145 -54 -145 -92v-283q59 55 137 55q82 0 135 -59.5t53 -143.5q0 -159 -92 -259.5t-250 -100.5q-71 0 -94 76q-12 41 -12 137v598q0 111 252 199q209 71 348 71q362 0 362 -233v-848zM530 371q0 84 -71 84q-64 0 -131 -72v-260q202 24 202 248z" />
    <glyph glyph-name="afii61289" unicode="&#x1790;" horiz-adv-x="1447" 
d="M1307 1335q0 -90 -103 -145q-84 -47 -182 -47q-129 0 -331 86t-273 86q-78 0 -150 -180l131 -58q99 -45 99 -78v-735q0 -76 75 -112q58 -29 144 -29q293 0 413 113q31 28 31 45v254q-47 -33 -141 -33q-182 0 -182 174q0 123 108.5 227.5t231.5 104.5q73 0 94 -47
q12 -29 12 -117v-584q0 -137 -227 -209q-166 -51 -340 -51q-146 0 -236 57q-106 66 -106 203v672q0 37 -136.5 85t-136.5 75l68 147q45 90 92 137q62 60 141 60q111 0 313 -82t310 -82q145 0 145 76q0 36 -47 119t-47 118q0 51 62 86q53 31 108 31q45 0 45 -45
q0 -74 -63 -98l84 -173q-6 3 -6 -51zM1161 657v228q-65 -6 -132.5 -70.5t-67.5 -128.5q0 -80 79 -80q27 0 70 15q51 16 51 36z" />
    <glyph glyph-name="H22073" 
d="M-104 -563q0 -45 -78 -45q-86 0 -203 99l-202 186q-127 98 -238 98q-96 0 -157.5 -72.5t-61.5 -170.5q0 -60 23 -107q30 -59 84 -59q32 0 51.5 25.5t19.5 58.5q0 8 -5 21t-5 20q0 22 35 36q26 13 53 13q43 0 43 -97q0 -84 -61.5 -139t-145.5 -55q-108 0 -166 90
q-49 78 -49 193q0 151 95.5 255.5t244.5 104.5q45 0 80 -6q131 -23 254 -125l209 -195q47 -41 119 -63q61 -19 61 -66z" />
    <glyph glyph-name="H18543" 
d="M-104 -1222q0 -45 -78 -45q-86 0 -203 98l-202 186q-127 99 -238 99q-96 0 -157.5 -73t-61.5 -171q0 -60 23 -107q30 -59 84 -59q32 0 51.5 25.5t19.5 58.5q0 8 -5 21.5t-5 19.5q0 22 35 37q26 12 53 12q43 0 43 -96q0 -84 -61.5 -139.5t-145.5 -55.5q-108 0 -166 90
q-49 78 -49 193q0 151 95.5 255.5t244.5 104.5q45 0 80 -6q131 -22 254 -125l209 -194q47 -41 119 -64q61 -18 61 -65z" />
    <glyph glyph-name="H18551" horiz-adv-x="2129" 
d="M1978 0h-127v1202q0 58 -108 88q-76 23 -156 23q-88 0 -153 -13l-144 -32q-24 -45 -86 -78q-84 -47 -182 -47q-129 0 -331 86t-273 86q-78 0 -150 -180l131 -58q99 -45 99 -78v-735q0 -76 75 -112q58 -29 144 -29q293 0 413 113q31 28 31 45v254q-47 -33 -141 -33
q-182 0 -182 174q0 123 108.5 227.5t231.5 104.5q73 0 94 -47q12 -29 12 -117v-584q0 -137 -227 -209q-166 -51 -340 -51q-146 0 -236 57q-106 66 -106 203v672q0 37 -136.5 85t-136.5 75l68 147q45 90 92 137q62 60 141 60q111 0 313 -82t310 -82q145 0 145 76
q0 36 -47 129.5t-47 128.5q0 51 62 86q53 30 108 30q45 0 45 -45q0 -73 -63 -98l84 -172l-2 -2q137 29 276 29q137 0 246 -45q141 -62 145 -183v-1206zM1161 657v228q-65 -6 -132.5 -70.5t-67.5 -128.5q0 -80 79 -80q27 0 70 15q51 16 51 36z" />
    <glyph glyph-name="H18533" horiz-adv-x="2129" 
d="M1978 0h-127v1206q-6 54 -108 84q-76 23 -156 23q-88 0 -153 -13l-144 -32q-24 -45 -86 -78q-84 -47 -182 -47q-129 0 -331 86t-273 86q-78 0 -150 -180l131 -58q99 -45 99 -78v-735q0 -76 75 -112q58 -29 144 -29q293 0 413 113q31 28 31 45v254q-47 -33 -141 -33
q-182 0 -182 174q0 123 108.5 227.5t231.5 104.5q73 0 94 -47q12 -29 12 -117v-584q0 -137 -227 -209q-166 -51 -340 -51q-146 0 -236 57q-106 66 -106 203v672q0 37 -136.5 85t-136.5 75l68 147q45 90 92 137q62 60 141 60q111 0 313 -82t310 -82q145 0 145 76
q0 36 -47 119t-47 118q0 51 62 86q53 31 108 31q45 0 45 -45q0 -74 -63 -98l76 -156q139 31 282 31q137 0 246 -45l18 -9v439q0 34 -187 97.5t-187 96.5q0 129 75 127q0 -41 109 -86l205 -80q112 -51 112 -102v-664v-2v-1206zM1161 657v228q-65 -6 -132.5 -70.5
t-67.5 -128.5q0 -80 79 -80q27 0 70 15q51 16 51 36z" />
    <glyph glyph-name="openbullet" unicode="&#x1791;" horiz-adv-x="1331" 
d="M1204 1141q-20 -203 -231 -203q-107 0 -178 49q-84 55 -84 158q0 125 135 164q-49 8 -98 8q-195 0 -334 -100q-150 -105 -150 -263q0 -163 189 -276q151 -90 340 -109q0 168 16 217q35 105 170 105q90 0 156.5 -52.5t66.5 -138.5q0 -208 -287 -243v-215q0 -242 -364 -242
q-346 0 -346 242v286l123 -86v-71q-2 -49 -2 -74q0 -113 57 -147q41 -27 168 -27q139 0 182 24q62 35 62 156v76q-2 49 -2 74q-238 14 -426 133q-226 143 -226 360q0 232 187 367q166 121 407 121q191 0 314 -52q172 -75 155 -241zM1081 1171q0 70 -73 86q-29 7 -95 -22
q-79 -37 -79 -92q0 -64 79 -80q27 -6 52 -6q116 0 116 114zM1079 696q0 33 -30.5 52.5t-67.5 19.5q-66 0 -66 -70v-127q164 19 164 125z" />
    <glyph glyph-name="Amacron" 
d="M-184 -817h-123v217q-47 -98 -148.5 -157.5t-207.5 -59.5q-125 0 -219 52q-121 65 -121 184q0 20 20 35l166 116q123 99 123 158q0 33 -39 33q-6 0 -15 -3t-13 -3q-29 0 -29 41q0 75 109 75q110 0 110 -129q0 -127 -137 -247q-6 -4 -76 -54q-61 -43 -61 -49q0 -28 73 -53
q64 -23 99 -23q166 0 272 175q94 155 94 346q0 55 51 55h72v-709z" />
    <glyph glyph-name="amacron" 
d="M-184 -1412h-123v196q-47 -90 -148.5 -143t-207.5 -53q-125 0 -219 45q-121 59 -121 168q0 18 20 32l166 107q123 88 123 143q0 29 -39 29q-6 0 -15 -2t-13 -2q-29 0 -29 37q0 67 109 67q110 0 110 -116q0 -115 -137 -226l-76 -49q-61 -39 -61 -45q0 -25 73 -47
q64 -21 99 -21q166 0 272 158q94 141 94 316q0 51 51 51h72v-645z" />
    <glyph glyph-name="Ccircumflex" horiz-adv-x="1986" 
d="M1835 0h-127v1202q0 58 -109 88q-75 23 -155 23q-88 0 -154 -13l-112 -26q32 -57 26 -133q-20 -203 -231 -203q-107 0 -178 49q-84 55 -84 158q0 125 135 164q-49 8 -98 8q-195 0 -334 -100q-150 -105 -150 -263q0 -163 189 -276q151 -90 340 -109q0 168 16 217
q35 105 170 105q90 0 156.5 -52.5t66.5 -138.5q0 -208 -287 -243v-215q0 -242 -364 -242q-346 0 -346 242v286l123 -86v-71q-2 -49 -2 -74q0 -113 57 -147q41 -27 168 -27q139 0 182 24q62 35 62 156v76q-2 49 -2 74q-238 14 -426 133q-226 143 -226 360q0 232 187 367
q166 121 407 121q191 0 314 -52q6 -2 10 -6q190 58 385 58q137 0 246 -45q141 -62 145 -183v-1206zM1081 1171q0 70 -73 86q-29 7 -95 -22q-79 -37 -79 -92q0 -64 79 -80q27 -6 52 -6q116 0 116 114zM1079 696q0 33 -30.5 52.5t-67.5 19.5q-66 0 -66 -70v-127
q164 19 164 125z" />
    <glyph glyph-name="ccircumflex" horiz-adv-x="1986" 
d="M1835 0h-127v1206q-6 54 -109 84q-75 23 -155 23q-88 0 -154 -13l-112 -26q32 -57 26 -133q-20 -203 -231 -203q-107 0 -178 49q-84 55 -84 158q0 125 135 164q-49 8 -98 8q-195 0 -334 -100q-150 -105 -150 -263q0 -163 189 -276q151 -90 340 -109q0 168 16 217
q35 105 170 105q90 0 156.5 -52.5t66.5 -138.5q0 -208 -287 -243v-215q0 -242 -364 -242q-346 0 -346 242v286l123 -86v-71q-2 -49 -2 -74q0 -113 57 -147q41 -27 168 -27q139 0 182 24q62 35 62 156v76q-2 49 -2 74q-238 14 -426 133q-226 143 -226 360q0 232 187 367
q166 121 407 121q191 0 314 -52q6 -2 10 -6q190 58 385 58q137 0 246 -45l18 -9v439q0 34 -187.5 97.5t-187.5 96.5q0 129 76 127q0 -41 109 -86l204 -80q113 -51 113 -102v-664v-2v-1206zM1081 1171q0 70 -73 86q-29 7 -95 -22q-79 -37 -79 -92q0 -64 79 -80q27 -6 52 -6
q116 0 116 114zM1079 696q0 33 -30.5 52.5t-67.5 19.5q-66 0 -66 -70v-127q164 19 164 125z" />
    <glyph glyph-name="Cdot" unicode="&#x1792;" horiz-adv-x="1402" 
d="M1327 1352q0 -80 -135 -80q-82 0 -205 33q-20 4 -31 4q-28 0 -82 -47q-53 -48 -110 -48q-64 0 -184 52q-121 51 -181 51q-30 0 -80 -76q-36 -57 -55 -108q8 -9 129 -58q105 -43 105 -78v-813l84 103q84 102 135 102q65 0 229 -123q166 -123 199 -123q12 0 16 13v383
q-39 -35 -143 -35q-182 0 -182 172q0 121 108 223q107 105 232 105q71 0 94 -48q14 -26 14 -114v-762q0 -80 -80 -80q-84 0 -278 133q-193 133 -205 133q-14 0 -66 -69q-67 -93 -104 -127q-70 -70 -135 -70q-41 0 -41 61v873q0 33 -137 82q-136 49 -136 74l47.5 95l49.5 95
q73 127 139 145q24 7 63 7q60 0 183 -52q125 -49 174 -49q24 0 71 49q45 52 82 52q43 0 146 -23q94 -20 147 -20l74 8q49 0 49 -45zM1167 655v238q-71 -4 -145 -72q-74 -71 -74 -137q0 -86 90 -86q27 0 76 16q53 19 53 41z" />
    <glyph glyph-name="cdot" 
d="M-184 -538q0 -105 -95 -180.5t-202 -75.5q-71 0 -129 33q-69 41 -78 106l-88 -72q-86 -67 -176 -67q-151 0 -229 135q-62 111 -62 274q0 82 45 146q52 72 131 72h746q14 0 14 12q0 14 -12 18t-12 13q0 41 61 41q55 0 74 -35q12 -23 12 -84q0 -88 -201 -88h-661
q-78 0 -78 -105q0 -104 35 -180q47 -98 139 -98q70 0 137 59q35 29 99 107q45 59 63 59q19 0 35 -57q21 -80 39 -109q35 -57 100 -57q68 0 117 41t49 106q0 49 -50 108.5t-50 80.5q0 26 51 26q90 0 137 -71q39 -62 39 -158z" />
    <glyph glyph-name="Emacron" 
d="M-184 -1157q0 -105 -95 -180.5t-202 -75.5q-71 0 -129 32q-69 41 -78 107l-88 -72q-86 -67 -176 -67q-151 0 -229 135q-62 110 -62 274q0 82 45 146q52 71 131 71h746q14 0 14 13q0 14 -12 18t-12 12q0 41 61 41q55 0 74 -34q12 -23 12 -84q0 -89 -201 -89h-661
q-78 0 -78 -104t35 -180q47 -98 139 -98q70 0 137 59q35 29 99 106q45 60 63 60q19 0 35 -58q21 -79 39 -108q35 -57 100 -57q68 0 117 40.5t49 106.5q0 49 -50 108.5t-50 79.5q0 27 51 27q90 0 137 -72q39 -61 39 -157z" />
    <glyph glyph-name="emacron" horiz-adv-x="2045" 
d="M1898 -4h-133v1243q0 45 -82 74q-59 14 -133 14q-184 0 -362 -57q-174 -41 -234 -41q-129 -4 -278.5 44t-241.5 60q-39 -10 -102.5 -95t-63.5 -93q0 -4 15 -10q55 -23 108 -50q70 -34 84 -53q23 -18 23 -35v-813q2 0 85 102.5t134 102.5q65 0 230 -123t198 -123
q12 0 16 13v383q-37 -35 -143 -35q-182 0 -182 172q0 121 108.5 224.5t231.5 103.5q73 0 94 -48q14 -28 14 -114v-762q0 -80 -80 -80q-86 0 -277.5 133t-205.5 133t-66 -69q-65 -91 -104 -127q-72 -70 -135 -70q-41 0 -41 61v865q-15 30 -51 53q-33 16 -86 37q-9 2 -15 4
l-71 24q-25 5 -33 25q-17 12 -17 21q7 14 15 24q12 80 102 213q107 119 209 115q109 4 268.5 -49.5t257.5 -51.5q43 2 109 19l106 33q174 53 396 53q133 0 217 -33q108 -45 116 -137v-1280zM1167 655v238q-69 -2 -144 -71.5t-75 -137.5q0 -86 90 -86q31 0 76 16q53 19 53 41
z" />
    <glyph glyph-name="Ebreve" horiz-adv-x="2045" 
d="M1898 -4h-133v1243q0 45 -82 74q-59 14 -133 14q-184 0 -362 -57q-174 -41 -234 -41q-129 -4 -278.5 44t-241.5 60q-39 -10 -102.5 -95t-63.5 -93q0 -4 15 -10q55 -23 108 -50q70 -34 84 -53q23 -18 23 -35v-813q2 0 85 102.5t134 102.5q65 0 230 -123t198 -123
q12 0 16 13v383q-37 -35 -143 -35q-182 0 -182 172q0 121 108.5 224.5t231.5 103.5q73 0 94 -48q14 -28 14 -114v-762q0 -80 -80 -80q-86 0 -277.5 133t-205.5 133t-66 -69q-65 -91 -104 -127q-72 -70 -135 -70q-41 0 -41 61v865q-15 30 -51 53q-33 16 -86 37q-9 2 -15 4
l-71 24q-25 5 -33 25q-17 12 -17 21q7 14 15 24q12 80 102 213q107 119 209 115q109 4 268.5 -49.5t257.5 -51.5q43 2 109 19l106 33q174 53 396 53q121 0 200 -27v324q0 35 -203.5 98.5t-203.5 95.5q0 129 82 127q0 -41 119 -86l221 -80q118 -51 118 -102v-1800zM1167 655
v238q-69 -2 -144 -71.5t-75 -137.5q0 -86 90 -86q31 0 76 16q53 19 53 41z" />
    <glyph glyph-name="ebreve" unicode="&#x1793;" horiz-adv-x="1372" 
d="M1262 1118q0 -114 -78 -176q-68 -53 -172 -53q-111 0 -187 55q-84 62 -84 168q0 66 60 125q49 53 100 63q-86 11 -98 11q-475 0 -475 -189q0 -139 231 -243q19 -11 426 -150q232 -78 232 -156v-481q0 -92 -107 -92q-104 0 -298 164t-294 164q-51 0 -120.5 -63.5
t-69.5 -112.5v-152h-123v678l123 -74v-237q75 82 194 82q105 0 236 -82q67 -41 196 -150q99 -82 125 -82q8 0 15 6v365q0 67 -232 139q-330 105 -426 158q-231 125 -231 319q0 312 594 312q166 0 299 -74q164 -88 164 -242zM1139 1128q0 76 -90 119q-54 0 -119.5 -43
t-65.5 -92q0 -41 37 -72q31 -24 68 -30q20 -2 41 -2q129 0 129 120z" />
    <glyph glyph-name="Edot" 
d="M-36 -159q0 -33 -48.5 -72t-80.5 -39h-236v-78q172 0 209 -14q49 -18 49 -96v-31q0 -102 -96 -203.5t-199 -101.5q-57 0 -74 26q-12 21 -12 82v211q-41 -18 -104 -84q-76 -77 -115 -104q-78 -51 -168 -51q-139 0 -225 65q-94 72 -94 207q0 293 243 293h463v37h123v-37
h234q57 43 94 43t37 -53zM-266 -499q0 20 -49 28q-35 5 -65 3h-21v-203q43 8 89 67.5t46 104.5zM-524 -348v78h-459q-79 0 -106 -51q-18 -37 -18 -125q0 -147 196 -147q84 0 209 122.5t178 122.5z" />
    <glyph glyph-name="edot" 
d="M-36 -788q0 -33 -48.5 -72t-80.5 -39h-236v-78q172 0 209 -14q49 -19 49 -96v-31q0 -103 -96 -204t-199 -101q-57 0 -74 26q-12 21 -12 82v211q-41 -18 -104 -84q-76 -78 -115 -104q-78 -51 -168 -51q-139 0 -225 65q-94 72 -94 207q0 293 243 293h463v37h123v-37h234
q57 43 94 43t37 -53zM-266 -1128q0 20 -49 28q-35 4 -65 2h-21v-202q43 8 89 67.5t46 104.5zM-524 -977v78h-459q-79 0 -106 -51q-18 -37 -18 -125q0 -148 196 -148q84 0 209 123t178 123z" />
    <glyph glyph-name="Gcircumflex" horiz-adv-x="2045" 
d="M1896 0h-127v1202q0 58 -108 88q-76 23 -156 23q-88 0 -153 -13q-60 -14 -146 -28q56 -66 56 -154q0 -114 -78 -176q-68 -53 -172 -53q-111 0 -187 55q-84 62 -84 168q0 66 60 125q49 53 100 63q-86 11 -98 11q-475 0 -475 -189q0 -139 231 -243q19 -11 426 -150
q232 -78 232 -156v-481q0 -92 -107 -92q-104 0 -298 164t-294 164q-51 0 -120.5 -63.5t-69.5 -112.5v-152h-123v678l123 -74v-237q75 82 194 82q105 0 236 -82q67 -41 196 -150q99 -82 125 -82q8 0 15 6v365q0 67 -232 139q-330 105 -426 158q-231 125 -231 319
q0 312 594 312q149 0 272 -62q236 62 434 62q137 0 246 -45q141 -62 145 -183v-1206zM1139 1128q0 76 -90 119q-54 0 -119.5 -43t-65.5 -92q0 -41 37 -72q31 -24 68 -30q20 -2 41 -2q129 0 129 120z" />
    <glyph glyph-name="gcircumflex" horiz-adv-x="2045" 
d="M1896 0h-127v1206q-6 54 -108 84q-76 23 -156 23q-88 0 -153 -13q-60 -14 -146 -28q56 -66 56 -154q0 -114 -78 -176q-68 -53 -172 -53q-111 0 -187 55q-84 62 -84 168q0 66 60 125q49 53 100 63q-86 11 -98 11q-475 0 -475 -189q0 -139 231 -243q19 -11 426 -150
q232 -78 232 -156v-481q0 -92 -107 -92q-104 0 -298 164t-294 164q-51 0 -120.5 -63.5t-69.5 -112.5v-152h-123v678l123 -74v-237q75 82 194 82q105 0 236 -82q67 -41 196 -150q99 -82 125 -82q8 0 15 6v365q0 67 -232 139q-330 105 -426 158q-231 125 -231 319
q0 312 594 312q149 0 272 -62q236 62 434 62q137 0 246 -45l18 -9v439q0 34 -187 97.5t-187 96.5q0 129 75 127q0 -41 109 -86l205 -80q112 -51 112 -102v-664v-2v-1206zM1139 1128q0 76 -90 119q-54 0 -119.5 -43t-65.5 -92q0 -41 37 -72q31 -24 68 -30q20 -2 41 -2
q129 0 129 120z" />
    <glyph glyph-name="Gdot" unicode="&#x1794;" horiz-adv-x="1488" 
d="M1470 1374q0 -26 -27.5 -68t-51.5 -42q-31 0 -105 18t-110 18q-60 0 -103 -69q-16 -27 -43 -88q-31 -68 -31 -86q0 -10 41 -19l164 -32q121 -33 121 -80v-684q0 -131 -258 -197q-176 -45 -362 -45q-146 0 -236 57q-107 66 -107 203v590q0 45 -67 61l-125 23
q-68 24 -68 90q0 92 103 246q106 164 194 164q56 0 166.5 -19.5t165.5 -19.5q23 0 23 -37q0 -41 -29 -75t-70 -34q-28 0 -99 19.5t-110 19.5q-88 0 -141 -102q-4 -10 -59 -129q0 -6 28 -15l127 -36q84 -33 84 -80v-662q0 -76 76 -112q57 -29 144 -29q315 0 464 102
q33 23 33 35v590q0 37 -133 68l-168 32q-41 11 -41 72q0 108 90 254q97 158 199 158q49 0 147.5 -15.5t147.5 -15.5q26 0 26 -29z" />
    <glyph glyph-name="gdot" horiz-adv-x="733" 
d="M713 1374q0 -28 -29 -69t-55 -41q-25 0 -99.5 18t-111.5 18q-60 0 -103 -71q-73 -123 -73 -172q0 -8 41 -19q82 -16 163 -34q121 -31 121 -78v-1679q0 -49 -49 -49q-67 0 -268 109.5t-234 109.5q-18 0 -161 -110.5t-197 -110.5q-43 0 -43 61v363q0 90 64 141
q57 45 152 45q51 0 93 -31t42 -80q0 -28 -18.5 -57t-45.5 -29q-24 0 -49 35t-51 35q-29 0 -46.5 -24.5t-17.5 -53.5v-219l4 -4q25 10 127 94q84 68 145 68q66 0 237 -94.5t185 -94.5q4 0 8 2v1495q0 39 -133 70l-168 32q-41 8 -41 70q0 110 91 256q96 158 198 158
q49 0 147.5 -15.5t147.5 -15.5q27 0 27 -29z" />
    <glyph glyph-name="Gcedilla" horiz-adv-x="733" 
d="M713 1374q0 -28 -29 -69t-55 -41q-25 0 -99.5 18t-111.5 18q-60 0 -103 -71q-73 -123 -73 -172q0 -8 41 -19q82 -16 163 -34q121 -31 121 -78v-2294q0 -49 -49 -49q-67 0 -268 109.5t-234 109.5q-18 0 -161 -110.5t-197 -110.5q-43 0 -43 61v383q0 91 64 142
q57 45 152 45q51 0 93 -31t42 -80q0 -28 -18.5 -57t-45.5 -29q-24 0 -49 35t-51 35q-29 0 -46.5 -24.5t-17.5 -53.5v-240l4 -4q25 11 127 94q84 68 145 68q66 0 237 -94t185 -94q4 0 8 2v2109q0 39 -133 70l-168 32q-41 8 -41 70q0 110 91 256q96 158 198 158
q49 0 147.5 -15.5t147.5 -15.5q27 0 27 -29z" />
    <glyph glyph-name="gcedilla" horiz-adv-x="2127" 
d="M1964 0h-123v1204q0 60 -86 88q-61 21 -139 21q-193 0 -379 -70q-193 -72 -256 -72q-133 0 -289.5 71t-255.5 71q-41 0 -114.5 -107.5t-73.5 -146.5q0 -4 31 -15l124 -36q84 -33 84 -80v-664q0 -76 76 -112q60 -29 144 -29q356 0 499 141v506h123v-1007q0 -70 -102 -152
q-109 -90 -115 -110q-20 0 -33 49q-10 37 -10 68q0 26 67.5 73t67.5 72v329q-184 -92 -497 -92q-146 0 -236 57q-106 66 -106 203v592q0 45 -95 72l-129 28q-39 11 -39 62q0 110 109 262q113 160 219 160q115 0 287 -72t264 -72q47 0 115 27l110 45q185 72 416 72
q139 0 227 -45q115 -60 115 -185v-1206z" />
    <glyph glyph-name="Hcircumflex" horiz-adv-x="1482" 
d="M1339 0h-127v1202q0 58 -108 86q-76 17 -156 12q-88 -6 -153 -14q-62 -8 -150 -18q-8 -4 -16 -4h-13h-6q-26 4 -82 18q-73 18 -110 18q-60 0 -103 -71q-73 -123 -73 -172q0 -8 41 -19q82 -16 163 -34q121 -31 121 -78v-1659q0 -49 -49 -49q-67 0 -268 109.5t-234 109.5
q-18 0 -161 -110.5t-197 -110.5q-43 0 -43 62v342q0 90 64 141q57 45 152 45q51 0 93 -31t42 -80q0 -28 -18.5 -57t-45.5 -29q-24 0 -49 35t-51 35q-29 0 -46.5 -24.5t-17.5 -53.5v-199l4 -4q25 11 127 95q84 67 145 67q66 0 237 -94t185 -94q4 0 8 2v1474q0 39 -133 70
l-168 32q-41 8 -41 70q0 110 91 256q96 158 198 158q49 0 148 -17q75 -12 123 -14q98 6 286 31q137 0 246 -45q141 -62 145 -183v-1206z" />
    <glyph glyph-name="hcircumflex" horiz-adv-x="1482" 
d="M1339 0h-127v1202q0 58 -108 86q-76 17 -156 12q-88 -6 -153 -14q-62 -8 -150 -18q-8 -4 -16 -4h-13h-6q-26 4 -82 18q-73 18 -110 18q-60 0 -103 -71q-73 -123 -73 -172q0 -8 41 -19q82 -16 163 -34q121 -31 121 -78v-2298q0 -49 -49 -49q-67 0 -268 109.5t-234 109.5
q-18 0 -161 -110.5t-197 -110.5q-43 0 -43 61v424q0 90 64 142q57 45 152 45q51 0 93 -31t42 -80q0 -29 -18.5 -57.5t-45.5 -28.5q-24 0 -49 35t-51 35q-29 0 -46.5 -24.5t-17.5 -53.5v-281l4 -4q25 10 127 94q84 68 145 68q66 0 237 -94t185 -94q4 0 8 2v2113q0 39 -133 70
l-168 32q-41 8 -41 70q0 110 91 256q96 158 198 158q49 0 148 -17q75 -12 123 -14q98 6 286 31q137 0 246 -45q141 -62 145 -183v-1206z" />
    <glyph glyph-name="Hbar" horiz-adv-x="2127" 
d="M1964 0h-123v1204q0 60 -86 88q-61 21 -139 21q-189 0 -379 -70l-125 -47q-74 -25 -131 -25q-115 0 -283 71t-262 71q-39 0 -113.5 -106.5t-74.5 -147.5q0 -6 31 -15q104 -26 124 -36q84 -33 84 -80v-664q0 -76 76 -112q60 -29 144 -29q356 0 499 141v506h123v-1007
q0 -70 -100 -150q-111 -88 -117 -112q-43 4 -43 117q0 28 68.5 74t68.5 71v329q-186 -92 -499 -92q-144 0 -234 57q-108 68 -108 203v592q0 47 -93 72l-131 28q-39 17 -39 62q0 110 109 262q113 160 219 160q105 0 281 -72t270 -72q49 0 115 27l110 45q189 72 416 72
q129 0 215 -39v424q0 34 -187.5 97.5t-187.5 96.5q0 129 76 127q0 -41 111 -86l204 -80q111 -51 111 -102v-1874z" />
    <glyph glyph-name="hbar" horiz-adv-x="1482" 
d="M1339 0h-127v1202q0 58 -108 86q-76 17 -156 12q-88 -6 -153 -14q-62 -8 -150 -18q-8 -4 -16 -4h-13h-6q-26 4 -82 18q-73 18 -110 18q-60 0 -103 -71q-73 -123 -73 -172q0 -8 41 -19q82 -16 163 -34q121 -31 121 -78v-1679q0 -49 -49 -49q-67 0 -268 109.5t-234 109.5
q-18 0 -161 -110.5t-197 -110.5q-43 0 -43 61v363q0 90 64 141q57 45 152 45q51 0 93 -31t42 -80q0 -28 -18.5 -57t-45.5 -29q-24 0 -49 35t-51 35q-29 0 -46.5 -24.5t-17.5 -53.5v-219l4 -4q25 10 127 94q84 68 145 68q66 0 237 -94.5t185 -94.5q4 0 8 2v1495q0 39 -133 70
l-168 32q-41 8 -41 70q0 110 91 256q96 158 198 158q49 0 148 -17q75 -12 123 -14q98 6 286 31q137 0 246 -45l18 -9v439q0 34 -187 97.5t-187 96.5q0 129 75 127q0 -41 109 -86l205 -80q112 -51 112 -102v-660v-6v-1206z" />
    <glyph glyph-name="Itilde" horiz-adv-x="1482" 
d="M1339 0h-127v1202q0 58 -108 86q-76 17 -156 12q-88 -6 -153 -14q-62 -8 -150 -18q-8 -4 -16 -4h-13h-6q-26 4 -82 18q-73 18 -110 18q-60 0 -103 -71q-73 -123 -73 -172q0 -8 41 -19q82 -16 163 -34q121 -31 121 -78v-2298q0 -49 -49 -49q-67 0 -268 109.5t-234 109.5
q-18 0 -161 -110.5t-197 -110.5q-43 0 -43 61v342q0 90 64 142q57 45 152 45q51 0 93 -31t42 -80q0 -29 -18.5 -57.5t-45.5 -28.5q-24 0 -49 35t-51 35q-29 0 -46.5 -24.5t-17.5 -53.5v-199l4 -4q25 10 127 94q84 68 145 68q66 0 237 -94t185 -94q4 0 8 2v2113q0 39 -133 70
l-168 32q-41 8 -41 70q0 110 91 256q96 158 198 158q49 0 148 -17q75 -12 123 -14q98 6 286 31q137 0 246 -45l18 -9v439q0 34 -187 97.5t-187 96.5q0 129 75 127q0 -41 109 -86l205 -80q112 -51 112 -102v-660v-6v-1206z" />
    <glyph glyph-name="itilde" unicode="&#x1795;" horiz-adv-x="1447" 
d="M1303 1335q0 -90 -101 -143q-84 -47 -182 -47q-125 0 -326.5 86t-277.5 86q-78 0 -152 -182q4 -9 123 -60q111 -47 111 -84v-807q2 0 85 102.5t134 102.5q65 0 230 -123t198 -123q12 0 16 13v376q-33 -30 -143 -30q-182 0 -182 174q0 121 108.5 224.5t231.5 103.5
q73 0 94 -48q14 -28 14 -114v-762q0 -80 -80 -80q-86 0 -277.5 133t-205.5 133t-66 -69q-65 -91 -104 -127q-72 -70 -135 -70q-41 0 -41 61v873q0 35 -135.5 82t-137.5 76l109 217q80 125 190 125q111 0 311.5 -82t311.5 -82q147 0 147 78q0 41 -67.5 140t-67.5 138
q0 47 62 84q53 33 104 33q45 0 45 -45q0 -76 -63 -96l84 -172q35 -39 35 -95zM1161 657v228q-65 -6 -132.5 -70.5t-67.5 -128.5q0 -80 79 -80q27 0 70 15q51 16 51 36z" />
    <glyph glyph-name="Imacron" 
d="M-186 -655q0 -162 -164 -162q-114 0 -266 92.5t-160 92.5q-14 0 -136 -95.5t-175 -95.5q-59 0 -59 168v445q0 8 -50 20v55q0 31 121 31q47 0 47 -10v-539l7 -4q20 6 116 88q90 74 119 74t191.5 -102.5t230.5 -102.5q41 0 59 35v141q-22 -6 -47 -6q-65 0 -126.5 45
t-61.5 115q0 74 91 166t161 92q41 0 71.5 -28.5t30.5 -71.5v-443zM-299 -411v168q-36 0 -80 -45t-44 -86q0 -47 75 -47q23 0 49 10z" />
    <glyph glyph-name="imacron" 
d="M-186 -1257q0 -152 -164 -152q-114 0 -266 86t-160 86q-14 0 -136 -88t-175 -88q-59 0 -59 156v413q0 9 -50 19v53q0 29 121 29q47 0 47 -10v-502l7 -4q20 6 116 82q90 69 119 69t191.5 -96t230.5 -96q41 0 59 33v133q-22 -6 -47 -6q-65 0 -126.5 42t-61.5 105
q0 70 91 156t161 86q41 0 71.5 -27t30.5 -68v-411zM-299 -1030v156q-36 0 -80 -42t-44 -79q0 -45 75 -45q23 0 49 10z" />
    <glyph glyph-name="Ibreve" horiz-adv-x="2131" 
d="M1978 0h-127v1202q0 58 -108 88q-76 23 -156 23q-88 0 -153 -13l-144 -32l-2 4q-24 -47 -86 -80q-84 -47 -182 -47q-125 0 -326.5 86t-277.5 86q-78 0 -152 -182q4 -9 123 -60q111 -47 111 -84v-807q2 0 85 102.5t134 102.5q65 0 230 -123t198 -123q12 0 16 13v376
q-33 -30 -143 -30q-182 0 -182 174q0 121 108.5 224.5t231.5 103.5q73 0 94 -48q14 -28 14 -114v-762q0 -80 -80 -80q-86 0 -277.5 133t-205.5 133t-66 -69q-65 -91 -104 -127q-72 -70 -135 -70q-41 0 -41 61v873q0 35 -135.5 82t-137.5 76l109 217q80 125 190 125
q111 0 311.5 -82t311.5 -82q147 0 147 78q0 41 -77.5 181t-77.5 179q0 47 61 84q53 33 105 33q45 0 45 -45q0 -76 -64 -97l84 -172q29 -65 43 -112q148 35 297 35q137 0 246 -45q141 -62 145 -183v-1206zM1161 657v228q-65 -6 -132.5 -70.5t-67.5 -128.5q0 -80 79 -80
q27 0 70 15q51 16 51 36z" />
    <glyph glyph-name="ibreve" horiz-adv-x="2131" 
d="M1978 0h-127v1206q-6 54 -108 84q-76 23 -156 23q-88 0 -153 -13l-144 -32l-2 4q-24 -47 -86 -80q-84 -47 -182 -47q-125 0 -326.5 86t-277.5 86q-78 0 -152 -182q4 -9 123 -60q111 -47 111 -84v-807q2 0 85 102.5t134 102.5q65 0 230 -123t198 -123q12 0 16 13v376
q-33 -30 -143 -30q-182 0 -182 174q0 121 108.5 224.5t231.5 103.5q73 0 94 -48q14 -28 14 -114v-762q0 -80 -80 -80q-86 0 -277.5 133t-205.5 133t-66 -69q-65 -91 -104 -127q-72 -70 -135 -70q-41 0 -41 61v873q0 35 -135.5 82t-137.5 76l109 217q80 125 190 125
q111 0 311.5 -82t311.5 -82q147 0 147 78q0 41 -77.5 181t-77.5 179q0 47 61 84q53 33 105 33q45 0 45 -45q0 -76 -64 -97l84 -172q29 -65 43 -112q148 35 297 35q137 0 246 -45l18 -9v439q0 34 -187 97.5t-187 96.5q0 129 75 127q0 -41 109 -86l205 -80q112 -51 112 -102
v-660v-6v-1206zM1161 657v228q-65 -6 -132.5 -70.5t-67.5 -128.5q0 -80 79 -80q27 0 70 15q51 16 51 36z" />
    <glyph glyph-name="Iogonek" unicode="&#x1796;" horiz-adv-x="1382" 
d="M1217 0h-123v1214q0 97 -125 97q-74 0 -192 -92.5t-146 -92.5q-21 0 -76 92.5t-98 92.5q-64 0 -96.5 -50.5t-32.5 -117.5v-635q59 55 137 55q82 0 135 -59.5t53 -143.5q0 -159 -92 -259.5t-250 -100.5q-71 0 -94 76q-12 41 -12 137v977q0 110 98 180q86 64 203 64
q45 0 96 -72t55 -72q240 144 342 144q99 0 158.5 -63.5t59.5 -164.5v-1206zM530 371q0 84 -71 84q-64 0 -131 -72v-260q202 24 202 248z" />
    <glyph glyph-name="iogonek" 
d="M-184 -813h-123v517q0 75 -121 75q-73 0 -189 -69.5t-132 -69.5q-19 0 -86.5 69.5t-120.5 69.5q-37 0 -70.5 -24.5t-33.5 -61.5v-78q18 7 41 7q67 0 129.5 -48.5t62.5 -119.5q0 -78 -91 -172.5t-161 -94.5q-41 0 -72.5 31t-31.5 76v395q0 92 73.5 156.5t163.5 64.5
q72 0 140.5 -60t89.5 -60q30 18 90 59q104 61 213 61q229 0 229 -202v-521zM-942 -544q0 20 -29.5 32.5t-52.5 12.5q-22 0 -36 -6v-179q34 9 76 57t42 83z" />
    <glyph glyph-name="Jcircumflex" 
d="M-184 -1413h-123v473q0 70 -121 70q-73 0 -189 -64.5t-132 -64.5q-19 0 -86.5 64.5t-120.5 64.5q-37 0 -70.5 -22.5t-33.5 -57.5v-72q18 6 41 6q67 0 129.5 -44t62.5 -109q0 -72 -91 -158t-161 -86q-41 0 -72.5 27.5t-31.5 68.5v363q0 86 73.5 145.5t163.5 59.5
q72 0 140.5 -56.5t89.5 -56.5l90 55q104 58 213 58q229 0 229 -187v-477zM-942 -1167q0 18 -29.5 29.5t-52.5 11.5q-22 0 -36 -6v-164q34 8 76 52t42 77z" />
    <glyph glyph-name="jcircumflex" horiz-adv-x="2068" 
d="M1898 -2h-122v1202q0 57 -105 88q-76 23 -158 23q-129 0 -303 -41q7 -31 7 -64v-1208h-123v1216q0 97 -125 97q-74 0 -192 -92.5t-146 -92.5q-21 0 -76 92.5t-98 92.5q-64 0 -96.5 -50.5t-32.5 -117.5v-637q59 55 137 55q82 0 135 -59.5t53 -143.5q0 -159 -91 -259.5
t-251 -100.5q-71 0 -94 76q-12 41 -12 137v979q0 110 98 180q86 64 203 64q45 0 96 -72t55 -72q240 144 342 144q84 0 142 -50q176 50 372 50q138 0 244 -48q141 -61 141 -182v-1206zM530 369q0 84 -71 84q-60 0 -131 -72v-260q202 24 202 248z" />
    <glyph glyph-name="Kcedilla" horiz-adv-x="2068" 
d="M1898 -2h-122v1202q0 4 -2 8h-5v19q-20 37 -98 61q-76 23 -158 23q-129 0 -303 -41q7 -31 7 -64v-1208h-123v1216q0 97 -125 97q-74 0 -192 -92.5t-146 -92.5q-21 0 -76 92.5t-98 92.5q-64 0 -96.5 -50.5t-32.5 -117.5v-637q59 55 137 55q82 0 135 -59.5t53 -143.5
q0 -159 -91 -259.5t-251 -100.5q-71 0 -94 76q-12 41 -12 137v979q0 110 98 180q86 64 203 64q45 0 96 -72t55 -72q240 144 342 144q84 0 142 -50q176 50 372 50q138 0 244 -48q6 -4 12 -6v439q0 34 -187 97.5t-187 96.5q0 129 75 127q0 -41 109 -86l205 -80
q112 -51 112 -102v-639q2 -14 2 -29v-1206zM530 369q0 84 -71 84q-60 0 -131 -72v-260q202 24 202 248z" />
    <glyph glyph-name="kcedilla" unicode="&#x1797;" horiz-adv-x="1331" 
d="M1264 1352q0 -76 -113 -76q-45 0 -124 19.5t-99 19.5q-29 0 -76 -51.5t-109 -51.5q-57 0 -173.5 50.5t-157.5 50.5q-27 0 -74 -50.5t-47 -78.5q2 -2 76 -41q49 -27 49 -66q0 -22 -32 -51t-54 -29q-11 0 -11 13q0 22 -90 66t-90 63q0 18 21 59q35 92 100 158q78 78 166 78
q49 0 165 -50.5t150 -50.5q27 0 71 50.5t81 50.5q41 0 124 -21.5t126 -21.5q12 0 35.5 4t35.5 4q50 0 50 -47zM1169 0h-122v870q0 91 -246 91q-53 0 -127 -19q-62 -16 -144 -57q-106 -54 -106 -94v-619q0 -90 -12 -119q-21 -53 -97 -53q-155 0 -247 109q-90 102 -90 260
q0 69 56 120.5t128 51.5q45 0 86 -32t41 -77q0 -8 -4 -20q-47 18 -82 18q-31 0 -64 -16q-39 -19 -39 -47q0 -91 54 -162q59 -78 147 -82v688q0 113 203 199q168 71 301 71q364 0 364 -233v-848z" />
    <glyph glyph-name="kgreenlandic" 
d="M-184 -817h-123v523q0 8 -20 14q-82 39 -191 39q-82 0 -264 -35q-213 -39 -213 -76v-379q0 -47 -10 -63q-12 -23 -53 -23q-95 0 -174 64q-86 67 -86 170q0 53 38.5 111.5t86.5 58.5q26 0 43.5 -29t17.5 -59q0 -4 -2 -11q-51 5 -51 -71q0 -64 67 -74v383q0 62 262 117
q222 49 324 49q86 0 197 -27q151 -34 151 -94v-588z" />
    <glyph glyph-name="Lcedilla" 
d="M-184 -1413h-123v475q0 6 -20 13q-82 34 -191 34q-82 0 -264 -30q-213 -35 -213 -70v-344q0 -43 -10 -57q-12 -21 -53 -21q-95 0 -174 57q-86 62 -86 154q0 49 38.5 102.5t86.5 53.5q26 0 43.5 -27t17.5 -53q0 -4 -2 -10q-51 4 -51 -66q0 -57 67 -65v348q0 55 262 106
q222 45 324 45q86 0 197 -24q151 -33 151 -86v-535z" />
    <glyph glyph-name="lcedilla" horiz-adv-x="1949" 
d="M1169 0h-122v870q0 91 -246 91q-53 0 -127 -19q-62 -16 -144 -57q-106 -54 -106 -94v-619q0 -90 -12 -119q-21 -53 -97 -53q-155 0 -247 109q-90 102 -90 260q0 69 56 120.5t128 51.5q45 0 86 -32t41 -77q0 -8 -4 -20q-47 18 -82 18q-31 0 -64 -16q-39 -19 -39 -47
q0 -91 54 -162q59 -78 147 -82v688q0 113 203 199q168 71 301 71q364 0 364 -233v-848zM1798 0h-123v1255q0 43 -76 66q-53 14 -122 14q-168 0 -332 -51q-162 -35 -217 -35q-117 -16 -255 31t-224 53q-35 -10 -93.5 -74.5t-58.5 -72.5q0 -4 14 -10l109 -29q72 -21 67 -74
l-8 -20l-14 -17l-16 -8l-62 -16q0 32 -84 53l-113 20q-34 9 -34 48q0 81 96 194q98 119 192 115q101 4 252.5 -49.5t231.5 -53.5q41 0 100 21l98 33q162 53 365 53q123 0 201 -33q98 -45 106 -137v-1276z" />
    <glyph glyph-name="Ncedilla" horiz-adv-x="1949" 
d="M1798 0h-123v1255q0 43 -76 66q-53 14 -122 14q-168 0 -332 -51q-162 -35 -217 -35q-117 -16 -255 31t-224 53q-35 -10 -93.5 -74.5t-58.5 -72.5q0 -4 14 -10l109 -29q72 -21 67 -74l-8 -20l-14 -17l-16 -8l-62 -16q0 32 -84 53l-113 20q-34 9 -34 48q0 81 96 194
q98 119 192 115q101 4 252.5 -49.5t231.5 -53.5q41 0 100 21l98 33q162 53 365 53q111 0 184 -27v359q0 34 -187.5 97.5t-187.5 96.5q0 129 76 127q0 -41 109 -86l205 -80q108 -51 108 -102v-1831zM1169 0h-122v870q0 91 -246 91q-53 0 -127 -19q-62 -16 -144 -57
q-106 -54 -106 -94v-619q0 -90 -12 -119q-21 -53 -97 -53q-155 0 -247 109q-90 102 -90 260q0 69 56 120.5t128 51.5q45 0 86 -32t41 -77q0 -8 -4 -20q-47 18 -82 18q-31 0 -64 -16q-39 -19 -39 -47q0 -91 54 -162q59 -78 147 -82v688q0 113 203 199q168 71 301 71
q364 0 364 -233v-848z" />
    <glyph glyph-name="ncedilla" unicode="&#x1798;" horiz-adv-x="1488" 
d="M1470 1374q0 -26 -27.5 -68t-51.5 -42q-31 0 -105 18t-110 18q-60 0 -103 -69q-16 -27 -43 -88q-31 -68 -31 -86q0 -10 41 -19l164 -32q121 -33 121 -80v-684q0 -131 -258 -197q-176 -45 -362 -45q-146 0 -236 57q-107 66 -107 203v590q0 45 -67 61l-125 23
q-68 24 -68 90q0 92 103 246q106 164 194 164q56 0 166.5 -19.5t165.5 -19.5q23 0 23 -37q0 -41 -29 -75t-70 -34q-28 0 -99 19.5t-110 19.5q-88 0 -141 -102q-4 -10 -59 -129q0 -6 28 -15l127 -36q84 -33 84 -80v-230h717v154q0 37 -133 68l-168 32q-41 11 -41 72
q0 108 90 254q97 158 199 158q49 0 147.5 -15.5t147.5 -15.5q26 0 26 -29zM1202 260v313h-717v-309q0 -76 76 -112q57 -29 144 -29q315 0 464 102q33 23 33 35z" />
    <glyph glyph-name="Eng" 
d="M-61 -487q0 -108 -104.5 -219t-206.5 -111q-70 0 -92 49q-17 33 -17 115v246q-41 -4 -92 -84q-80 -123 -98 -145q-66 -76 -148 -76q-51 0 -112 55q-99 88 -121 102q-86 56 -195 56q-33 0 -33 61q0 64 33 64q111 0 211 -56q62 -34 139 -102q64 -55 80 -55q45 0 97 78
l98 145q63 80 141 84v170h123v-170l70 2q123 4 175 -39t52 -170zM-184 -477q0 74 -67 72l-107 -2v-279q62 2 118 73t56 136z" />
    <glyph glyph-name="eng" 
d="M-61 -1143q0 -87 -104.5 -176.5t-206.5 -89.5q-70 0 -92 39q-17 26 -17 93v199q-41 -4 -92 -68q-80 -100 -98 -117q-66 -62 -148 -62q-51 0 -112 45q-99 70 -121 83q-86 44 -195 44q-33 0 -33 50q0 51 33 51q111 0 211 -43q62 -28 139 -85q64 -43 80 -43q45 0 97 63
l98 117q63 65 141 68v138h123v-138l70 2q123 3 175 -32t52 -138zM-184 -1134q0 59 -67 58l-107 -2v-225q62 1 118 58.5t56 110.5z" />
    <glyph glyph-name="Omacron" horiz-adv-x="2250" 
d="M2097 0h-127v1202q0 58 -108 86q-76 17 -156 12q-88 -6 -154 -14q-59 -8 -145 -18q-8 -4 -16 -4h-23q-31 4 -82 18q-74 18 -110 18q-60 0 -103 -69q-16 -27 -43 -88q-31 -68 -31 -86q0 -10 41 -19l164 -32q121 -33 121 -80v-684q0 -131 -258 -197q-176 -45 -362 -45
q-146 0 -236 57q-107 66 -107 203v590q0 45 -67 61l-125 23q-68 24 -68 90q0 92 103 246q106 164 194 164q56 0 166.5 -19.5t165.5 -19.5q23 0 23 -37q0 -41 -29 -75t-70 -34q-28 0 -99 19.5t-110 19.5q-88 0 -141 -102q-4 -10 -59 -129q0 -6 28 -15l127 -36q84 -33 84 -80
v-230h717v154q0 37 -133 68l-168 32q-41 11 -41 72q0 108 90 254q97 158 199 158q49 0 147 -17q76 -12 123 -14q99 6 287 31q137 0 246 -45q141 -62 145 -183v-1206zM1202 260v313h-717v-309q0 -76 76 -112q57 -29 144 -29q315 0 464 102q33 23 33 35z" />
    <glyph glyph-name="omacron" horiz-adv-x="2250" 
d="M2097 0h-127v1206q-6 54 -108 82q-76 17 -156 12q-88 -6 -154 -14q-59 -8 -145 -18q-8 -4 -16 -4h-23q-31 4 -82 18q-74 18 -110 18q-60 0 -103 -69q-16 -27 -43 -88q-31 -68 -31 -86q0 -10 41 -19l164 -32q121 -33 121 -80v-684q0 -131 -258 -197q-176 -45 -362 -45
q-146 0 -236 57q-107 66 -107 203v590q0 45 -67 61l-125 23q-68 24 -68 90q0 92 103 246q106 164 194 164q56 0 166.5 -19.5t165.5 -19.5q23 0 23 -37q0 -41 -29 -75t-70 -34q-28 0 -99 19.5t-110 19.5q-88 0 -141 -102q-4 -10 -59 -129q0 -6 28 -15l127 -36q84 -33 84 -80
v-230h717v154q0 37 -133 68l-168 32q-41 11 -41 72q0 108 90 254q97 158 199 158q49 0 147 -17q76 -12 123 -14q99 6 287 31q137 0 246 -45l18 -9v439q0 34 -187.5 97.5t-187.5 96.5q0 127 74 127h2q0 -41 109 -86l205 -80q112 -51 112 -102v-1872zM1202 260v313h-717v-309
q0 -76 76 -112q57 -29 144 -29q315 0 464 102q33 23 33 35z" />
    <glyph glyph-name="Obreve" unicode="&#x1799;" horiz-adv-x="2273" 
d="M2249 1374q0 -26 -28 -68t-52 -42q-33 0 -105.5 18t-109.5 18q-60 0 -103 -69q-73 -119 -73 -174q0 -17 47 -17l162 -32q118 -35 118 -82v-684q0 -123 -276 -191q-201 -51 -377 -51q-137 0 -192 14q-103 29 -144 119q-84 -59 -272 -98q-164 -35 -291 -35q-348 0 -348 242
v1020q0 84 20 120q29 52 107 52q53 0 119 -41q108 -68 168.5 -185.5t60.5 -249.5q0 -79 -66 -127q-57 -40 -141 -40t-145 40v-577q0 -131 225 -131q98 0 188 14q70 10 197 47q166 47 166 76v590q0 45 -68 61l-125 23q-67 24 -67 90q0 92 102 246q107 164 193 164
q55 0 165.5 -19.5t168.5 -19.5q24 0 24 -37q0 -41 -29.5 -75t-70.5 -34q-29 0 -99.5 19.5t-109.5 19.5q-80 0 -131 -80l-70 -149q2 -6 121 -43t119 -90v-654q0 -104 63 -133q37 -16 162 -16q344 0 498 104q32 23 32 35v588q0 39 -135 68l-170 32q-39 11 -39 72q0 108 91 254
q96 158 198 158q47 0 145.5 -15.5t149.5 -15.5q27 0 27 -29zM557 985q0 172 -162 297q-41 33 -67 37v-358q53 -54 133 -54q96 0 96 78z" />
    <glyph glyph-name="obreve" horiz-adv-x="737" 
d="M713 1374q0 -26 -27 -68t-51 -42q-35 0 -107.5 18t-109.5 18q-60 0 -103 -71q-73 -125 -73 -174q0 -15 47 -15l162 -32q118 -35 118 -82v-1408q0 -136 -258 -209q-186 -54 -366 -54q-342 0 -342 293q0 109 64 199q71 100 176 100q92 0 151 -47q67 -51 67 -139
q0 -72 -47 -72q-50 0 -70.5 67.5t-76.5 67.5q-67 0 -106 -61q-35 -51 -35 -123q0 -82 72 -125q59 -37 147 -37q313 0 469 107q32 22 32 37v1326q0 39 -131 70l-172 32q-41 11 -41 70q0 110 91 256q96 158 198 158q49 0 147.5 -15.5t147.5 -15.5q27 0 27 -29z" />
    <glyph glyph-name="Rcedilla" horiz-adv-x="737" 
d="M713 1374q0 -26 -27 -68t-51 -42q-35 0 -107.5 18t-109.5 18q-60 0 -103 -71q-73 -125 -73 -174q0 -15 47 -15l162 -32q118 -35 118 -82v-2077q0 -135 -258 -209q-186 -53 -366 -53q-342 0 -342 293q0 109 64 199q71 100 176 100q92 0 151 -47q67 -51 67 -139
q0 -72 -47 -72q-50 0 -70.5 67.5t-76.5 67.5q-67 0 -106 -61q-35 -51 -35 -123q0 -82 72 -125q59 -37 147 -37q313 0 469 107q32 22 32 36v1995q0 39 -131 70l-172 32q-41 11 -41 70q0 110 91 256q96 158 198 158q49 0 147.5 -15.5t147.5 -15.5q27 0 27 -29z" />
    <glyph glyph-name="rcedilla" horiz-adv-x="3018" 
d="M2875 0h-127v1202q0 58 -108 86q-76 17 -156 12q-88 -6 -153 -14q-60 -8 -146 -18q-8 -4 -16 -4h-17h-6q-30 4 -84 18q-71 18 -108 18q-60 0 -103 -69q-73 -119 -73 -174q0 -17 47 -17l162 -32q118 -35 118 -82v-684q0 -123 -276 -191q-201 -51 -377 -51q-137 0 -192 14
q-103 29 -144 119q-84 -59 -272 -98q-164 -35 -291 -35q-348 0 -348 242v1020q0 84 20 120q29 52 107 52q53 0 119 -41q108 -68 168.5 -185.5t60.5 -249.5q0 -79 -66 -127q-57 -40 -141 -40t-145 40v-577q0 -131 225 -131q98 0 188 14q70 10 197 47q166 47 166 76v590
q0 45 -68 61l-125 23q-67 24 -67 90q0 92 102 246q107 164 193 164q55 0 165.5 -19.5t168.5 -19.5q24 0 24 -37q0 -41 -29.5 -75t-70.5 -34q-29 0 -99.5 19.5t-109.5 19.5q-80 0 -131 -80l-70 -149q2 -6 121 -43t119 -90v-654q0 -104 63 -133q37 -16 162 -16q344 0 498 104
q32 23 32 35v588q0 39 -135 68l-170 32q-39 11 -39 72q0 108 91 254q96 158 198 158q47 0 146 -17q75 -12 125 -14q98 6 286 31q137 0 246 -45q141 -62 145 -183v-1206zM557 985q0 172 -162 297q-41 33 -67 37v-358q53 -54 133 -54q96 0 96 78z" />
    <glyph glyph-name="Scircumflex" horiz-adv-x="1511" 
d="M1360 0h-127v1202q0 58 -109 86q-75 17 -155 12q-88 -6 -154 -14q-67 -10 -170 -22h-14q-35 0 -105 18q-71 18 -108 18q-60 0 -103 -71q-73 -125 -73 -174q0 -15 47 -15l162 -32q118 -35 118 -82v-1408q0 -136 -258 -209q-186 -54 -366 -54q-342 0 -342 293q0 109 64 199
q71 100 176 100q92 0 151 -47q67 -51 67 -139q0 -72 -47 -72q-50 0 -70.5 67.5t-76.5 67.5q-67 0 -106 -61q-35 -51 -35 -123q0 -82 72 -125q59 -37 147 -37q313 0 469 107q32 22 32 37v1326q0 39 -131 70l-172 32q-41 11 -41 70q0 110 91 256q96 158 198 158q33 0 90 -9v2
l31 -6l23 -2l65 -10l14 -2l50 -4h10h10q98 4 285 31q137 0 245 -45q142 -62 146 -183v-1206z" />
    <glyph glyph-name="scircumflex" horiz-adv-x="1511" 
d="M1360 0h-127v1202q0 58 -109 86q-75 17 -155 12q-88 -6 -154 -14q-67 -10 -170 -22h-14q-35 0 -105 18q-71 18 -108 18q-60 0 -103 -71q-73 -125 -73 -174q0 -15 47 -15l162 -32q118 -35 118 -82v-2066q0 -135 -258 -209q-186 -53 -366 -53q-342 0 -342 293q0 109 64 199
q71 100 176 100q92 0 151 -47q67 -51 67 -139q0 -72 -47 -72q-50 0 -70.5 67.5t-76.5 67.5q-67 0 -106 -61q-35 -52 -35 -123q0 -82 72 -125q59 -37 147 -37q313 0 469 106q32 23 32 37v1984q0 39 -131 70l-172 32q-41 11 -41 70q0 110 91 256q96 158 198 158q33 0 90 -9v2
l31 -6l23 -2l65 -10l14 -2l50 -4h10h10q98 4 285 31q137 0 245 -45q142 -62 146 -183v-1206z" />
    <glyph glyph-name="Tbar" horiz-adv-x="3018" 
d="M2875 0h-127v1202v4q-6 54 -108 82q-76 17 -156 12q-88 -6 -153 -14q-60 -8 -146 -18q-8 -4 -16 -4h-17h-6q-30 4 -84 18q-71 18 -108 18q-60 0 -103 -69q-73 -119 -73 -174q0 -17 47 -17l162 -32q118 -35 118 -82v-684q0 -123 -276 -191q-201 -51 -377 -51
q-137 0 -192 14q-103 29 -144 119q-84 -59 -272 -98q-164 -35 -291 -35q-348 0 -348 242v1020q0 84 20 120q29 52 107 52q53 0 119 -41q108 -68 168.5 -185.5t60.5 -249.5q0 -79 -66 -127q-57 -40 -141 -40t-145 40v-577q0 -131 225 -131q98 0 188 14q70 10 197 47
q166 47 166 76v590q0 45 -68 61l-125 23q-67 24 -67 90q0 92 102 246q107 164 193 164q55 0 165.5 -19.5t168.5 -19.5q24 0 24 -37q0 -41 -29.5 -75t-70.5 -34q-29 0 -99.5 19.5t-109.5 19.5q-80 0 -131 -80l-70 -149q2 -6 121 -43t119 -90v-654q0 -104 63 -133
q37 -16 162 -16q344 0 498 104q32 23 32 35v588q0 39 -135 68l-170 32q-39 11 -39 72q0 108 91 254q96 158 198 158q47 0 146 -17q75 -12 125 -14q98 6 286 31q137 0 246 -45l18 -9v439q0 34 -187 97.5t-187 96.5q0 129 75 127q0 -41 109 -86l205 -80q112 -51 112 -102v-660
v-6v-1206zM557 985q0 172 -162 297q-41 33 -67 37v-358q53 -54 133 -54q96 0 96 78z" />
    <glyph glyph-name="tbar" horiz-adv-x="1511" 
d="M1360 0h-127v1206q-6 54 -109 82q-75 17 -155 12q-88 -6 -154 -14q-67 -10 -170 -22h-14q-35 0 -105 18q-71 18 -108 18q-60 0 -103 -71q-73 -125 -73 -174q0 -15 47 -15l162 -32q118 -35 118 -82v-1388q0 -136 -258 -209q-186 -54 -366 -54q-342 0 -342 293
q0 109 64 199q71 100 176 100q92 0 151 -47q67 -51 67 -139q0 -72 -47 -72q-50 0 -70.5 67.5t-76.5 67.5q-67 0 -106 -61q-35 -51 -35 -123q0 -82 72 -125q59 -37 147 -37q313 0 469 107q32 22 32 37v1306q0 39 -131 70l-172 32q-41 11 -41 70q0 110 91 256q96 158 198 158
q33 0 90 -9v2l31 -6l23 -2l65 -10l14 -2l50 -4h20q98 4 285 31q137 0 245 -45l19 -9v439q0 34 -187.5 97.5t-187.5 96.5q0 129 76 127q0 -41 108 -86l205 -80q113 -51 113 -102v-1872z" />
    <glyph glyph-name="Utilde" horiz-adv-x="1511" 
d="M1360 0h-127v1206q-6 54 -109 82q-75 17 -155 12q-88 -6 -154 -14q-67 -10 -170 -22h-14q-35 0 -105 18q-71 18 -108 18q-60 0 -103 -71q-73 -125 -73 -174q0 -15 47 -15l162 -32q118 -35 118 -82v-2066q0 -135 -258 -209q-186 -53 -366 -53q-342 0 -342 292
q0 109 64 199q71 101 176 101q92 0 151 -48q67 -51 67 -139q0 -72 -47 -72q-50 0 -70.5 68t-76.5 68q-67 0 -106 -62q-35 -51 -35 -123q0 -82 72 -125q59 -36 147 -36q313 0 469 106q32 23 32 37v1984q0 39 -131 70l-172 32q-41 11 -41 70q0 110 91 256q96 158 198 158
q33 0 90 -9v2l31 -6l23 -2l65 -10l14 -2l50 -4h20q98 4 285 31q137 0 245 -45l19 -9v439q0 34 -187.5 97.5t-187.5 96.5q0 129 76 127q0 -41 108 -86l205 -80q113 -51 113 -102v-1872z" />
    <glyph glyph-name="utilde" unicode="&#x179a;" horiz-adv-x="819" 
d="M819 1374q0 -26 -27.5 -68t-54.5 -42q-28 0 -102 18t-111 18q-59 0 -102 -69q-76 -125 -76 -172q0 -6 49 -21q158 -47 166 -51q115 -45 115 -104v-715q0 -90 -12 -117q-21 -51 -95 -51q-157 0 -250 106q-90 101 -90 259q0 69 57.5 120.5t127.5 51.5q49 0 88 -32t39 -77
q0 -14 -4 -20q-45 18 -82 18t-66 -16q-37 -19 -37 -48q0 -92 54 -161q59 -78 147 -78v719q0 30 -137 65q-84 23 -168 43q-39 17 -39 72q0 111 90 254q96 158 199 158q47 0 145 -15.5t150 -15.5q26 0 26 -29z" />
    <glyph glyph-name="Umacron" horiz-adv-x="774" 
d="M1223 -493q0 -131 -258 -197q-74 -45 -260 -45q-146 0 -236 58q-107 67 -107 205v1320q0 45 -64.5 59.5t-127.5 26.5q-68 22 -68 90q0 92 103 246q106 164 192 164q56 0 166.5 -19.5t167.5 -19.5q23 0 23 -37q0 -41 -29 -75t-70 -34q-28 0 -99 19.5t-110 19.5
q-90 0 -141 -102q-6 -12 -59 -129q0 -15 28 -15l127 -36q84 -33 84 -80v-1394q0 -78 76 -115q57 -29 144 -29q213 0 362 105q33 16 33 35v298h123v-319z" />
    <glyph glyph-name="umacron" horiz-adv-x="774" 
d="M1223 -1131q0 -131 -258 -197q-74 -45 -260 -45q-146 0 -236 57q-107 68 -107 205v1959q0 45 -64.5 59.5t-127.5 26.5q-68 22 -68 90q0 92 103 246q106 164 192 164q56 0 166.5 -19.5t167.5 -19.5q23 0 23 -37q0 -41 -29 -75t-70 -34q-28 0 -99 19.5t-110 19.5
q-90 0 -141 -102q-6 -12 -59 -129q0 -15 28 -15l127 -36q84 -33 84 -80v-2033q0 -77 76 -114q57 -29 144 -29q213 0 362 104q33 17 33 35v278h123v-298z" />
    <glyph glyph-name="Ubreve" horiz-adv-x="1589" 
d="M1442 0h-127v1202q0 58 -109 86q-76 17 -155 12q-88 -6 -154 -14q-57 -8 -141 -18q-11 -4 -19 -4h-16h-8v2q-29 4 -78 16q-74 18 -111 18q-59 0 -102 -69q-76 -125 -76 -172q0 -6 49 -21q158 -47 166 -51q115 -45 115 -104v-715q0 -90 -12 -117q-21 -51 -95 -51
q-157 0 -250 106q-90 101 -90 259q0 69 57.5 120.5t127.5 51.5q49 0 88 -32t39 -77q0 -14 -4 -20q-45 18 -82 18t-66 -16q-37 -19 -37 -48q0 -92 54 -161q59 -78 147 -78v719q0 30 -137 65q-84 23 -168 43q-39 17 -39 72q0 111 90 254q96 158 199 158q47 0 145 -17
q76 -12 123 -14q98 6 285 31q137 0 245 -45q142 -62 146 -183v-1206z" />
    <glyph glyph-name="ubreve" horiz-adv-x="1585" 
d="M1442 0h-127v1206q-6 54 -109 82q-76 17 -155 12q-88 -6 -154 -14q-57 -8 -141 -18q-11 -4 -19 -4h-16h-8v2q-29 4 -78 16q-74 18 -111 18q-59 0 -102 -69q-76 -125 -76 -172q0 -6 49 -21q158 -47 166 -51q115 -45 115 -104v-715q0 -90 -12 -117q-21 -51 -95 -51
q-157 0 -250 106q-90 101 -90 259q0 69 57.5 120.5t127.5 51.5q49 0 88 -32t39 -77q0 -14 -4 -20q-45 18 -82 18t-66 -16q-37 -19 -37 -48q0 -92 54 -161q59 -78 147 -78v719q0 30 -137 65q-84 23 -168 43q-39 17 -39 72q0 111 90 254q96 158 199 158q47 0 145 -17
q76 -12 123 -14q98 6 285 31q137 0 245 -45l19 -9v439q0 34 -187.5 97.5t-187.5 96.5q0 129 76 127q0 -41 108 -86l205 -80q113 -51 113 -102v-660v-6v-1206z" />
    <glyph glyph-name="Uogonek" unicode="&#x179b;" horiz-adv-x="2170" 
d="M2152 1374q0 -35 -29.5 -72.5t-62.5 -37.5q-20 0 -94 18t-108 18q-62 0 -105 -69q-16 -27 -43 -86q-31 -70 -31 -88q0 -4 43 -19l164 -32q121 -33 121 -80v-684q0 -131 -258 -197q-176 -45 -360 -45q-150 0 -238 59q-104 72 -104 213v951q0 88 -246 88
q-64 0 -140.5 -16.5t-185.5 -57.5q-147 -55 -147 -94v-635q59 55 137 55q82 0 135 -59.5t53 -143.5q0 -159 -92 -259.5t-250 -100.5q-71 0 -94 76q-12 41 -12 137v950q0 109 252 197q209 74 348 74q364 0 364 -234v-928q0 -149 220 -149q321 0 466 106q29 15 29 31v590
q0 43 -131 72l-172 28q-39 11 -39 72q0 108 90 254q97 158 199 158q47 0 145.5 -15.5t149.5 -15.5q26 0 26 -29zM530 371q0 84 -71 84q-64 0 -131 -72v-260q202 24 202 248z" />
    <glyph glyph-name="uogonek" 
d="M-47 -317q0 -4 -8 -16.5t-10 -14.5q-39 -59 -49 -105q-51 -200 -262 -200q-99 0 -142 97l-71 185q-60 99 -203 99q-76 0 -155 -72.5t-79 -142.5q0 -146 113 -146q78 0 78 51q0 18 -14.5 48.5t-14.5 46.5q0 40 68 40q31 0 41 -10q43 -50 43 -132q0 -74 -58.5 -114
t-142.5 -40q-235 0 -235 252q0 126 110.5 227t249.5 101q244 0 326 -192q18 -54 34 -110q29 -80 62 -80q63 0 94 42q21 23 36 81.5t32 79.5q32 39 118 39q39 0 39 -14z" />
    <glyph glyph-name="Wcircumflex" 
d="M-47 -997q0 -4 -8 -16t-10 -14q-39 -61 -49 -105q-51 -200 -262 -200q-99 0 -142 98l-71 183q-60 98 -203 98q-76 0 -155 -72t-79 -142q0 -143 113 -143q78 0 78 50q0 18 -14.5 48.5t-14.5 44.5q0 41 68 41q31 0 41 -11q43 -50 43 -131q0 -71 -58.5 -111t-142.5 -40
q-235 0 -235 249q0 125 110.5 226t249.5 101q244 0 326 -193q18 -54 34 -108q29 -80 62 -80q63 0 94 41q21 24 36 83t32 77q32 39 118 39q39 0 39 -13z" />
    <glyph glyph-name="wcircumflex" horiz-adv-x="2916" 
d="M2773 0h-127v1202q0 58 -109 86q-75 17 -155 12q-88 -6 -154 -14q-59 -8 -147 -18q-10 -4 -21 -4h-12h-4q-25 4 -78 18q-74 18 -108 18q-62 0 -105 -69q-16 -27 -43 -86q-31 -70 -31 -88q0 -4 43 -19l164 -32q121 -33 121 -80v-684q0 -131 -258 -197q-176 -45 -360 -45
q-150 0 -238 59q-104 72 -104 213v951q0 88 -246 88q-64 0 -140.5 -16.5t-185.5 -57.5q-147 -55 -147 -94v-635q59 55 137 55q82 0 135 -59.5t53 -143.5q0 -159 -92 -259.5t-250 -100.5q-71 0 -94 76q-12 41 -12 137v950q0 109 252 197q209 74 348 74q364 0 364 -234v-928
q0 -149 220 -149q321 0 466 106q29 15 29 31v590q0 43 -131 72l-172 28q-39 11 -39 72q0 108 90 254q97 158 199 158q47 0 145 -17q74 -10 121 -14q101 6 285 31q137 0 246 -45q141 -62 145 -183v-1206zM530 371q0 84 -71 84q-64 0 -131 -72v-260q202 24 202 248z" />
    <glyph glyph-name="Ycircumflex" horiz-adv-x="2916" 
d="M2773 0h-127v1202q0 58 -109 86q-75 17 -155 12q-88 -6 -154 -14q-59 -8 -147 -18q-10 -4 -21 -4h-12h-4q-25 4 -78 18q-74 18 -108 18q-62 0 -105 -69q-16 -27 -43 -86q-31 -70 -31 -88q0 -4 43 -19l164 -32q121 -33 121 -80v-684q0 -131 -258 -197q-176 -45 -360 -45
q-150 0 -238 59q-104 72 -104 213v951q0 88 -246 88q-64 0 -140.5 -16.5t-185.5 -57.5q-147 -55 -147 -94v-635q59 55 137 55q82 0 135 -59.5t53 -143.5q0 -159 -92 -259.5t-250 -100.5q-71 0 -94 76q-12 41 -12 137v950q0 109 252 197q209 74 348 74q364 0 364 -234v-928
q0 -149 220 -149q321 0 466 106q29 15 29 31v590q0 43 -131 72l-172 28q-39 11 -39 72q0 108 90 254q97 158 199 158q47 0 145 -17q74 -10 121 -14q101 6 285 31q137 0 246 -45l18 -9v439q0 34 -187.5 97.5t-187.5 96.5q0 129 76 127q0 -41 109 -86l204 -80
q113 -51 113 -102v-664v-2v-1206zM530 371q0 84 -71 84q-64 0 -131 -72v-260q202 24 202 248z" />
    <glyph glyph-name="ycircumflex" unicode="&#x179c;" horiz-adv-x="819" 
d="M770 1423q0 -55 -35 -99t-90 -44q-24 0 -72.5 10t-72.5 10q-43 0 -98.5 -97t-55.5 -142q0 -6 49 -21q150 -43 166 -49q115 -47 115 -106v-738q0 -75 -17 -104q-22 -43 -90 -43q-157 0 -250 106q-90 101 -90 259q0 69 57.5 120.5t127.5 51.5q47 0 87 -31t40 -76
q0 -14 -4 -22q-37 18 -82 18q-35 0 -66 -14q-37 -19 -37 -50q0 -92 54 -161q59 -78 147 -78v721q0 30 -135 67l-170 41q-39 15 -39 72q0 109 90 254q96 158 199 158q22 0 64 -13.5t63 -13.5q20 0 20 31q0 61 -68.5 114.5t-68.5 100.5q0 49 28.5 92t73.5 43q23 0 23 -39
q0 -10 -3 -32.5t-3 -35.5q0 -16 53 -77q70 -80 78 -105q12 -4 12 -78z" />
    <glyph glyph-name="longs" 
d="M-182 -171q0 -35 -30 -61q14 -7 14 -28q0 -199 -156 -333q-158 -137 -366 -137q-383 0 -383 247q0 84 77 106q35 13 154 13q260 0 551 195q33 22 80 66q2 5 8 5q18 0 34.5 -27t16.5 -46zM-552 -408q-203 -70 -365 -70h-18q-9 2 -19 2q-26 0 -26 -20q0 -122 235 -122
q49 0 121 21t138.5 57.5t113.5 85t47 103.5q0 20 -8 40q-52 -28 -106 -52.5t-113 -44.5z" />
    <glyph glyph-name="Aringacute" 
d="M-182 -822q0 -37 -30 -63q14 -5 14 -27q0 -203 -156 -339q-158 -139 -366 -139q-383 0 -383 250q0 86 77 109q37 12 154 12q262 0 551 199q31 21 80 68q2 5 8 5q18 0 34.5 -28t16.5 -47zM-552 -1064q-201 -70 -365 -70h-18q-9 2 -19 2q-26 0 -26 -20q0 -125 235 -125
q186 0 324 131q98 90 98 142q-12 20 -12 30q0 6 2 9l-106 -52.5t-113 -46.5z" />
    <glyph glyph-name="aringacute" horiz-adv-x="1544" 
d="M1386 0h-120v1202q0 58 -109 88q-80 23 -156 23q-90 0 -153 -13q-70 -10 -180 -18q-6 -2 -23 -2l-145 20q-43 0 -99 -98q-55 -96 -55 -141q0 -6 49 -21q150 -43 166 -49q115 -47 115 -106v-738q0 -75 -17 -104q-22 -43 -90 -43q-157 0 -250 106q-90 103 -90 259
q0 34 15.5 65t42 54.5t59.5 38t68 14.5q47 0 87 -31t40 -76q0 -10 -4 -22q-37 18 -82 18q-37 0 -66 -14q-37 -19 -37 -50q0 -90 54 -161q59 -78 147 -78v721q0 30 -135 67q-41 11 -84 21l-86 20q-39 15 -39 72q0 109 90 254q96 158 199 158q12 0 29.5 -4.5l36 -9.5l34.5 -9
t27 -4q20 0 20 31q0 63 -70 114q-67 52 -67 101t28.5 92t73.5 43q23 0 23 -39l-6 -68q0 -14 53 -77q20 -25 37.5 -43.5t30 -34t18.5 -32.5t6 -40v-16q0 -8 -2 -19q113 13 231 13q142 0 246 -45q135 -62 139 -183v-1206z" />
    <glyph glyph-name="AEacute" horiz-adv-x="1544" 
d="M1386 0h-120v1206q-6 54 -109 84q-80 23 -156 23q-90 0 -153 -13q-66 -8 -182 -18q-7 -2 -21 -2l-145 20q-43 0 -99 -98q-55 -96 -55 -141q0 -6 49 -21q150 -43 166 -49q115 -47 115 -106v-738q0 -75 -17 -104q-22 -43 -90 -43q-157 0 -250 106q-90 103 -90 259
q0 34 15.5 65t42 54.5t59.5 38t68 14.5q47 0 87 -31t40 -76q0 -10 -4 -22q-37 18 -82 18q-37 0 -66 -14q-37 -19 -37 -50q0 -90 54 -161q59 -78 147 -78v721q0 30 -135 67q-41 11 -84 21l-86 20q-39 15 -39 72q0 109 90 254q96 158 199 158q12 0 29.5 -4.5l36 -9.5l34.5 -9
t27 -4q20 0 20 31q0 63 -70 114q-67 52 -67 101t28.5 92t73.5 43q23 0 23 -39l-6 -68q0 -14 53 -77q20 -25 37.5 -43.5t30 -34t18.5 -32.5t6 -40v-16q0 -8 -2 -19q113 13 231 13q142 0 246 -45q6 -3 19 -11v441q0 32 -189 98q-186 63 -186 96q0 127 72 127h4q0 -10 10 -21.5
t43 -29.5t94.5 -46t165.5 -69q106 -51 106 -102v-1872z" />
    <glyph glyph-name="aeacute" unicode="&#x179d;" horiz-adv-x="1331" 
d="M1397 555q-2 -51 -117 -131q-37 -27 -106 -49l-7 -2v-373h-123v365q-83 -5 -110 36q-25 37 -53 103l2 10q2 2 31.5 41t33.5 39q10 0 39 -55q27 -39 57 -56v387q0 91 -243 91q-56 0 -142 -19q-75 -16 -184 -57q-147 -56 -147 -94v-584q161 235 331 235q101 0 101 -86
q0 -59 -45 -59q-17 0 -40.5 11t-35.5 11q-70 0 -180 -129q-90 -104 -133 -190h-121v811q0 111 252 199q209 71 348 71q362 0 362 -233v-363h7l83 25q107 53 129 55zM1264 1352q0 -76 -113 -76q-45 0 -124 19.5t-99 19.5q-29 0 -76 -51.5t-109 -51.5q-57 0 -173.5 50.5
t-157.5 50.5q-27 0 -74 -50.5t-47 -78.5q2 -2 76 -41q49 -27 49 -66q0 -22 -32 -51t-54 -29q-11 0 -11 13q0 22 -90 66t-90 63q0 18 21 59q35 92 100 158q78 78 166 78q49 0 165 -50.5t150 -50.5q27 0 71 50.5t81 50.5q41 0 124 -21.5t126 -21.5q12 0 35.5 4t35.5 4
q50 0 50 -47z" />
    <glyph glyph-name="Oslashacute" 
d="M-26 -336q0 -41 -78 -106q-45 -37 -80 -55v-246h-123v226q-51 15 -96 92q-16 27 -37 82l2 7q2 2 36 8t36 6q6 0 27 -42q16 -41 32 -57v151q0 20 -110 34q-82 9 -131 9q-220 0 -447 -83q-31 -17 -31 -281q232 148 334 148q97 0 97 -73q0 -65 -80 -65q-29 0 -60 9
q-53 -9 -149 -71q-84 -51 -135 -100h-129v460q0 76 266 131q209 44 334 44q108 0 206 -16q158 -31 158 -94v-192q25 12 66 37q71 42 86 44z" />
    <glyph glyph-name="oslashacute" 
d="M-26 -1133q0 -37 -78 -96q-45 -33 -80 -52v-131h-123v113q-51 15 -96 85q-16 25 -37 74l2 7q2 2 36 7.5t36 5.5q6 0 27 -39q16 -37 32 -51v231q0 18 -110 29q-82 10 -131 10q-220 0 -447 -76q-31 -15 -31 -257q232 135 334 135q97 0 97 -67q0 -61 -80 -61q-29 0 -60 10
q-53 -10 -149 -65q-84 -48 -135 -91h-129v422q0 68 266 120q209 40 334 40q108 0 206 -17q158 -27 158 -84v-268q25 10 66 33q71 39 86 41z" />
    <glyph glyph-name="anoteleia" horiz-adv-x="1943" 
d="M1464 641q-2 -51 -116 -131q-99 -68 -168 -90l-13 -2v-418h-123v412q-81 20 -145 116q-25 37 -53 103l2 10q2 2 52 10t54 8q11 0 39 -55q25 -51 51 -72v338q0 91 -243 91q-56 0 -142 -19q-75 -16 -184 -57q-147 -56 -147 -94v-584q161 235 331 235q101 0 101 -86
q0 -59 -45 -59q-17 0 -40.5 11t-35.5 11q-70 0 -180 -129q-90 -104 -133 -190h-121v811q0 111 252 199q209 71 348 71q362 0 362 -233v-318h13q30 9 145 66q107 53 129 55zM1798 0h-123v1255q0 43 -76 66q-53 14 -122 14q-168 0 -332 -51q-162 -35 -217 -35
q-117 -16 -255 31t-224 53q-35 -10 -93.5 -74.5t-58.5 -72.5q0 -4 14 -10l109 -29q72 -21 67 -74l-8 -20l-14 -17l-16 -8l-62 -16q0 32 -84 53l-113 20q-34 9 -34 48q0 81 96 194q98 119 192 115q101 4 252.5 -49.5t231.5 -53.5q41 0 100 21l98 33q162 53 365 53
q123 0 201 -33q98 -45 106 -137v-1276z" />
    <glyph glyph-name="Wgrave" horiz-adv-x="1943" 
d="M1798 0h-123v1255q0 43 -76 66q-53 14 -122 14q-168 0 -332 -51q-162 -35 -217 -35q-117 -16 -255 31t-224 53q-35 -10 -93.5 -74.5t-58.5 -72.5q0 -4 14 -10l109 -29q72 -21 67 -74l-8 -20l-14 -17l-16 -8l-62 -16q0 32 -84 53l-113 20q-34 9 -34 48q0 81 96 194
q98 119 192 115q101 4 252.5 -49.5t231.5 -53.5q41 0 100 21l98 33q162 53 365 53q111 0 184 -27v400q0 34 -187.5 97.5t-187.5 96.5q0 129 76 127q0 -41 109 -86l205 -80q106 -51 106 -102v-584q0 -6 2 -12v-1276zM1464 641q-2 -51 -116 -131q-99 -68 -168 -90l-13 -2v-418
h-123v412q-81 20 -145 116q-25 37 -53 103l2 10q2 2 52 10t54 8q11 0 39 -55q25 -51 51 -72v338q0 91 -243 91q-56 0 -142 -19q-75 -16 -184 -57q-147 -56 -147 -94v-584q161 235 331 235q101 0 101 -86q0 -59 -45 -59q-17 0 -40.5 11t-35.5 11q-70 0 -180 -129
q-90 -104 -133 -190h-121v811q0 111 252 199q209 71 348 71q362 0 362 -233v-318h13q30 9 145 66q107 53 129 55z" />
    <glyph glyph-name="wgrave" unicode="&#x179e;" horiz-adv-x="1488" 
d="M1061 659l74 5l32 -5v5h35v186q0 37 -133 68l-168 32q-41 11 -41 72q0 108 90 254q97 158 199 158q49 0 147.5 -15.5t147.5 -15.5q26 0 26 -29q0 -26 -27.5 -68t-51.5 -42q-31 0 -105 18t-110 18q-60 0 -103 -69q-16 -27 -43 -88q-31 -68 -31 -86q0 -10 41 -19l164 -32
q121 -33 121 -80v-242q10 0 23 -4l47 16l55 17l20 6l9 -51q2 -6 2 -11q0 -11 -8 -17q-13 -9 -33.5 -14l-42 -10.5t-35.5 -15.5q-19 -10 -37 -12v-346q0 -131 -258 -197q-176 -45 -362 -45q-146 0 -236 57q-107 66 -107 203v590q0 45 -67 61l-125 23q-68 24 -68 90
q0 92 103 246q106 164 194 164q56 0 166.5 -19.5t165.5 -19.5q23 0 23 -37q0 -41 -29 -75t-70 -34q-28 0 -99 19.5t-110 19.5q-88 0 -141 -102q-4 -10 -59 -129q0 -6 28 -15l127 -36q84 -33 84 -80v-662q0 -76 76 -112q57 -29 144 -29q315 0 464 102q33 23 33 35v309l-33 -6
l-51 -12l-51 -16l-49 -7h-41l-23 11l-20 6l-29 39l4 24l23 29l35 16l16 4z" />
    <glyph glyph-name="Wacute" horiz-adv-x="733" 
d="M774 71q-2 -38 -92 -100q-66 -43 -115 -63v-632q0 -49 -49 -49q-67 0 -268 109.5t-234 109.5q-18 0 -161 -110.5t-197 -110.5q-43 0 -43 61v354q0 90 64 141q57 45 152 45q51 0 93 -30.5t42 -79.5q0 -29 -18.5 -57.5t-45.5 -28.5q-24 0 -49 34.5t-51 34.5
q-29 0 -46.5 -24.5t-17.5 -52.5v-211l4 -4q25 10 127 94q84 68 145 68q66 0 237 -94.5t185 -94.5q4 0 8 2v513q-65 17 -116 90q-19 27 -41 78l2 8q2 0 41 6.5t43 6.5q8 0 30 -41q21 -39 41 -53v858q0 39 -133 70l-168 32q-41 8 -41 70q0 110 91 256q96 158 198 158
q49 0 147.5 -15.5t147.5 -15.5q27 0 27 -29q0 -28 -29 -69t-55 -41q-25 0 -99.5 18t-111.5 18q-60 0 -103 -71q-73 -123 -73 -172q0 -8 41 -19q82 -16 163 -34q121 -31 121 -78v-932q31 12 97 43q84 41 102 41z" />
    <glyph glyph-name="wacute" horiz-adv-x="733" 
d="M774 14q-2 -39 -92 -101q-66 -43 -115 -63v-1212q0 -49 -49 -49q-67 0 -268 109.5t-234 109.5q-18 0 -161 -110.5t-197 -110.5q-43 0 -43 61v334q0 90 64 142q57 45 152 45q51 0 93 -31t42 -80q0 -29 -18.5 -57.5t-45.5 -28.5q-24 0 -49 35t-51 35q-29 0 -46.5 -24.5
t-17.5 -53.5v-191l4 -4q25 10 127 94q84 68 145 68q66 0 237 -94t185 -94q4 0 8 2v1093q-65 16 -116 90q-19 26 -41 78l2 8q2 0 41 6t43 6q8 0 30 -41q21 -39 41 -53v916q0 39 -133 70l-168 32q-41 8 -41 70q0 110 91 256q96 158 198 158q49 0 147.5 -15.5t147.5 -15.5
q27 0 27 -29q0 -28 -29 -69t-55 -41q-25 0 -99.5 18t-111.5 18q-60 0 -103 -71q-73 -123 -73 -172q0 -8 41 -19q82 -16 163 -34q121 -31 121 -78v-990q31 12 97 43q84 41 102 41z" />
    <glyph glyph-name="Wdieresis" horiz-adv-x="2250" 
d="M2097 0h-127v1202q0 58 -108 86q-76 17 -156 12q-88 -6 -154 -14q-59 -8 -145 -18q-8 -4 -16 -4h-23q-2 0 -4 2h-8q-2 0 -4 2h-9q-4 2 -6 2q-6 2 -14 2q-12 4 -27 6q-2 2 -4 2t-6 2q-6 0 -12 2q-14 4 -27 6q-14 4 -26 6q-9 0 -15 2q-18 2 -30 2q-15 0 -27 -4
q-6 -2 -14 -4l-9 -4l-4 -4q-4 -2 -10 -8q-18 -14 -35 -39q-2 -4 -4 -6l-2 -2q-4 -6 -8 -15l-21 -43l-12 -28q-6 -15 -12 -25q-6 -16 -10 -28l-4 -9l-5 -16v-10l2 -4q3 -2 9 -4l2 -3l12 -4q4 0 10 -2h6l164 -32q6 -2 10 -5q27 -6 48 -16q8 -4 16 -6q12 -6 22 -14l5 -4
q8 -7 12 -13q4 -8 6 -14q2 -4 2 -8v-244q6 2 21.5 3t44 7t73.5 19.5t111 36.5l-25 -91q-2 -6 -34.5 -19t-72.5 -26.5t-76 -23.5t-42 -10v-336q0 -11 -2 -21q-4 -24 -18 -47q-7 -12 -17 -22q-2 -2 -4 -7q-18 -16 -45 -34q-29 -17 -70 -33l-10 -4l-43 -17q-12 -4 -24 -6
q-13 -4 -25 -6l-45 -12l-45 -8l-16 -5q-23 -2 -46 -6q-41 -6 -81 -10q-64 -4 -129 -4q-140 0 -228 51q-4 2 -8 6l-20 13q-9 6 -15 12q-59 53 -69 137l-3 27v610q-6 39 -67 55l-125 23q-64 22 -68 80v28q0 7 2 11q0 6 2 16q5 18 13 39q2 8 6 16q18 50 55 107l8 16q9 10 17 23
q106 164 194 164h17q43 -2 106 -13l27 -4l16 -4q41 -6 74 -12q10 0 18 -2h9q4 0 8 -2q33 -2 57 -2h4l6 -2q7 -4 11 -17v-4q0 -2 2 -6v-18q-2 -9 -4 -19q-2 -8 -7 -16q-4 -10 -10 -19l-2 -4l-6 -8q-10 -10 -23 -18q-4 -2 -6 -4q-14 -9 -32 -11h-19q-6 0 -16 2q-27 4 -74 17
q-41 12 -74 16q-2 0 -4 2q-10 0 -18 2h-23q-4 0 -8 -2q-16 -2 -33 -8q-53 -21 -90 -92q-2 -6 -22 -49q-2 -4 -4 -11q-15 -28 -33 -69v-2l2 -2q6 -4 26 -11l127 -36l9 -5q6 -2 10 -4q8 -4 14 -8q2 0 4 -2q11 -6 19 -12q24 -21 28 -43v-680q0 -14 4 -27q5 -6 7 -12
q16 -35 53 -55q6 -4 12 -6q12 -7 27 -13l16 -4q4 -2 6 -2q4 -2 8 -2l11 -2q10 -2 18 -4q27 -2 58 -2h61q14 0 29 2l57 4q33 2 66 8q36 6 71 13q29 8 55 16q21 6 39 14l29 13l16 8q23 10 41 24q27 19 31 29q2 4 2 6v301l-227 -33l-21 11l-20 6l-29 39l4 24l23 29l24 10v4
q2 0 2 -2h3l6 4l16 4l152 7l67 8v182l-2 2q0 4 -4 8q-8 10 -29 21q-10 6 -26 12q-6 2 -15 4q-4 2 -10 4q-4 0 -10 2q-12 4 -25 6l-12 5l-168 32q-8 2 -16 6l-2 2q-19 13 -23 43v48l4 28q10 53 39 115q4 6 6 12q9 15 15 29l16 29q6 6 10 14t8 14q9 13 15 23q4 2 6 6
q16 24 33 43q6 4 10 10q8 6 14 12q21 19 41 29l4 4q15 6 27 10q14 5 31 7h10q14 0 33 -2h14q8 -2 18 -2q5 -3 11 -3h8q4 -2 8 -2q14 -2 31 -4l24 -4h4q11 -2 19 -4h10l21 -4q14 -2 28 -2q4 0 8.5 -1t10.5 -1q14 -2 24 -2q101 6 285 31q137 0 246 -45q141 -62 145 -183v-1206
z" />
    <glyph glyph-name="wdieresis" horiz-adv-x="1482" 
d="M774 1q-2 -38 -92 -100q-66 -43 -115 -63v-562q0 -49 -49 -49q-67 0 -268 109.5t-234 109.5q-18 0 -161 -110.5t-197 -110.5q-43 0 -43 61v424q0 90 64 141q57 45 152 45q51 0 93 -30.5t42 -79.5q0 -29 -18.5 -57.5t-45.5 -28.5q-24 0 -49 34.5t-51 34.5
q-29 0 -46.5 -24.5t-17.5 -52.5v-281l4 -4q25 10 127 94q84 68 145 68q66 0 237 -94.5t185 -94.5q4 0 8 2v443q-65 17 -116 90q-19 27 -41 78l2 8q2 0 41 6.5t43 6.5q8 0 30 -41q21 -39 41 -53v928q0 39 -133 70l-168 32q-41 8 -41 70q0 110 91 256q96 158 198 158
q49 0 148 -17q75 -12 123 -14q98 6 286 31q137 0 246 -45q141 -62 145 -183v-1206h-127v1202q0 58 -108 86q-76 17 -156 12q-88 -6 -153 -14q-62 -8 -150 -18q-8 -4 -16 -4h-19q-26 4 -82 18q-73 18 -110 18q-60 0 -103 -71q-73 -123 -73 -172q0 -8 41 -19q82 -16 163 -34
q121 -31 121 -78v-1002q31 12 97 43q84 41 102 41z" />
    <glyph glyph-name="Ygrave" horiz-adv-x="1482" 
d="M774 -6q-2 -39 -92 -101q-66 -43 -115 -63v-1202q0 -49 -49 -49q-67 0 -268 109.5t-234 109.5q-18 0 -161 -110.5t-197 -110.5q-43 0 -43 61v364q0 90 64 142q57 45 152 45q51 0 93 -31t42 -80q0 -29 -18.5 -57.5t-45.5 -28.5q-24 0 -49 35t-51 35q-29 0 -46.5 -24.5
t-17.5 -53.5v-221l4 -4q25 10 127 94q84 68 145 68q66 0 237 -94t185 -94q4 0 8 2v1083q-65 16 -116 90q-19 26 -41 78l2 8q2 0 41 6t43 6q8 0 30 -41q21 -39 41 -53v936q0 39 -133 70l-168 32q-41 8 -41 70q0 110 91 256q96 158 198 158q49 0 148 -17q75 -12 123 -14
q98 6 286 31q137 0 246 -45q141 -62 145 -183v-1206h-127v1202q0 58 -108 86q-76 17 -156 12q-88 -6 -153 -14q-62 -8 -150 -18q-8 -4 -16 -4h-19q-26 4 -82 18q-73 18 -110 18q-60 0 -103 -71q-73 -123 -73 -172q0 -8 41 -19q82 -16 163 -34q121 -31 121 -78v-1010
q31 12 97 43q84 41 102 41z" />
    <glyph glyph-name="ygrave" horiz-adv-x="2250" 
d="M1061 659l74 5l10 -2q16 4 29.5 5t27.5 5v178q0 37 -133 68l-168 32q-41 11 -41 72q0 108 90 254q97 158 199 158q49 0 147 -17q76 -12 123 -14q99 6 287 31q137 0 246 -45l18 -9v439q0 34 -187.5 97.5t-187.5 96.5q0 129 76 127q0 -41 109 -86l205 -80q112 -51 112 -102
v-1872h-127v1206q-6 54 -108 82q-76 17 -156 12q-88 -6 -154 -14q-59 -8 -145 -18q-8 -4 -16 -4h-23q-31 4 -82 18q-74 18 -110 18q-60 0 -103 -69q-16 -27 -43 -88q-31 -68 -31 -86q0 -10 41 -19l164 -32q121 -33 121 -80v-228q29 7 68 19t77 41l37 -62l-37 -37l-77 -30
l-21 -11l-22 -12l-25 -8v-356q0 -131 -258 -197q-176 -45 -362 -45q-146 0 -236 57q-107 66 -107 203v590q0 45 -67 61l-125 23q-68 24 -68 90q0 92 103 246q106 164 194 164q56 0 166.5 -19.5t165.5 -19.5q23 0 23 -37q0 -41 -29 -75t-70 -34q-28 0 -99 19.5t-110 19.5
q-88 0 -141 -102q-4 -10 -59 -129q0 -6 28 -15l127 -36q84 -33 84 -80v-662q0 -76 76 -112q57 -29 144 -29q315 0 464 102q33 23 33 35v309l-33 -6l-51 -12l-51 -16l-49 -7h-41l-23 11l-20 6l-29 39l4 24l23 29l35 16l16 4z" />
    </font>
</defs>
</svg>
